M48
; DRILL file {KiCad 5.1.10-88a1d61d58~90~ubuntu20.04.1} date Sat Feb  4 16:19:25 2023
; FORMAT={3:3/ absolute / metric / suppress leading zeros}
; #@! TF.CreationDate,2023-02-04T16:19:25+01:00
; #@! TF.GenerationSoftware,Kicad,Pcbnew,5.1.10-88a1d61d58~90~ubuntu20.04.1
FMAT,2
METRIC,TZ
T1C0.800
T2C1.000
T3C1.190
T4C2.540
T5C9.650
T6C3.200
%
G90
G05
T1
X2595Y21590
X11430Y7620
X11430Y5080
X11430Y2540
X15240Y21590
X15240Y13970
X17780Y21590
X17780Y13970
X20320Y21590
X20320Y13970
X22860Y21590
X22860Y13970
X25400Y21590
X25400Y13970
X27940Y21590
X27940Y13970
X27940Y7620
T2
X6350Y10160
X22860Y10160
X25400Y10160
T3
X16510Y3810
X19050Y3810
X21590Y3810
X25400Y3810
X27940Y3810
X30480Y3810
T4
X35560Y10160
T5
X48260Y10160
T6
X5080Y3810
X38100Y20320
T0
M30
