M48
; DRILL file {KiCad 5.1.10-88a1d61d58~90~ubuntu20.04.1} date Sat Feb  4 19:41:23 2023
; FORMAT={3:3/ absolute / metric / suppress leading zeros}
; #@! TF.CreationDate,2023-02-04T19:41:23+01:00
; #@! TF.GenerationSoftware,Kicad,Pcbnew,5.1.10-88a1d61d58~90~ubuntu20.04.1
FMAT,2
METRIC,TZ
T1C0.800
T2C1.190
T3C1.300
T4C3.200
%
G90
G05
T1
X10160Y48260
X10160Y30480
X10160Y27940
X10160Y10160
T2
X6350Y40640
X6350Y38100
X6350Y35560
X6350Y33020
T3
X17780Y57150
X17780Y36830
X17780Y16510
X19780Y63150
X19780Y51150
X19780Y42830
X19780Y30830
X19780Y22510
X19780Y10510
X31980Y63150
X31980Y51150
X31980Y42830
X31980Y30830
X31980Y22510
X31980Y10510
X41910Y62230
X41910Y57230
X41910Y52230
X41910Y41910
X41910Y36910
X41910Y31910
X41910Y21510
X41910Y16510
X41910Y11510
T4
X3810Y69850
X3810Y3810
X41910Y69850
X41910Y3810
T0
M30
