%TF.GenerationSoftware,KiCad,Pcbnew,5.1.10-88a1d61d58~90~ubuntu20.04.1*%
%TF.CreationDate,2023-02-04T19:41:20+01:00*%
%TF.ProjectId,zvire-vetrnik-relays,7a766972-652d-4766-9574-726e696b2d72,rev?*%
%TF.SameCoordinates,PX48ab840PY791ddc0*%
%TF.FileFunction,Copper,L2,Bot*%
%TF.FilePolarity,Positive*%
%FSLAX46Y46*%
G04 Gerber Fmt 4.6, Leading zero omitted, Abs format (unit mm)*
G04 Created by KiCad (PCBNEW 5.1.10-88a1d61d58~90~ubuntu20.04.1) date 2023-02-04 19:41:20*
%MOMM*%
%LPD*%
G01*
G04 APERTURE LIST*
%TA.AperFunction,ComponentPad*%
%ADD10C,3.000000*%
%TD*%
%TA.AperFunction,ComponentPad*%
%ADD11C,2.600000*%
%TD*%
%TA.AperFunction,ComponentPad*%
%ADD12R,2.600000X2.600000*%
%TD*%
%TA.AperFunction,ComponentPad*%
%ADD13O,2.190000X1.740000*%
%TD*%
%TA.AperFunction,SMDPad,CuDef*%
%ADD14R,1.200000X0.900000*%
%TD*%
%TA.AperFunction,ViaPad*%
%ADD15C,1.800000*%
%TD*%
%TA.AperFunction,Conductor*%
%ADD16C,1.000000*%
%TD*%
%TA.AperFunction,Conductor*%
%ADD17C,3.000000*%
%TD*%
G04 APERTURE END LIST*
D10*
%TO.P,K3,11*%
%TO.N,Net-(J4-Pad2)*%
X17780000Y16510000D03*
%TO.P,K3,A2*%
%TO.N,Net-(D3-Pad2)*%
X19780000Y22510000D03*
%TO.P,K3,12*%
%TO.N,Net-(J4-Pad1)*%
X31980000Y22510000D03*
%TO.P,K3,14*%
%TO.N,Net-(J4-Pad3)*%
X31980000Y10510000D03*
%TO.P,K3,A1*%
%TO.N,VCC*%
X19780000Y10510000D03*
%TD*%
%TO.P,K2,11*%
%TO.N,Net-(J3-Pad2)*%
X17780000Y36830000D03*
%TO.P,K2,A2*%
%TO.N,Net-(D2-Pad2)*%
X19780000Y42830000D03*
%TO.P,K2,12*%
%TO.N,Net-(J3-Pad1)*%
X31980000Y42830000D03*
%TO.P,K2,14*%
%TO.N,Net-(J3-Pad3)*%
X31980000Y30830000D03*
%TO.P,K2,A1*%
%TO.N,VCC*%
X19780000Y30830000D03*
%TD*%
%TO.P,K1,11*%
%TO.N,Net-(J2-Pad2)*%
X17780000Y57150000D03*
%TO.P,K1,A2*%
%TO.N,Net-(D1-Pad2)*%
X19780000Y63150000D03*
%TO.P,K1,12*%
%TO.N,Net-(J2-Pad1)*%
X31980000Y63150000D03*
%TO.P,K1,14*%
%TO.N,Net-(J2-Pad3)*%
X31980000Y51150000D03*
%TO.P,K1,A1*%
%TO.N,VCC*%
X19780000Y51150000D03*
%TD*%
D11*
%TO.P,J4,3*%
%TO.N,Net-(J4-Pad3)*%
X41910000Y11510000D03*
%TO.P,J4,2*%
%TO.N,Net-(J4-Pad2)*%
X41910000Y16510000D03*
D12*
%TO.P,J4,1*%
%TO.N,Net-(J4-Pad1)*%
X41910000Y21510000D03*
%TD*%
D11*
%TO.P,J3,3*%
%TO.N,Net-(J3-Pad3)*%
X41910000Y31910000D03*
%TO.P,J3,2*%
%TO.N,Net-(J3-Pad2)*%
X41910000Y36910000D03*
D12*
%TO.P,J3,1*%
%TO.N,Net-(J3-Pad1)*%
X41910000Y41910000D03*
%TD*%
D11*
%TO.P,J2,3*%
%TO.N,Net-(J2-Pad3)*%
X41910000Y52230000D03*
%TO.P,J2,2*%
%TO.N,Net-(J2-Pad2)*%
X41910000Y57230000D03*
D12*
%TO.P,J2,1*%
%TO.N,Net-(J2-Pad1)*%
X41910000Y62230000D03*
%TD*%
D13*
%TO.P,J1,4*%
%TO.N,Net-(D3-Pad2)*%
X6350000Y33020000D03*
%TO.P,J1,3*%
%TO.N,Net-(D2-Pad2)*%
X6350000Y35560000D03*
%TO.P,J1,2*%
%TO.N,Net-(D1-Pad2)*%
X6350000Y38100000D03*
%TO.P,J1,1*%
%TO.N,VCC*%
%TA.AperFunction,ComponentPad*%
G36*
G01*
X5504999Y41510000D02*
X7195001Y41510000D01*
G75*
G02*
X7445000Y41260001I0J-249999D01*
G01*
X7445000Y40019999D01*
G75*
G02*
X7195001Y39770000I-249999J0D01*
G01*
X5504999Y39770000D01*
G75*
G02*
X5255000Y40019999I0J249999D01*
G01*
X5255000Y41260001D01*
G75*
G02*
X5504999Y41510000I249999J0D01*
G01*
G37*
%TD.AperFunction*%
%TD*%
D14*
%TO.P,D3,2*%
%TO.N,Net-(D3-Pad2)*%
X17780000Y25020000D03*
%TO.P,D3,1*%
%TO.N,VCC*%
X17780000Y28320000D03*
%TD*%
%TO.P,D2,2*%
%TO.N,Net-(D2-Pad2)*%
X17780000Y45340000D03*
%TO.P,D2,1*%
%TO.N,VCC*%
X17780000Y48640000D03*
%TD*%
%TO.P,D1,2*%
%TO.N,Net-(D1-Pad2)*%
X8890000Y58800000D03*
%TO.P,D1,1*%
%TO.N,VCC*%
X8890000Y55500000D03*
%TD*%
D15*
%TO.N,VCC*%
X10160000Y48260000D03*
X10160000Y30480000D03*
X10160000Y27940000D03*
X10160000Y10160000D03*
%TD*%
D16*
%TO.N,Net-(D1-Pad2)*%
X13240000Y63150000D02*
X8890000Y58800000D01*
X19780000Y63150000D02*
X13240000Y63150000D01*
X8890000Y58800000D02*
X2540000Y52450000D01*
X2540000Y52450000D02*
X2540000Y39370000D01*
X3810000Y38100000D02*
X6350000Y38100000D01*
X2540000Y39370000D02*
X3810000Y38100000D01*
%TO.N,VCC*%
X13240000Y51150000D02*
X8890000Y55500000D01*
X19780000Y51150000D02*
X13240000Y51150000D01*
X6350000Y43180000D02*
X6350000Y44260000D01*
X6350000Y40640000D02*
X6350000Y43180000D01*
X17780000Y48640000D02*
X18160000Y48640000D01*
X19780000Y50260000D02*
X19780000Y51150000D01*
X18160000Y48640000D02*
X19780000Y50260000D01*
X17780000Y28830000D02*
X19780000Y30830000D01*
X17780000Y28320000D02*
X17780000Y28830000D01*
X10255000Y48165000D02*
X10160000Y48260000D01*
X6350000Y44260000D02*
X10255000Y48165000D01*
X10255000Y48165000D02*
X13240000Y51150000D01*
X19430000Y30480000D02*
X19780000Y30830000D01*
X10160000Y30480000D02*
X19430000Y30480000D01*
X10160000Y30480000D02*
X10160000Y27940000D01*
X19430000Y10160000D02*
X19780000Y10510000D01*
X10160000Y10160000D02*
X19430000Y10160000D01*
%TO.N,Net-(D2-Pad2)*%
X6350000Y35560000D02*
X8890000Y35560000D01*
X8890000Y35560000D02*
X10160000Y36830000D01*
X10160000Y36830000D02*
X10160000Y41910000D01*
X11080000Y42830000D02*
X19780000Y42830000D01*
X10160000Y41910000D02*
X11080000Y42830000D01*
X17780000Y45340000D02*
X18160000Y45340000D01*
X19780000Y43720000D02*
X19780000Y42830000D01*
X18160000Y45340000D02*
X19780000Y43720000D01*
%TO.N,Net-(D3-Pad2)*%
X17780000Y25020000D02*
X18160000Y25020000D01*
X19780000Y23400000D02*
X19780000Y22510000D01*
X18160000Y25020000D02*
X19780000Y23400000D01*
X6350000Y30480000D02*
X6350000Y33020000D01*
X6350000Y24130000D02*
X6350000Y30480000D01*
X7970000Y22510000D02*
X6350000Y24130000D01*
X19780000Y22510000D02*
X7970000Y22510000D01*
D17*
%TO.N,Net-(J2-Pad3)*%
X40830000Y51150000D02*
X41910000Y52230000D01*
X31980000Y51150000D02*
X40830000Y51150000D01*
%TO.N,Net-(J2-Pad2)*%
X41830000Y57150000D02*
X41910000Y57230000D01*
X17780000Y57150000D02*
X41830000Y57150000D01*
%TO.N,Net-(J2-Pad1)*%
X40990000Y63150000D02*
X41910000Y62230000D01*
X31980000Y63150000D02*
X40990000Y63150000D01*
%TO.N,Net-(J3-Pad3)*%
X40830000Y30830000D02*
X41910000Y31910000D01*
X31980000Y30830000D02*
X40830000Y30830000D01*
%TO.N,Net-(J3-Pad2)*%
X41830000Y36830000D02*
X41910000Y36910000D01*
X17780000Y36830000D02*
X41830000Y36830000D01*
%TO.N,Net-(J3-Pad1)*%
X40990000Y42830000D02*
X41910000Y41910000D01*
X31980000Y42830000D02*
X40990000Y42830000D01*
%TO.N,Net-(J4-Pad3)*%
X40910000Y10510000D02*
X41910000Y11510000D01*
X31980000Y10510000D02*
X40910000Y10510000D01*
%TO.N,Net-(J4-Pad2)*%
X17780000Y16510000D02*
X41910000Y16510000D01*
%TO.N,Net-(J4-Pad1)*%
X40910000Y22510000D02*
X41910000Y21510000D01*
X31980000Y22510000D02*
X40910000Y22510000D01*
%TD*%
M02*
