%TF.GenerationSoftware,KiCad,Pcbnew,5.1.10-88a1d61d58~90~ubuntu20.04.1*%
%TF.CreationDate,2022-08-29T22:22:35+02:00*%
%TF.ProjectId,zvire-vetrnik-power,7a766972-652d-4766-9574-726e696b2d70,rev?*%
%TF.SameCoordinates,PX48ab840PY928d170*%
%TF.FileFunction,Copper,L2,Bot*%
%TF.FilePolarity,Positive*%
%FSLAX46Y46*%
G04 Gerber Fmt 4.6, Leading zero omitted, Abs format (unit mm)*
G04 Created by KiCad (PCBNEW 5.1.10-88a1d61d58~90~ubuntu20.04.1) date 2022-08-29 22:22:35*
%MOMM*%
%LPD*%
G01*
G04 APERTURE LIST*
%TA.AperFunction,EtchedComponent*%
%ADD10C,0.100000*%
%TD*%
%TA.AperFunction,ComponentPad*%
%ADD11O,1.600000X1.600000*%
%TD*%
%TA.AperFunction,ComponentPad*%
%ADD12R,1.600000X1.600000*%
%TD*%
%TA.AperFunction,ComponentPad*%
%ADD13O,2.190000X1.740000*%
%TD*%
%TA.AperFunction,ComponentPad*%
%ADD14R,1.100000X1.800000*%
%TD*%
%TA.AperFunction,ComponentPad*%
%ADD15C,1.500000*%
%TD*%
%TA.AperFunction,SMDPad,CuDef*%
%ADD16C,2.000000*%
%TD*%
%TA.AperFunction,ComponentPad*%
%ADD17O,1.740000X2.190000*%
%TD*%
%TA.AperFunction,ComponentPad*%
%ADD18C,2.500000*%
%TD*%
%TA.AperFunction,ComponentPad*%
%ADD19O,2.400000X1.600000*%
%TD*%
%TA.AperFunction,ComponentPad*%
%ADD20R,2.400000X1.600000*%
%TD*%
%TA.AperFunction,ComponentPad*%
%ADD21O,1.700000X1.700000*%
%TD*%
%TA.AperFunction,ComponentPad*%
%ADD22R,1.700000X1.700000*%
%TD*%
%TA.AperFunction,ComponentPad*%
%ADD23C,2.000000*%
%TD*%
%TA.AperFunction,ComponentPad*%
%ADD24O,2.400000X2.400000*%
%TD*%
%TA.AperFunction,ComponentPad*%
%ADD25C,2.400000*%
%TD*%
%TA.AperFunction,ComponentPad*%
%ADD26C,1.600000*%
%TD*%
%TA.AperFunction,SMDPad,CuDef*%
%ADD27R,0.800000X0.900000*%
%TD*%
%TA.AperFunction,SMDPad,CuDef*%
%ADD28R,0.900000X0.800000*%
%TD*%
%TA.AperFunction,SMDPad,CuDef*%
%ADD29R,2.000000X1.500000*%
%TD*%
%TA.AperFunction,SMDPad,CuDef*%
%ADD30R,2.000000X3.800000*%
%TD*%
%TA.AperFunction,ComponentPad*%
%ADD31R,2.250000X1.750000*%
%TD*%
%TA.AperFunction,ComponentPad*%
%ADD32O,2.250000X1.750000*%
%TD*%
%TA.AperFunction,ComponentPad*%
%ADD33C,1.700000*%
%TD*%
%TA.AperFunction,ComponentPad*%
%ADD34C,3.400000*%
%TD*%
%TA.AperFunction,SMDPad,CuDef*%
%ADD35R,1.200000X0.900000*%
%TD*%
%TA.AperFunction,ComponentPad*%
%ADD36O,2.200000X2.200000*%
%TD*%
%TA.AperFunction,ComponentPad*%
%ADD37R,2.200000X2.200000*%
%TD*%
%TA.AperFunction,ComponentPad*%
%ADD38O,2.600000X2.600000*%
%TD*%
%TA.AperFunction,ComponentPad*%
%ADD39R,2.600000X2.600000*%
%TD*%
%TA.AperFunction,ComponentPad*%
%ADD40C,4.000000*%
%TD*%
%TA.AperFunction,ComponentPad*%
%ADD41R,4.000000X4.000000*%
%TD*%
%TA.AperFunction,ComponentPad*%
%ADD42R,2.000000X2.000000*%
%TD*%
%TA.AperFunction,ViaPad*%
%ADD43C,1.500000*%
%TD*%
%TA.AperFunction,Conductor*%
%ADD44C,2.000000*%
%TD*%
%TA.AperFunction,Conductor*%
%ADD45C,1.000000*%
%TD*%
%TA.AperFunction,Conductor*%
%ADD46C,0.800000*%
%TD*%
%TA.AperFunction,Conductor*%
%ADD47C,4.500000*%
%TD*%
%TA.AperFunction,Conductor*%
%ADD48C,5.000000*%
%TD*%
%TA.AperFunction,Conductor*%
%ADD49C,6.000000*%
%TD*%
%TA.AperFunction,Conductor*%
%ADD50C,1.500000*%
%TD*%
%TA.AperFunction,Conductor*%
%ADD51C,0.254000*%
%TD*%
%TA.AperFunction,Conductor*%
%ADD52C,0.100000*%
%TD*%
G04 APERTURE END LIST*
D10*
%TO.C,NT1*%
G36*
X27750000Y32020000D02*
G01*
X31750000Y32020000D01*
X31750000Y34020000D01*
X27750000Y34020000D01*
X27750000Y32020000D01*
G37*
%TD*%
D11*
%TO.P,U12,28*%
%TO.N,/AVR MCU/REL2*%
X67310000Y40640000D03*
%TO.P,U12,14*%
%TO.N,/AVR MCU/REL1*%
X59690000Y7620000D03*
%TO.P,U12,27*%
%TO.N,/AVR MCU/REL3*%
X67310000Y38100000D03*
%TO.P,U12,13*%
%TO.N,/AVR MCU/~SD*%
X59690000Y10160000D03*
%TO.P,U12,26*%
%TO.N,/AVR MCU/ADC3_NTC1*%
X67310000Y35560000D03*
%TO.P,U12,12*%
%TO.N,/AVR MCU/~SHORT*%
X59690000Y12700000D03*
%TO.P,U12,25*%
%TO.N,/AVR MCU/ADC2_ACS712_2*%
X67310000Y33020000D03*
%TO.P,U12,11*%
%TO.N,/AVR MCU/FAN*%
X59690000Y15240000D03*
%TO.P,U12,24*%
%TO.N,/AVR MCU/ADC1_ACS712*%
X67310000Y30480000D03*
%TO.P,U12,10*%
%TO.N,Net-(C23-Pad1)*%
X59690000Y17780000D03*
%TO.P,U12,23*%
%TO.N,/AVR MCU/ADC0_VSENSE*%
X67310000Y27940000D03*
%TO.P,U12,9*%
%TO.N,Net-(C22-Pad1)*%
X59690000Y20320000D03*
%TO.P,U12,22*%
%TO.N,GNDPWR*%
X67310000Y25400000D03*
%TO.P,U12,8*%
X59690000Y22860000D03*
%TO.P,U12,21*%
%TO.N,Net-(C26-Pad1)*%
X67310000Y22860000D03*
%TO.P,U12,7*%
%TO.N,+5P*%
X59690000Y25400000D03*
%TO.P,U12,20*%
X67310000Y20320000D03*
%TO.P,U12,6*%
%TO.N,/AVR MCU/RPM*%
X59690000Y27940000D03*
%TO.P,U12,19*%
%TO.N,/AVR MCU/REL4*%
X67310000Y17780000D03*
%TO.P,U12,5*%
%TO.N,/AVR MCU/~ENABLE*%
X59690000Y30480000D03*
%TO.P,U12,18*%
%TO.N,/AVR MCU/MISO*%
X67310000Y15240000D03*
%TO.P,U12,4*%
%TO.N,/AVR MCU/RPM*%
X59690000Y33020000D03*
%TO.P,U12,17*%
%TO.N,/AVR MCU/MOSI*%
X67310000Y12700000D03*
%TO.P,U12,3*%
%TO.N,/AVR MCU/TX*%
X59690000Y35560000D03*
%TO.P,U12,16*%
%TO.N,/H-bridge/IN2*%
X67310000Y10160000D03*
%TO.P,U12,2*%
%TO.N,/AVR MCU/RX*%
X59690000Y38100000D03*
%TO.P,U12,15*%
%TO.N,/H-bridge/IN1*%
X67310000Y7620000D03*
D12*
%TO.P,U12,1*%
%TO.N,/AVR MCU/~RST*%
X59690000Y40640000D03*
%TD*%
%TO.P,JP2,2*%
%TO.N,Net-(J3-Pad4)*%
%TA.AperFunction,SMDPad,CuDef*%
G36*
G01*
X112405000Y71490000D02*
X113655000Y71490000D01*
G75*
G02*
X113905000Y71240000I0J-250000D01*
G01*
X113905000Y70440000D01*
G75*
G02*
X113655000Y70190000I-250000J0D01*
G01*
X112405000Y70190000D01*
G75*
G02*
X112155000Y70440000I0J250000D01*
G01*
X112155000Y71240000D01*
G75*
G02*
X112405000Y71490000I250000J0D01*
G01*
G37*
%TD.AperFunction*%
%TO.P,JP2,1*%
%TO.N,/GND_UART*%
%TA.AperFunction,SMDPad,CuDef*%
G36*
G01*
X112405000Y74590000D02*
X113655000Y74590000D01*
G75*
G02*
X113905000Y74340000I0J-250000D01*
G01*
X113905000Y73540000D01*
G75*
G02*
X113655000Y73290000I-250000J0D01*
G01*
X112405000Y73290000D01*
G75*
G02*
X112155000Y73540000I0J250000D01*
G01*
X112155000Y74340000D01*
G75*
G02*
X112405000Y74590000I250000J0D01*
G01*
G37*
%TD.AperFunction*%
%TD*%
D11*
%TO.P,U10,4*%
%TO.N,+5P*%
X107950000Y85090000D03*
%TO.P,U10,2*%
%TO.N,Net-(D5-Pad2)*%
X115570000Y87630000D03*
%TO.P,U10,3*%
%TO.N,Net-(R42-Pad2)*%
X107950000Y87630000D03*
D12*
%TO.P,U10,1*%
%TO.N,Net-(D5-Pad1)*%
X115570000Y85090000D03*
%TD*%
D11*
%TO.P,U5,4*%
%TO.N,/AVR MCU/~ENABLE*%
X100330000Y43180000D03*
%TO.P,U5,2*%
%TO.N,GND*%
X107950000Y45720000D03*
%TO.P,U5,3*%
%TO.N,GNDPWR*%
X100330000Y45720000D03*
D12*
%TO.P,U5,1*%
%TO.N,Net-(R5-Pad1)*%
X107950000Y43180000D03*
%TD*%
D11*
%TO.P,U2,4*%
%TO.N,+12V*%
X81280000Y67310000D03*
%TO.P,U2,2*%
%TO.N,GNDPWR*%
X73660000Y64770000D03*
%TO.P,U2,3*%
%TO.N,Net-(Q2-Pad1)*%
X81280000Y64770000D03*
D12*
%TO.P,U2,1*%
%TO.N,Net-(R8-Pad2)*%
X73660000Y67310000D03*
%TD*%
D11*
%TO.P,U1,4*%
%TO.N,+12V*%
X107950000Y58420000D03*
%TO.P,U1,2*%
%TO.N,/AVR MCU/SHORT*%
X100330000Y55880000D03*
%TO.P,U1,3*%
%TO.N,Net-(R4-Pad1)*%
X107950000Y55880000D03*
D12*
%TO.P,U1,1*%
%TO.N,Net-(R7-Pad2)*%
X100330000Y58420000D03*
%TD*%
D13*
%TO.P,J14,2*%
%TO.N,Net-(D5-Pad2)*%
X120650000Y48260000D03*
%TO.P,J14,1*%
%TO.N,Net-(J14-Pad1)*%
%TA.AperFunction,ComponentPad*%
G36*
G01*
X119804999Y51670000D02*
X121495001Y51670000D01*
G75*
G02*
X121745000Y51420001I0J-249999D01*
G01*
X121745000Y50179999D01*
G75*
G02*
X121495001Y49930000I-249999J0D01*
G01*
X119804999Y49930000D01*
G75*
G02*
X119555000Y50179999I0J249999D01*
G01*
X119555000Y51420001D01*
G75*
G02*
X119804999Y51670000I249999J0D01*
G01*
G37*
%TD.AperFunction*%
%TD*%
%TO.P,JP1,2*%
%TO.N,+5P*%
%TA.AperFunction,SMDPad,CuDef*%
G36*
G01*
X62600000Y24755000D02*
X62600000Y23505000D01*
G75*
G02*
X62350000Y23255000I-250000J0D01*
G01*
X61550000Y23255000D01*
G75*
G02*
X61300000Y23505000I0J250000D01*
G01*
X61300000Y24755000D01*
G75*
G02*
X61550000Y25005000I250000J0D01*
G01*
X62350000Y25005000D01*
G75*
G02*
X62600000Y24755000I0J-250000D01*
G01*
G37*
%TD.AperFunction*%
%TO.P,JP1,1*%
%TA.AperFunction,SMDPad,CuDef*%
G36*
G01*
X65700000Y24755000D02*
X65700000Y23505000D01*
G75*
G02*
X65450000Y23255000I-250000J0D01*
G01*
X64650000Y23255000D01*
G75*
G02*
X64400000Y23505000I0J250000D01*
G01*
X64400000Y24755000D01*
G75*
G02*
X64650000Y25005000I250000J0D01*
G01*
X65450000Y25005000D01*
G75*
G02*
X65700000Y24755000I0J-250000D01*
G01*
G37*
%TD.AperFunction*%
%TD*%
D14*
%TO.P,U11,1*%
%TO.N,Net-(C25-Pad1)*%
X45720000Y28975000D03*
%TO.P,U11,3*%
%TO.N,+12P*%
%TA.AperFunction,ComponentPad*%
G36*
G01*
X43730000Y29600000D02*
X43730000Y28350000D01*
G75*
G02*
X43455000Y28075000I-275000J0D01*
G01*
X42905000Y28075000D01*
G75*
G02*
X42630000Y28350000I0J275000D01*
G01*
X42630000Y29600000D01*
G75*
G02*
X42905000Y29875000I275000J0D01*
G01*
X43455000Y29875000D01*
G75*
G02*
X43730000Y29600000I0J-275000D01*
G01*
G37*
%TD.AperFunction*%
%TO.P,U11,2*%
%TO.N,GNDPWR*%
%TA.AperFunction,ComponentPad*%
G36*
G01*
X45000000Y27530000D02*
X45000000Y26280000D01*
G75*
G02*
X44725000Y26005000I-275000J0D01*
G01*
X44175000Y26005000D01*
G75*
G02*
X43900000Y26280000I0J275000D01*
G01*
X43900000Y27530000D01*
G75*
G02*
X44175000Y27805000I275000J0D01*
G01*
X44725000Y27805000D01*
G75*
G02*
X45000000Y27530000I0J-275000D01*
G01*
G37*
%TD.AperFunction*%
%TD*%
D15*
%TO.P,Y1,2*%
%TO.N,Net-(C23-Pad1)*%
X55245000Y16510000D03*
%TO.P,Y1,1*%
%TO.N,Net-(C22-Pad1)*%
X55245000Y21390000D03*
%TD*%
D13*
%TO.P,TH1,2*%
%TO.N,/AVR MCU/ADC3_NTC1*%
X74930000Y46990000D03*
%TO.P,TH1,1*%
%TO.N,+5P*%
%TA.AperFunction,ComponentPad*%
G36*
G01*
X74084999Y50400000D02*
X75775001Y50400000D01*
G75*
G02*
X76025000Y50150001I0J-249999D01*
G01*
X76025000Y48909999D01*
G75*
G02*
X75775001Y48660000I-249999J0D01*
G01*
X74084999Y48660000D01*
G75*
G02*
X73835000Y48909999I0J249999D01*
G01*
X73835000Y50150001D01*
G75*
G02*
X74084999Y50400000I249999J0D01*
G01*
G37*
%TD.AperFunction*%
%TD*%
D16*
%TO.P,NT1,2*%
%TO.N,GNDPWR*%
X31750000Y33020000D03*
%TO.P,NT1,1*%
%TO.N,/H-bridge/DC-*%
X27750000Y33020000D03*
%TD*%
D17*
%TO.P,J13,2*%
%TO.N,Net-(J13-Pad2)*%
X88900000Y95250000D03*
%TO.P,J13,1*%
%TO.N,GNDPWR*%
%TA.AperFunction,ComponentPad*%
G36*
G01*
X85490000Y94404999D02*
X85490000Y96095001D01*
G75*
G02*
X85739999Y96345000I249999J0D01*
G01*
X86980001Y96345000D01*
G75*
G02*
X87230000Y96095001I0J-249999D01*
G01*
X87230000Y94404999D01*
G75*
G02*
X86980001Y94155000I-249999J0D01*
G01*
X85739999Y94155000D01*
G75*
G02*
X85490000Y94404999I0J249999D01*
G01*
G37*
%TD.AperFunction*%
%TD*%
%TO.P,J12,2*%
%TO.N,Net-(J12-Pad2)*%
X95250000Y95250000D03*
%TO.P,J12,1*%
%TO.N,Net-(C15-Pad2)*%
%TA.AperFunction,ComponentPad*%
G36*
G01*
X91840000Y94404999D02*
X91840000Y96095001D01*
G75*
G02*
X92089999Y96345000I249999J0D01*
G01*
X93330001Y96345000D01*
G75*
G02*
X93580000Y96095001I0J-249999D01*
G01*
X93580000Y94404999D01*
G75*
G02*
X93330001Y94155000I-249999J0D01*
G01*
X92089999Y94155000D01*
G75*
G02*
X91840000Y94404999I0J249999D01*
G01*
G37*
%TD.AperFunction*%
%TD*%
D18*
%TO.P,J11,1*%
%TO.N,Net-(D3-Pad1)*%
X54415000Y95250000D03*
X49415000Y95250000D03*
%TD*%
%TO.P,J10,1*%
%TO.N,Net-(C14-Pad2)*%
X41715000Y95435000D03*
X36715000Y95435000D03*
%TD*%
D17*
%TO.P,J9,2*%
%TO.N,Net-(J9-Pad2)*%
X69850000Y95250000D03*
%TO.P,J9,1*%
%TO.N,GNDPWR*%
%TA.AperFunction,ComponentPad*%
G36*
G01*
X66440000Y94404999D02*
X66440000Y96095001D01*
G75*
G02*
X66689999Y96345000I249999J0D01*
G01*
X67930001Y96345000D01*
G75*
G02*
X68180000Y96095001I0J-249999D01*
G01*
X68180000Y94404999D01*
G75*
G02*
X67930001Y94155000I-249999J0D01*
G01*
X66689999Y94155000D01*
G75*
G02*
X66440000Y94404999I0J249999D01*
G01*
G37*
%TD.AperFunction*%
%TD*%
%TO.P,J8,2*%
%TO.N,Net-(J8-Pad2)*%
X76200000Y95250000D03*
%TO.P,J8,1*%
%TO.N,Net-(C12-Pad2)*%
%TA.AperFunction,ComponentPad*%
G36*
G01*
X72790000Y94404999D02*
X72790000Y96095001D01*
G75*
G02*
X73039999Y96345000I249999J0D01*
G01*
X74280001Y96345000D01*
G75*
G02*
X74530000Y96095001I0J-249999D01*
G01*
X74530000Y94404999D01*
G75*
G02*
X74280001Y94155000I-249999J0D01*
G01*
X73039999Y94155000D01*
G75*
G02*
X72790000Y94404999I0J249999D01*
G01*
G37*
%TD.AperFunction*%
%TD*%
%TO.P,U9,8*%
%TO.N,Net-(C15-Pad1)*%
%TA.AperFunction,SMDPad,CuDef*%
G36*
G01*
X93495000Y84050000D02*
X93195000Y84050000D01*
G75*
G02*
X93045000Y84200000I0J150000D01*
G01*
X93045000Y85850000D01*
G75*
G02*
X93195000Y86000000I150000J0D01*
G01*
X93495000Y86000000D01*
G75*
G02*
X93645000Y85850000I0J-150000D01*
G01*
X93645000Y84200000D01*
G75*
G02*
X93495000Y84050000I-150000J0D01*
G01*
G37*
%TD.AperFunction*%
%TO.P,U9,7*%
%TO.N,Net-(R36-Pad1)*%
%TA.AperFunction,SMDPad,CuDef*%
G36*
G01*
X92225000Y84050000D02*
X91925000Y84050000D01*
G75*
G02*
X91775000Y84200000I0J150000D01*
G01*
X91775000Y85850000D01*
G75*
G02*
X91925000Y86000000I150000J0D01*
G01*
X92225000Y86000000D01*
G75*
G02*
X92375000Y85850000I0J-150000D01*
G01*
X92375000Y84200000D01*
G75*
G02*
X92225000Y84050000I-150000J0D01*
G01*
G37*
%TD.AperFunction*%
%TO.P,U9,6*%
%TO.N,Net-(C15-Pad2)*%
%TA.AperFunction,SMDPad,CuDef*%
G36*
G01*
X90955000Y84050000D02*
X90655000Y84050000D01*
G75*
G02*
X90505000Y84200000I0J150000D01*
G01*
X90505000Y85850000D01*
G75*
G02*
X90655000Y86000000I150000J0D01*
G01*
X90955000Y86000000D01*
G75*
G02*
X91105000Y85850000I0J-150000D01*
G01*
X91105000Y84200000D01*
G75*
G02*
X90955000Y84050000I-150000J0D01*
G01*
G37*
%TD.AperFunction*%
%TO.P,U9,5*%
%TO.N,Net-(R37-Pad1)*%
%TA.AperFunction,SMDPad,CuDef*%
G36*
G01*
X89685000Y84050000D02*
X89385000Y84050000D01*
G75*
G02*
X89235000Y84200000I0J150000D01*
G01*
X89235000Y85850000D01*
G75*
G02*
X89385000Y86000000I150000J0D01*
G01*
X89685000Y86000000D01*
G75*
G02*
X89835000Y85850000I0J-150000D01*
G01*
X89835000Y84200000D01*
G75*
G02*
X89685000Y84050000I-150000J0D01*
G01*
G37*
%TD.AperFunction*%
%TO.P,U9,4*%
%TO.N,GNDPWR*%
%TA.AperFunction,SMDPad,CuDef*%
G36*
G01*
X89685000Y79100000D02*
X89385000Y79100000D01*
G75*
G02*
X89235000Y79250000I0J150000D01*
G01*
X89235000Y80900000D01*
G75*
G02*
X89385000Y81050000I150000J0D01*
G01*
X89685000Y81050000D01*
G75*
G02*
X89835000Y80900000I0J-150000D01*
G01*
X89835000Y79250000D01*
G75*
G02*
X89685000Y79100000I-150000J0D01*
G01*
G37*
%TD.AperFunction*%
%TO.P,U9,3*%
%TO.N,/AVR MCU/~SD*%
%TA.AperFunction,SMDPad,CuDef*%
G36*
G01*
X90955000Y79100000D02*
X90655000Y79100000D01*
G75*
G02*
X90505000Y79250000I0J150000D01*
G01*
X90505000Y80900000D01*
G75*
G02*
X90655000Y81050000I150000J0D01*
G01*
X90955000Y81050000D01*
G75*
G02*
X91105000Y80900000I0J-150000D01*
G01*
X91105000Y79250000D01*
G75*
G02*
X90955000Y79100000I-150000J0D01*
G01*
G37*
%TD.AperFunction*%
%TO.P,U9,2*%
%TO.N,/H-bridge/IN2*%
%TA.AperFunction,SMDPad,CuDef*%
G36*
G01*
X92225000Y79100000D02*
X91925000Y79100000D01*
G75*
G02*
X91775000Y79250000I0J150000D01*
G01*
X91775000Y80900000D01*
G75*
G02*
X91925000Y81050000I150000J0D01*
G01*
X92225000Y81050000D01*
G75*
G02*
X92375000Y80900000I0J-150000D01*
G01*
X92375000Y79250000D01*
G75*
G02*
X92225000Y79100000I-150000J0D01*
G01*
G37*
%TD.AperFunction*%
%TO.P,U9,1*%
%TO.N,+12P*%
%TA.AperFunction,SMDPad,CuDef*%
G36*
G01*
X93495000Y79100000D02*
X93195000Y79100000D01*
G75*
G02*
X93045000Y79250000I0J150000D01*
G01*
X93045000Y80900000D01*
G75*
G02*
X93195000Y81050000I150000J0D01*
G01*
X93495000Y81050000D01*
G75*
G02*
X93645000Y80900000I0J-150000D01*
G01*
X93645000Y79250000D01*
G75*
G02*
X93495000Y79100000I-150000J0D01*
G01*
G37*
%TD.AperFunction*%
%TD*%
%TO.P,U8,8*%
%TO.N,Net-(C12-Pad1)*%
%TA.AperFunction,SMDPad,CuDef*%
G36*
G01*
X73810000Y84115000D02*
X73510000Y84115000D01*
G75*
G02*
X73360000Y84265000I0J150000D01*
G01*
X73360000Y85915000D01*
G75*
G02*
X73510000Y86065000I150000J0D01*
G01*
X73810000Y86065000D01*
G75*
G02*
X73960000Y85915000I0J-150000D01*
G01*
X73960000Y84265000D01*
G75*
G02*
X73810000Y84115000I-150000J0D01*
G01*
G37*
%TD.AperFunction*%
%TO.P,U8,7*%
%TO.N,Net-(R33-Pad2)*%
%TA.AperFunction,SMDPad,CuDef*%
G36*
G01*
X72540000Y84115000D02*
X72240000Y84115000D01*
G75*
G02*
X72090000Y84265000I0J150000D01*
G01*
X72090000Y85915000D01*
G75*
G02*
X72240000Y86065000I150000J0D01*
G01*
X72540000Y86065000D01*
G75*
G02*
X72690000Y85915000I0J-150000D01*
G01*
X72690000Y84265000D01*
G75*
G02*
X72540000Y84115000I-150000J0D01*
G01*
G37*
%TD.AperFunction*%
%TO.P,U8,6*%
%TO.N,Net-(C12-Pad2)*%
%TA.AperFunction,SMDPad,CuDef*%
G36*
G01*
X71270000Y84115000D02*
X70970000Y84115000D01*
G75*
G02*
X70820000Y84265000I0J150000D01*
G01*
X70820000Y85915000D01*
G75*
G02*
X70970000Y86065000I150000J0D01*
G01*
X71270000Y86065000D01*
G75*
G02*
X71420000Y85915000I0J-150000D01*
G01*
X71420000Y84265000D01*
G75*
G02*
X71270000Y84115000I-150000J0D01*
G01*
G37*
%TD.AperFunction*%
%TO.P,U8,5*%
%TO.N,Net-(R34-Pad2)*%
%TA.AperFunction,SMDPad,CuDef*%
G36*
G01*
X70000000Y84115000D02*
X69700000Y84115000D01*
G75*
G02*
X69550000Y84265000I0J150000D01*
G01*
X69550000Y85915000D01*
G75*
G02*
X69700000Y86065000I150000J0D01*
G01*
X70000000Y86065000D01*
G75*
G02*
X70150000Y85915000I0J-150000D01*
G01*
X70150000Y84265000D01*
G75*
G02*
X70000000Y84115000I-150000J0D01*
G01*
G37*
%TD.AperFunction*%
%TO.P,U8,4*%
%TO.N,GNDPWR*%
%TA.AperFunction,SMDPad,CuDef*%
G36*
G01*
X70000000Y79165000D02*
X69700000Y79165000D01*
G75*
G02*
X69550000Y79315000I0J150000D01*
G01*
X69550000Y80965000D01*
G75*
G02*
X69700000Y81115000I150000J0D01*
G01*
X70000000Y81115000D01*
G75*
G02*
X70150000Y80965000I0J-150000D01*
G01*
X70150000Y79315000D01*
G75*
G02*
X70000000Y79165000I-150000J0D01*
G01*
G37*
%TD.AperFunction*%
%TO.P,U8,3*%
%TO.N,/AVR MCU/~SD*%
%TA.AperFunction,SMDPad,CuDef*%
G36*
G01*
X71270000Y79165000D02*
X70970000Y79165000D01*
G75*
G02*
X70820000Y79315000I0J150000D01*
G01*
X70820000Y80965000D01*
G75*
G02*
X70970000Y81115000I150000J0D01*
G01*
X71270000Y81115000D01*
G75*
G02*
X71420000Y80965000I0J-150000D01*
G01*
X71420000Y79315000D01*
G75*
G02*
X71270000Y79165000I-150000J0D01*
G01*
G37*
%TD.AperFunction*%
%TO.P,U8,2*%
%TO.N,/H-bridge/IN1*%
%TA.AperFunction,SMDPad,CuDef*%
G36*
G01*
X72540000Y79165000D02*
X72240000Y79165000D01*
G75*
G02*
X72090000Y79315000I0J150000D01*
G01*
X72090000Y80965000D01*
G75*
G02*
X72240000Y81115000I150000J0D01*
G01*
X72540000Y81115000D01*
G75*
G02*
X72690000Y80965000I0J-150000D01*
G01*
X72690000Y79315000D01*
G75*
G02*
X72540000Y79165000I-150000J0D01*
G01*
G37*
%TD.AperFunction*%
%TO.P,U8,1*%
%TO.N,+12P*%
%TA.AperFunction,SMDPad,CuDef*%
G36*
G01*
X73810000Y79165000D02*
X73510000Y79165000D01*
G75*
G02*
X73360000Y79315000I0J150000D01*
G01*
X73360000Y80965000D01*
G75*
G02*
X73510000Y81115000I150000J0D01*
G01*
X73810000Y81115000D01*
G75*
G02*
X73960000Y80965000I0J-150000D01*
G01*
X73960000Y79315000D01*
G75*
G02*
X73810000Y79165000I-150000J0D01*
G01*
G37*
%TD.AperFunction*%
%TD*%
%TO.P,U7,8*%
%TO.N,+12P*%
%TA.AperFunction,SMDPad,CuDef*%
G36*
G01*
X48410000Y65000000D02*
X48110000Y65000000D01*
G75*
G02*
X47960000Y65150000I0J150000D01*
G01*
X47960000Y66800000D01*
G75*
G02*
X48110000Y66950000I150000J0D01*
G01*
X48410000Y66950000D01*
G75*
G02*
X48560000Y66800000I0J-150000D01*
G01*
X48560000Y65150000D01*
G75*
G02*
X48410000Y65000000I-150000J0D01*
G01*
G37*
%TD.AperFunction*%
%TO.P,U7,7*%
%TO.N,GNDPWR*%
%TA.AperFunction,SMDPad,CuDef*%
G36*
G01*
X47140000Y65000000D02*
X46840000Y65000000D01*
G75*
G02*
X46690000Y65150000I0J150000D01*
G01*
X46690000Y66800000D01*
G75*
G02*
X46840000Y66950000I150000J0D01*
G01*
X47140000Y66950000D01*
G75*
G02*
X47290000Y66800000I0J-150000D01*
G01*
X47290000Y65150000D01*
G75*
G02*
X47140000Y65000000I-150000J0D01*
G01*
G37*
%TD.AperFunction*%
%TO.P,U7,6*%
%TA.AperFunction,SMDPad,CuDef*%
G36*
G01*
X45870000Y65000000D02*
X45570000Y65000000D01*
G75*
G02*
X45420000Y65150000I0J150000D01*
G01*
X45420000Y66800000D01*
G75*
G02*
X45570000Y66950000I150000J0D01*
G01*
X45870000Y66950000D01*
G75*
G02*
X46020000Y66800000I0J-150000D01*
G01*
X46020000Y65150000D01*
G75*
G02*
X45870000Y65000000I-150000J0D01*
G01*
G37*
%TD.AperFunction*%
%TO.P,U7,5*%
%TA.AperFunction,SMDPad,CuDef*%
G36*
G01*
X44600000Y65000000D02*
X44300000Y65000000D01*
G75*
G02*
X44150000Y65150000I0J150000D01*
G01*
X44150000Y66800000D01*
G75*
G02*
X44300000Y66950000I150000J0D01*
G01*
X44600000Y66950000D01*
G75*
G02*
X44750000Y66800000I0J-150000D01*
G01*
X44750000Y65150000D01*
G75*
G02*
X44600000Y65000000I-150000J0D01*
G01*
G37*
%TD.AperFunction*%
%TO.P,U7,4*%
%TA.AperFunction,SMDPad,CuDef*%
G36*
G01*
X44600000Y60050000D02*
X44300000Y60050000D01*
G75*
G02*
X44150000Y60200000I0J150000D01*
G01*
X44150000Y61850000D01*
G75*
G02*
X44300000Y62000000I150000J0D01*
G01*
X44600000Y62000000D01*
G75*
G02*
X44750000Y61850000I0J-150000D01*
G01*
X44750000Y60200000D01*
G75*
G02*
X44600000Y60050000I-150000J0D01*
G01*
G37*
%TD.AperFunction*%
%TO.P,U7,3*%
%TO.N,Net-(R25-Pad2)*%
%TA.AperFunction,SMDPad,CuDef*%
G36*
G01*
X45870000Y60050000D02*
X45570000Y60050000D01*
G75*
G02*
X45420000Y60200000I0J150000D01*
G01*
X45420000Y61850000D01*
G75*
G02*
X45570000Y62000000I150000J0D01*
G01*
X45870000Y62000000D01*
G75*
G02*
X46020000Y61850000I0J-150000D01*
G01*
X46020000Y60200000D01*
G75*
G02*
X45870000Y60050000I-150000J0D01*
G01*
G37*
%TD.AperFunction*%
%TO.P,U7,2*%
%TO.N,Net-(R27-Pad2)*%
%TA.AperFunction,SMDPad,CuDef*%
G36*
G01*
X47140000Y60050000D02*
X46840000Y60050000D01*
G75*
G02*
X46690000Y60200000I0J150000D01*
G01*
X46690000Y61850000D01*
G75*
G02*
X46840000Y62000000I150000J0D01*
G01*
X47140000Y62000000D01*
G75*
G02*
X47290000Y61850000I0J-150000D01*
G01*
X47290000Y60200000D01*
G75*
G02*
X47140000Y60050000I-150000J0D01*
G01*
G37*
%TD.AperFunction*%
%TO.P,U7,1*%
%TO.N,Net-(Q8-Pad1)*%
%TA.AperFunction,SMDPad,CuDef*%
G36*
G01*
X48410000Y60050000D02*
X48110000Y60050000D01*
G75*
G02*
X47960000Y60200000I0J150000D01*
G01*
X47960000Y61850000D01*
G75*
G02*
X48110000Y62000000I150000J0D01*
G01*
X48410000Y62000000D01*
G75*
G02*
X48560000Y61850000I0J-150000D01*
G01*
X48560000Y60200000D01*
G75*
G02*
X48410000Y60050000I-150000J0D01*
G01*
G37*
%TD.AperFunction*%
%TD*%
D11*
%TO.P,U6,16*%
%TO.N,Net-(R19-Pad2)*%
X107950000Y38100000D03*
%TO.P,U6,8*%
%TO.N,GNDPWR*%
X100330000Y20320000D03*
%TO.P,U6,15*%
%TO.N,Net-(Q4-Pad1)*%
X107950000Y35560000D03*
%TO.P,U6,7*%
%TO.N,Net-(R14-Pad1)*%
X100330000Y22860000D03*
%TO.P,U6,14*%
%TO.N,Net-(R20-Pad2)*%
X107950000Y33020000D03*
%TO.P,U6,6*%
%TO.N,GNDPWR*%
X100330000Y25400000D03*
%TO.P,U6,13*%
%TO.N,Net-(Q5-Pad1)*%
X107950000Y30480000D03*
%TO.P,U6,5*%
%TO.N,Net-(R13-Pad1)*%
X100330000Y27940000D03*
%TO.P,U6,12*%
%TO.N,Net-(R21-Pad2)*%
X107950000Y27940000D03*
%TO.P,U6,4*%
%TO.N,GNDPWR*%
X100330000Y30480000D03*
%TO.P,U6,11*%
%TO.N,Net-(Q6-Pad1)*%
X107950000Y25400000D03*
%TO.P,U6,3*%
%TO.N,Net-(R12-Pad1)*%
X100330000Y33020000D03*
%TO.P,U6,10*%
%TO.N,Net-(R22-Pad2)*%
X107950000Y22860000D03*
%TO.P,U6,2*%
%TO.N,GNDPWR*%
X100330000Y35560000D03*
%TO.P,U6,9*%
%TO.N,Net-(Q7-Pad1)*%
X107950000Y20320000D03*
D12*
%TO.P,U6,1*%
%TO.N,Net-(R11-Pad1)*%
X100330000Y38100000D03*
%TD*%
D19*
%TO.P,U4,6*%
%TO.N,+5P*%
X100330000Y63500000D03*
%TO.P,U4,3*%
%TO.N,Net-(U4-Pad3)*%
X107950000Y68580000D03*
%TO.P,U4,5*%
%TO.N,GNDPWR*%
X100330000Y66040000D03*
%TO.P,U4,2*%
%TO.N,/RX*%
X107950000Y66040000D03*
%TO.P,U4,4*%
%TO.N,/AVR MCU/RX*%
X100330000Y68580000D03*
D20*
%TO.P,U4,1*%
%TO.N,Net-(R6-Pad2)*%
X107950000Y63500000D03*
%TD*%
D19*
%TO.P,U3,6*%
%TO.N,/3V3_UART*%
X107950000Y77470000D03*
%TO.P,U3,3*%
%TO.N,Net-(U3-Pad3)*%
X100330000Y72390000D03*
%TO.P,U3,5*%
%TO.N,/GND_UART*%
X107950000Y74930000D03*
%TO.P,U3,2*%
%TO.N,Net-(R9-Pad2)*%
X100330000Y74930000D03*
%TO.P,U3,4*%
%TO.N,/TX*%
X107950000Y72390000D03*
D20*
%TO.P,U3,1*%
%TO.N,+5P*%
X100330000Y77470000D03*
%TD*%
D21*
%TO.P,TP2,2*%
%TO.N,+5P*%
X43180000Y33020000D03*
D22*
%TO.P,TP2,1*%
%TO.N,Net-(C25-Pad1)*%
X45720000Y33020000D03*
%TD*%
D21*
%TO.P,TP1,2*%
%TO.N,+12P*%
X45720000Y20320000D03*
D22*
%TO.P,TP1,1*%
%TO.N,Net-(PS1-Pad4)*%
X48260000Y20320000D03*
%TD*%
D23*
%TO.P,SW1,1*%
%TO.N,GNDPWR*%
X49680000Y49530000D03*
%TO.P,SW1,2*%
%TO.N,Net-(R39-Pad2)*%
X49680000Y45030000D03*
%TO.P,SW1,1*%
%TO.N,GNDPWR*%
X43180000Y49530000D03*
%TO.P,SW1,2*%
%TO.N,Net-(R39-Pad2)*%
X43180000Y45030000D03*
%TD*%
%TO.P,R47,2*%
%TO.N,/AVR MCU/VSENSE*%
%TA.AperFunction,SMDPad,CuDef*%
G36*
G01*
X50155000Y28840000D02*
X48905000Y28840000D01*
G75*
G02*
X48655000Y29090000I0J250000D01*
G01*
X48655000Y29890000D01*
G75*
G02*
X48905000Y30140000I250000J0D01*
G01*
X50155000Y30140000D01*
G75*
G02*
X50405000Y29890000I0J-250000D01*
G01*
X50405000Y29090000D01*
G75*
G02*
X50155000Y28840000I-250000J0D01*
G01*
G37*
%TD.AperFunction*%
%TO.P,R47,1*%
%TO.N,/AVR MCU/ADC0_VSENSE*%
%TA.AperFunction,SMDPad,CuDef*%
G36*
G01*
X50155000Y25740000D02*
X48905000Y25740000D01*
G75*
G02*
X48655000Y25990000I0J250000D01*
G01*
X48655000Y26790000D01*
G75*
G02*
X48905000Y27040000I250000J0D01*
G01*
X50155000Y27040000D01*
G75*
G02*
X50405000Y26790000I0J-250000D01*
G01*
X50405000Y25990000D01*
G75*
G02*
X50155000Y25740000I-250000J0D01*
G01*
G37*
%TD.AperFunction*%
%TD*%
%TO.P,R46,2*%
%TO.N,/AVR MCU/~SHORT*%
%TA.AperFunction,SMDPad,CuDef*%
G36*
G01*
X99430000Y48885000D02*
X99430000Y47635000D01*
G75*
G02*
X99180000Y47385000I-250000J0D01*
G01*
X98380000Y47385000D01*
G75*
G02*
X98130000Y47635000I0J250000D01*
G01*
X98130000Y48885000D01*
G75*
G02*
X98380000Y49135000I250000J0D01*
G01*
X99180000Y49135000D01*
G75*
G02*
X99430000Y48885000I0J-250000D01*
G01*
G37*
%TD.AperFunction*%
%TO.P,R46,1*%
%TO.N,Net-(Q10-Pad1)*%
%TA.AperFunction,SMDPad,CuDef*%
G36*
G01*
X102530000Y48885000D02*
X102530000Y47635000D01*
G75*
G02*
X102280000Y47385000I-250000J0D01*
G01*
X101480000Y47385000D01*
G75*
G02*
X101230000Y47635000I0J250000D01*
G01*
X101230000Y48885000D01*
G75*
G02*
X101480000Y49135000I250000J0D01*
G01*
X102280000Y49135000D01*
G75*
G02*
X102530000Y48885000I0J-250000D01*
G01*
G37*
%TD.AperFunction*%
%TD*%
%TO.P,R45,2*%
%TO.N,GNDPWR*%
%TA.AperFunction,SMDPad,CuDef*%
G36*
G01*
X62600000Y36185000D02*
X62600000Y34935000D01*
G75*
G02*
X62350000Y34685000I-250000J0D01*
G01*
X61550000Y34685000D01*
G75*
G02*
X61300000Y34935000I0J250000D01*
G01*
X61300000Y36185000D01*
G75*
G02*
X61550000Y36435000I250000J0D01*
G01*
X62350000Y36435000D01*
G75*
G02*
X62600000Y36185000I0J-250000D01*
G01*
G37*
%TD.AperFunction*%
%TO.P,R45,1*%
%TO.N,/AVR MCU/ADC3_NTC1*%
%TA.AperFunction,SMDPad,CuDef*%
G36*
G01*
X65700000Y36185000D02*
X65700000Y34935000D01*
G75*
G02*
X65450000Y34685000I-250000J0D01*
G01*
X64650000Y34685000D01*
G75*
G02*
X64400000Y34935000I0J250000D01*
G01*
X64400000Y36185000D01*
G75*
G02*
X64650000Y36435000I250000J0D01*
G01*
X65450000Y36435000D01*
G75*
G02*
X65700000Y36185000I0J-250000D01*
G01*
G37*
%TD.AperFunction*%
%TD*%
%TO.P,R44,1*%
%TO.N,+5P*%
%TA.AperFunction,SMDPad,CuDef*%
G36*
G01*
X57775000Y24470000D02*
X56525000Y24470000D01*
G75*
G02*
X56275000Y24720000I0J250000D01*
G01*
X56275000Y25520000D01*
G75*
G02*
X56525000Y25770000I250000J0D01*
G01*
X57775000Y25770000D01*
G75*
G02*
X58025000Y25520000I0J-250000D01*
G01*
X58025000Y24720000D01*
G75*
G02*
X57775000Y24470000I-250000J0D01*
G01*
G37*
%TD.AperFunction*%
%TO.P,R44,2*%
%TO.N,/AVR MCU/RPM*%
%TA.AperFunction,SMDPad,CuDef*%
G36*
G01*
X57775000Y27570000D02*
X56525000Y27570000D01*
G75*
G02*
X56275000Y27820000I0J250000D01*
G01*
X56275000Y28620000D01*
G75*
G02*
X56525000Y28870000I250000J0D01*
G01*
X57775000Y28870000D01*
G75*
G02*
X58025000Y28620000I0J-250000D01*
G01*
X58025000Y27820000D01*
G75*
G02*
X57775000Y27570000I-250000J0D01*
G01*
G37*
%TD.AperFunction*%
%TD*%
%TO.P,R43,2*%
%TO.N,GNDPWR*%
%TA.AperFunction,SMDPad,CuDef*%
G36*
G01*
X62875000Y48630000D02*
X64125000Y48630000D01*
G75*
G02*
X64375000Y48380000I0J-250000D01*
G01*
X64375000Y47580000D01*
G75*
G02*
X64125000Y47330000I-250000J0D01*
G01*
X62875000Y47330000D01*
G75*
G02*
X62625000Y47580000I0J250000D01*
G01*
X62625000Y48380000D01*
G75*
G02*
X62875000Y48630000I250000J0D01*
G01*
G37*
%TD.AperFunction*%
%TO.P,R43,1*%
%TO.N,Net-(Q9-Pad1)*%
%TA.AperFunction,SMDPad,CuDef*%
G36*
G01*
X62875000Y51730000D02*
X64125000Y51730000D01*
G75*
G02*
X64375000Y51480000I0J-250000D01*
G01*
X64375000Y50680000D01*
G75*
G02*
X64125000Y50430000I-250000J0D01*
G01*
X62875000Y50430000D01*
G75*
G02*
X62625000Y50680000I0J250000D01*
G01*
X62625000Y51480000D01*
G75*
G02*
X62875000Y51730000I250000J0D01*
G01*
G37*
%TD.AperFunction*%
%TD*%
%TO.P,R42,2*%
%TO.N,Net-(R42-Pad2)*%
%TA.AperFunction,SMDPad,CuDef*%
G36*
G01*
X65670000Y71765000D02*
X65670000Y73015000D01*
G75*
G02*
X65920000Y73265000I250000J0D01*
G01*
X66720000Y73265000D01*
G75*
G02*
X66970000Y73015000I0J-250000D01*
G01*
X66970000Y71765000D01*
G75*
G02*
X66720000Y71515000I-250000J0D01*
G01*
X65920000Y71515000D01*
G75*
G02*
X65670000Y71765000I0J250000D01*
G01*
G37*
%TD.AperFunction*%
%TO.P,R42,1*%
%TO.N,Net-(Q9-Pad1)*%
%TA.AperFunction,SMDPad,CuDef*%
G36*
G01*
X62570000Y71765000D02*
X62570000Y73015000D01*
G75*
G02*
X62820000Y73265000I250000J0D01*
G01*
X63620000Y73265000D01*
G75*
G02*
X63870000Y73015000I0J-250000D01*
G01*
X63870000Y71765000D01*
G75*
G02*
X63620000Y71515000I-250000J0D01*
G01*
X62820000Y71515000D01*
G75*
G02*
X62570000Y71765000I0J250000D01*
G01*
G37*
%TD.AperFunction*%
%TD*%
%TO.P,R41,2*%
%TO.N,/AVR MCU/~RST*%
%TA.AperFunction,SMDPad,CuDef*%
G36*
G01*
X78370000Y22870000D02*
X78370000Y24120000D01*
G75*
G02*
X78620000Y24370000I250000J0D01*
G01*
X79420000Y24370000D01*
G75*
G02*
X79670000Y24120000I0J-250000D01*
G01*
X79670000Y22870000D01*
G75*
G02*
X79420000Y22620000I-250000J0D01*
G01*
X78620000Y22620000D01*
G75*
G02*
X78370000Y22870000I0J250000D01*
G01*
G37*
%TD.AperFunction*%
%TO.P,R41,1*%
%TO.N,+5P*%
%TA.AperFunction,SMDPad,CuDef*%
G36*
G01*
X75270000Y22870000D02*
X75270000Y24120000D01*
G75*
G02*
X75520000Y24370000I250000J0D01*
G01*
X76320000Y24370000D01*
G75*
G02*
X76570000Y24120000I0J-250000D01*
G01*
X76570000Y22870000D01*
G75*
G02*
X76320000Y22620000I-250000J0D01*
G01*
X75520000Y22620000D01*
G75*
G02*
X75270000Y22870000I0J250000D01*
G01*
G37*
%TD.AperFunction*%
%TD*%
D24*
%TO.P,R40,2*%
%TO.N,Net-(J14-Pad1)*%
X113030000Y50800000D03*
D25*
%TO.P,R40,1*%
%TO.N,Net-(D5-Pad1)*%
X113030000Y81280000D03*
%TD*%
%TO.P,R39,2*%
%TO.N,Net-(R39-Pad2)*%
%TA.AperFunction,SMDPad,CuDef*%
G36*
G01*
X59045000Y45350000D02*
X57795000Y45350000D01*
G75*
G02*
X57545000Y45600000I0J250000D01*
G01*
X57545000Y46400000D01*
G75*
G02*
X57795000Y46650000I250000J0D01*
G01*
X59045000Y46650000D01*
G75*
G02*
X59295000Y46400000I0J-250000D01*
G01*
X59295000Y45600000D01*
G75*
G02*
X59045000Y45350000I-250000J0D01*
G01*
G37*
%TD.AperFunction*%
%TO.P,R39,1*%
%TO.N,/AVR MCU/~RST*%
%TA.AperFunction,SMDPad,CuDef*%
G36*
G01*
X59045000Y42250000D02*
X57795000Y42250000D01*
G75*
G02*
X57545000Y42500000I0J250000D01*
G01*
X57545000Y43300000D01*
G75*
G02*
X57795000Y43550000I250000J0D01*
G01*
X59045000Y43550000D01*
G75*
G02*
X59295000Y43300000I0J-250000D01*
G01*
X59295000Y42500000D01*
G75*
G02*
X59045000Y42250000I-250000J0D01*
G01*
G37*
%TD.AperFunction*%
%TD*%
%TO.P,R38,2*%
%TO.N,GNDPWR*%
%TA.AperFunction,SMDPad,CuDef*%
G36*
G01*
X89270000Y76825000D02*
X89270000Y75575000D01*
G75*
G02*
X89020000Y75325000I-250000J0D01*
G01*
X88220000Y75325000D01*
G75*
G02*
X87970000Y75575000I0J250000D01*
G01*
X87970000Y76825000D01*
G75*
G02*
X88220000Y77075000I250000J0D01*
G01*
X89020000Y77075000D01*
G75*
G02*
X89270000Y76825000I0J-250000D01*
G01*
G37*
%TD.AperFunction*%
%TO.P,R38,1*%
%TO.N,/H-bridge/IN2*%
%TA.AperFunction,SMDPad,CuDef*%
G36*
G01*
X92370000Y76825000D02*
X92370000Y75575000D01*
G75*
G02*
X92120000Y75325000I-250000J0D01*
G01*
X91320000Y75325000D01*
G75*
G02*
X91070000Y75575000I0J250000D01*
G01*
X91070000Y76825000D01*
G75*
G02*
X91320000Y77075000I250000J0D01*
G01*
X92120000Y77075000D01*
G75*
G02*
X92370000Y76825000I0J-250000D01*
G01*
G37*
%TD.AperFunction*%
%TD*%
%TO.P,R37,2*%
%TO.N,Net-(J13-Pad2)*%
%TA.AperFunction,SMDPad,CuDef*%
G36*
G01*
X89525000Y92340000D02*
X88275000Y92340000D01*
G75*
G02*
X88025000Y92590000I0J250000D01*
G01*
X88025000Y93390000D01*
G75*
G02*
X88275000Y93640000I250000J0D01*
G01*
X89525000Y93640000D01*
G75*
G02*
X89775000Y93390000I0J-250000D01*
G01*
X89775000Y92590000D01*
G75*
G02*
X89525000Y92340000I-250000J0D01*
G01*
G37*
%TD.AperFunction*%
%TO.P,R37,1*%
%TO.N,Net-(R37-Pad1)*%
%TA.AperFunction,SMDPad,CuDef*%
G36*
G01*
X89525000Y89240000D02*
X88275000Y89240000D01*
G75*
G02*
X88025000Y89490000I0J250000D01*
G01*
X88025000Y90290000D01*
G75*
G02*
X88275000Y90540000I250000J0D01*
G01*
X89525000Y90540000D01*
G75*
G02*
X89775000Y90290000I0J-250000D01*
G01*
X89775000Y89490000D01*
G75*
G02*
X89525000Y89240000I-250000J0D01*
G01*
G37*
%TD.AperFunction*%
%TD*%
%TO.P,R36,2*%
%TO.N,Net-(J12-Pad2)*%
%TA.AperFunction,SMDPad,CuDef*%
G36*
G01*
X95875000Y92340000D02*
X94625000Y92340000D01*
G75*
G02*
X94375000Y92590000I0J250000D01*
G01*
X94375000Y93390000D01*
G75*
G02*
X94625000Y93640000I250000J0D01*
G01*
X95875000Y93640000D01*
G75*
G02*
X96125000Y93390000I0J-250000D01*
G01*
X96125000Y92590000D01*
G75*
G02*
X95875000Y92340000I-250000J0D01*
G01*
G37*
%TD.AperFunction*%
%TO.P,R36,1*%
%TO.N,Net-(R36-Pad1)*%
%TA.AperFunction,SMDPad,CuDef*%
G36*
G01*
X95875000Y89240000D02*
X94625000Y89240000D01*
G75*
G02*
X94375000Y89490000I0J250000D01*
G01*
X94375000Y90290000D01*
G75*
G02*
X94625000Y90540000I250000J0D01*
G01*
X95875000Y90540000D01*
G75*
G02*
X96125000Y90290000I0J-250000D01*
G01*
X96125000Y89490000D01*
G75*
G02*
X95875000Y89240000I-250000J0D01*
G01*
G37*
%TD.AperFunction*%
%TD*%
D11*
%TO.P,R35,2*%
%TO.N,Net-(C14-Pad1)*%
X55880000Y78740000D03*
D26*
%TO.P,R35,1*%
%TO.N,Net-(D3-Pad1)*%
X55880000Y91440000D03*
%TD*%
%TO.P,R34,2*%
%TO.N,Net-(R34-Pad2)*%
%TA.AperFunction,SMDPad,CuDef*%
G36*
G01*
X69225000Y90540000D02*
X70475000Y90540000D01*
G75*
G02*
X70725000Y90290000I0J-250000D01*
G01*
X70725000Y89490000D01*
G75*
G02*
X70475000Y89240000I-250000J0D01*
G01*
X69225000Y89240000D01*
G75*
G02*
X68975000Y89490000I0J250000D01*
G01*
X68975000Y90290000D01*
G75*
G02*
X69225000Y90540000I250000J0D01*
G01*
G37*
%TD.AperFunction*%
%TO.P,R34,1*%
%TO.N,Net-(J9-Pad2)*%
%TA.AperFunction,SMDPad,CuDef*%
G36*
G01*
X69225000Y93640000D02*
X70475000Y93640000D01*
G75*
G02*
X70725000Y93390000I0J-250000D01*
G01*
X70725000Y92590000D01*
G75*
G02*
X70475000Y92340000I-250000J0D01*
G01*
X69225000Y92340000D01*
G75*
G02*
X68975000Y92590000I0J250000D01*
G01*
X68975000Y93390000D01*
G75*
G02*
X69225000Y93640000I250000J0D01*
G01*
G37*
%TD.AperFunction*%
%TD*%
%TO.P,R33,2*%
%TO.N,Net-(R33-Pad2)*%
%TA.AperFunction,SMDPad,CuDef*%
G36*
G01*
X75575000Y90540000D02*
X76825000Y90540000D01*
G75*
G02*
X77075000Y90290000I0J-250000D01*
G01*
X77075000Y89490000D01*
G75*
G02*
X76825000Y89240000I-250000J0D01*
G01*
X75575000Y89240000D01*
G75*
G02*
X75325000Y89490000I0J250000D01*
G01*
X75325000Y90290000D01*
G75*
G02*
X75575000Y90540000I250000J0D01*
G01*
G37*
%TD.AperFunction*%
%TO.P,R33,1*%
%TO.N,Net-(J8-Pad2)*%
%TA.AperFunction,SMDPad,CuDef*%
G36*
G01*
X75575000Y93640000D02*
X76825000Y93640000D01*
G75*
G02*
X77075000Y93390000I0J-250000D01*
G01*
X77075000Y92590000D01*
G75*
G02*
X76825000Y92340000I-250000J0D01*
G01*
X75575000Y92340000D01*
G75*
G02*
X75325000Y92590000I0J250000D01*
G01*
X75325000Y93390000D01*
G75*
G02*
X75575000Y93640000I250000J0D01*
G01*
G37*
%TD.AperFunction*%
%TD*%
%TO.P,R32,2*%
%TO.N,GNDPWR*%
%TA.AperFunction,SMDPad,CuDef*%
G36*
G01*
X70220000Y78095000D02*
X70220000Y76845000D01*
G75*
G02*
X69970000Y76595000I-250000J0D01*
G01*
X69170000Y76595000D01*
G75*
G02*
X68920000Y76845000I0J250000D01*
G01*
X68920000Y78095000D01*
G75*
G02*
X69170000Y78345000I250000J0D01*
G01*
X69970000Y78345000D01*
G75*
G02*
X70220000Y78095000I0J-250000D01*
G01*
G37*
%TD.AperFunction*%
%TO.P,R32,1*%
%TO.N,/H-bridge/IN1*%
%TA.AperFunction,SMDPad,CuDef*%
G36*
G01*
X73320000Y78095000D02*
X73320000Y76845000D01*
G75*
G02*
X73070000Y76595000I-250000J0D01*
G01*
X72270000Y76595000D01*
G75*
G02*
X72020000Y76845000I0J250000D01*
G01*
X72020000Y78095000D01*
G75*
G02*
X72270000Y78345000I250000J0D01*
G01*
X73070000Y78345000D01*
G75*
G02*
X73320000Y78095000I0J-250000D01*
G01*
G37*
%TD.AperFunction*%
%TD*%
%TO.P,R31,2*%
%TO.N,GNDPWR*%
%TA.AperFunction,SMDPad,CuDef*%
G36*
G01*
X70220000Y75555000D02*
X70220000Y74305000D01*
G75*
G02*
X69970000Y74055000I-250000J0D01*
G01*
X69170000Y74055000D01*
G75*
G02*
X68920000Y74305000I0J250000D01*
G01*
X68920000Y75555000D01*
G75*
G02*
X69170000Y75805000I250000J0D01*
G01*
X69970000Y75805000D01*
G75*
G02*
X70220000Y75555000I0J-250000D01*
G01*
G37*
%TD.AperFunction*%
%TO.P,R31,1*%
%TO.N,/AVR MCU/~SD*%
%TA.AperFunction,SMDPad,CuDef*%
G36*
G01*
X73320000Y75555000D02*
X73320000Y74305000D01*
G75*
G02*
X73070000Y74055000I-250000J0D01*
G01*
X72270000Y74055000D01*
G75*
G02*
X72020000Y74305000I0J250000D01*
G01*
X72020000Y75555000D01*
G75*
G02*
X72270000Y75805000I250000J0D01*
G01*
X73070000Y75805000D01*
G75*
G02*
X73320000Y75555000I0J-250000D01*
G01*
G37*
%TD.AperFunction*%
%TD*%
%TO.P,R30,2*%
%TO.N,Net-(Q8-Pad1)*%
%TA.AperFunction,SMDPad,CuDef*%
G36*
G01*
X51170000Y59045000D02*
X51170000Y57795000D01*
G75*
G02*
X50920000Y57545000I-250000J0D01*
G01*
X50120000Y57545000D01*
G75*
G02*
X49870000Y57795000I0J250000D01*
G01*
X49870000Y59045000D01*
G75*
G02*
X50120000Y59295000I250000J0D01*
G01*
X50920000Y59295000D01*
G75*
G02*
X51170000Y59045000I0J-250000D01*
G01*
G37*
%TD.AperFunction*%
%TO.P,R30,1*%
%TO.N,+12P*%
%TA.AperFunction,SMDPad,CuDef*%
G36*
G01*
X54270000Y59045000D02*
X54270000Y57795000D01*
G75*
G02*
X54020000Y57545000I-250000J0D01*
G01*
X53220000Y57545000D01*
G75*
G02*
X52970000Y57795000I0J250000D01*
G01*
X52970000Y59045000D01*
G75*
G02*
X53220000Y59295000I250000J0D01*
G01*
X54020000Y59295000D01*
G75*
G02*
X54270000Y59045000I0J-250000D01*
G01*
G37*
%TD.AperFunction*%
%TD*%
%TO.P,R29,2*%
%TO.N,Net-(R25-Pad2)*%
%TA.AperFunction,SMDPad,CuDef*%
G36*
G01*
X46090000Y59045000D02*
X46090000Y57795000D01*
G75*
G02*
X45840000Y57545000I-250000J0D01*
G01*
X45040000Y57545000D01*
G75*
G02*
X44790000Y57795000I0J250000D01*
G01*
X44790000Y59045000D01*
G75*
G02*
X45040000Y59295000I250000J0D01*
G01*
X45840000Y59295000D01*
G75*
G02*
X46090000Y59045000I0J-250000D01*
G01*
G37*
%TD.AperFunction*%
%TO.P,R29,1*%
%TO.N,Net-(Q8-Pad1)*%
%TA.AperFunction,SMDPad,CuDef*%
G36*
G01*
X49190000Y59045000D02*
X49190000Y57795000D01*
G75*
G02*
X48940000Y57545000I-250000J0D01*
G01*
X48140000Y57545000D01*
G75*
G02*
X47890000Y57795000I0J250000D01*
G01*
X47890000Y59045000D01*
G75*
G02*
X48140000Y59295000I250000J0D01*
G01*
X48940000Y59295000D01*
G75*
G02*
X49190000Y59045000I0J-250000D01*
G01*
G37*
%TD.AperFunction*%
%TD*%
%TO.P,R28,2*%
%TO.N,/H-bridge/DC-*%
%TA.AperFunction,SMDPad,CuDef*%
G36*
G01*
X29580000Y39995000D02*
X29580000Y38745000D01*
G75*
G02*
X29330000Y38495000I-250000J0D01*
G01*
X28530000Y38495000D01*
G75*
G02*
X28280000Y38745000I0J250000D01*
G01*
X28280000Y39995000D01*
G75*
G02*
X28530000Y40245000I250000J0D01*
G01*
X29330000Y40245000D01*
G75*
G02*
X29580000Y39995000I0J-250000D01*
G01*
G37*
%TD.AperFunction*%
%TO.P,R28,1*%
%TO.N,Net-(R27-Pad2)*%
%TA.AperFunction,SMDPad,CuDef*%
G36*
G01*
X32680000Y39995000D02*
X32680000Y38745000D01*
G75*
G02*
X32430000Y38495000I-250000J0D01*
G01*
X31630000Y38495000D01*
G75*
G02*
X31380000Y38745000I0J250000D01*
G01*
X31380000Y39995000D01*
G75*
G02*
X31630000Y40245000I250000J0D01*
G01*
X32430000Y40245000D01*
G75*
G02*
X32680000Y39995000I0J-250000D01*
G01*
G37*
%TD.AperFunction*%
%TD*%
D11*
%TO.P,R27,2*%
%TO.N,Net-(R27-Pad2)*%
X35560000Y39370000D03*
D26*
%TO.P,R27,1*%
%TO.N,/H-bridge/DC+*%
X35560000Y49530000D03*
%TD*%
%TO.P,R26,2*%
%TO.N,GNDPWR*%
%TA.AperFunction,SMDPad,CuDef*%
G36*
G01*
X41010000Y59045000D02*
X41010000Y57795000D01*
G75*
G02*
X40760000Y57545000I-250000J0D01*
G01*
X39960000Y57545000D01*
G75*
G02*
X39710000Y57795000I0J250000D01*
G01*
X39710000Y59045000D01*
G75*
G02*
X39960000Y59295000I250000J0D01*
G01*
X40760000Y59295000D01*
G75*
G02*
X41010000Y59045000I0J-250000D01*
G01*
G37*
%TD.AperFunction*%
%TO.P,R26,1*%
%TO.N,Net-(R25-Pad2)*%
%TA.AperFunction,SMDPad,CuDef*%
G36*
G01*
X44110000Y59045000D02*
X44110000Y57795000D01*
G75*
G02*
X43860000Y57545000I-250000J0D01*
G01*
X43060000Y57545000D01*
G75*
G02*
X42810000Y57795000I0J250000D01*
G01*
X42810000Y59045000D01*
G75*
G02*
X43060000Y59295000I250000J0D01*
G01*
X43860000Y59295000D01*
G75*
G02*
X44110000Y59045000I0J-250000D01*
G01*
G37*
%TD.AperFunction*%
%TD*%
%TO.P,R25,2*%
%TO.N,Net-(R25-Pad2)*%
%TA.AperFunction,SMDPad,CuDef*%
G36*
G01*
X46090000Y56505000D02*
X46090000Y55255000D01*
G75*
G02*
X45840000Y55005000I-250000J0D01*
G01*
X45040000Y55005000D01*
G75*
G02*
X44790000Y55255000I0J250000D01*
G01*
X44790000Y56505000D01*
G75*
G02*
X45040000Y56755000I250000J0D01*
G01*
X45840000Y56755000D01*
G75*
G02*
X46090000Y56505000I0J-250000D01*
G01*
G37*
%TD.AperFunction*%
%TO.P,R25,1*%
%TO.N,+12P*%
%TA.AperFunction,SMDPad,CuDef*%
G36*
G01*
X49190000Y56505000D02*
X49190000Y55255000D01*
G75*
G02*
X48940000Y55005000I-250000J0D01*
G01*
X48140000Y55005000D01*
G75*
G02*
X47890000Y55255000I0J250000D01*
G01*
X47890000Y56505000D01*
G75*
G02*
X48140000Y56755000I250000J0D01*
G01*
X48940000Y56755000D01*
G75*
G02*
X49190000Y56505000I0J-250000D01*
G01*
G37*
%TD.AperFunction*%
%TD*%
%TO.P,R24,2*%
%TO.N,/H-bridge/DC-*%
%TA.AperFunction,SMDPad,CuDef*%
G36*
G01*
X29580000Y37455000D02*
X29580000Y36205000D01*
G75*
G02*
X29330000Y35955000I-250000J0D01*
G01*
X28530000Y35955000D01*
G75*
G02*
X28280000Y36205000I0J250000D01*
G01*
X28280000Y37455000D01*
G75*
G02*
X28530000Y37705000I250000J0D01*
G01*
X29330000Y37705000D01*
G75*
G02*
X29580000Y37455000I0J-250000D01*
G01*
G37*
%TD.AperFunction*%
%TO.P,R24,1*%
%TO.N,/AVR MCU/VSENSE*%
%TA.AperFunction,SMDPad,CuDef*%
G36*
G01*
X32680000Y37455000D02*
X32680000Y36205000D01*
G75*
G02*
X32430000Y35955000I-250000J0D01*
G01*
X31630000Y35955000D01*
G75*
G02*
X31380000Y36205000I0J250000D01*
G01*
X31380000Y37455000D01*
G75*
G02*
X31630000Y37705000I250000J0D01*
G01*
X32430000Y37705000D01*
G75*
G02*
X32680000Y37455000I0J-250000D01*
G01*
G37*
%TD.AperFunction*%
%TD*%
D11*
%TO.P,R23,2*%
%TO.N,/AVR MCU/VSENSE*%
X39370000Y39370000D03*
D26*
%TO.P,R23,1*%
%TO.N,/H-bridge/DC+*%
X39370000Y49530000D03*
%TD*%
%TO.P,R22,2*%
%TO.N,Net-(R22-Pad2)*%
%TA.AperFunction,SMDPad,CuDef*%
G36*
G01*
X105040000Y22235000D02*
X105040000Y23485000D01*
G75*
G02*
X105290000Y23735000I250000J0D01*
G01*
X106090000Y23735000D01*
G75*
G02*
X106340000Y23485000I0J-250000D01*
G01*
X106340000Y22235000D01*
G75*
G02*
X106090000Y21985000I-250000J0D01*
G01*
X105290000Y21985000D01*
G75*
G02*
X105040000Y22235000I0J250000D01*
G01*
G37*
%TD.AperFunction*%
%TO.P,R22,1*%
%TO.N,+12V*%
%TA.AperFunction,SMDPad,CuDef*%
G36*
G01*
X101940000Y22235000D02*
X101940000Y23485000D01*
G75*
G02*
X102190000Y23735000I250000J0D01*
G01*
X102990000Y23735000D01*
G75*
G02*
X103240000Y23485000I0J-250000D01*
G01*
X103240000Y22235000D01*
G75*
G02*
X102990000Y21985000I-250000J0D01*
G01*
X102190000Y21985000D01*
G75*
G02*
X101940000Y22235000I0J250000D01*
G01*
G37*
%TD.AperFunction*%
%TD*%
%TO.P,R21,2*%
%TO.N,Net-(R21-Pad2)*%
%TA.AperFunction,SMDPad,CuDef*%
G36*
G01*
X105040000Y27315000D02*
X105040000Y28565000D01*
G75*
G02*
X105290000Y28815000I250000J0D01*
G01*
X106090000Y28815000D01*
G75*
G02*
X106340000Y28565000I0J-250000D01*
G01*
X106340000Y27315000D01*
G75*
G02*
X106090000Y27065000I-250000J0D01*
G01*
X105290000Y27065000D01*
G75*
G02*
X105040000Y27315000I0J250000D01*
G01*
G37*
%TD.AperFunction*%
%TO.P,R21,1*%
%TO.N,+12V*%
%TA.AperFunction,SMDPad,CuDef*%
G36*
G01*
X101940000Y27315000D02*
X101940000Y28565000D01*
G75*
G02*
X102190000Y28815000I250000J0D01*
G01*
X102990000Y28815000D01*
G75*
G02*
X103240000Y28565000I0J-250000D01*
G01*
X103240000Y27315000D01*
G75*
G02*
X102990000Y27065000I-250000J0D01*
G01*
X102190000Y27065000D01*
G75*
G02*
X101940000Y27315000I0J250000D01*
G01*
G37*
%TD.AperFunction*%
%TD*%
%TO.P,R20,2*%
%TO.N,Net-(R20-Pad2)*%
%TA.AperFunction,SMDPad,CuDef*%
G36*
G01*
X105040000Y32395000D02*
X105040000Y33645000D01*
G75*
G02*
X105290000Y33895000I250000J0D01*
G01*
X106090000Y33895000D01*
G75*
G02*
X106340000Y33645000I0J-250000D01*
G01*
X106340000Y32395000D01*
G75*
G02*
X106090000Y32145000I-250000J0D01*
G01*
X105290000Y32145000D01*
G75*
G02*
X105040000Y32395000I0J250000D01*
G01*
G37*
%TD.AperFunction*%
%TO.P,R20,1*%
%TO.N,+12V*%
%TA.AperFunction,SMDPad,CuDef*%
G36*
G01*
X101940000Y32395000D02*
X101940000Y33645000D01*
G75*
G02*
X102190000Y33895000I250000J0D01*
G01*
X102990000Y33895000D01*
G75*
G02*
X103240000Y33645000I0J-250000D01*
G01*
X103240000Y32395000D01*
G75*
G02*
X102990000Y32145000I-250000J0D01*
G01*
X102190000Y32145000D01*
G75*
G02*
X101940000Y32395000I0J250000D01*
G01*
G37*
%TD.AperFunction*%
%TD*%
%TO.P,R19,2*%
%TO.N,Net-(R19-Pad2)*%
%TA.AperFunction,SMDPad,CuDef*%
G36*
G01*
X105040000Y37475000D02*
X105040000Y38725000D01*
G75*
G02*
X105290000Y38975000I250000J0D01*
G01*
X106090000Y38975000D01*
G75*
G02*
X106340000Y38725000I0J-250000D01*
G01*
X106340000Y37475000D01*
G75*
G02*
X106090000Y37225000I-250000J0D01*
G01*
X105290000Y37225000D01*
G75*
G02*
X105040000Y37475000I0J250000D01*
G01*
G37*
%TD.AperFunction*%
%TO.P,R19,1*%
%TO.N,+12V*%
%TA.AperFunction,SMDPad,CuDef*%
G36*
G01*
X101940000Y37475000D02*
X101940000Y38725000D01*
G75*
G02*
X102190000Y38975000I250000J0D01*
G01*
X102990000Y38975000D01*
G75*
G02*
X103240000Y38725000I0J-250000D01*
G01*
X103240000Y37475000D01*
G75*
G02*
X102990000Y37225000I-250000J0D01*
G01*
X102190000Y37225000D01*
G75*
G02*
X101940000Y37475000I0J250000D01*
G01*
G37*
%TD.AperFunction*%
%TD*%
%TO.P,R18,2*%
%TO.N,GND*%
%TA.AperFunction,SMDPad,CuDef*%
G36*
G01*
X112385000Y22236000D02*
X111135000Y22236000D01*
G75*
G02*
X110885000Y22486000I0J250000D01*
G01*
X110885000Y23286000D01*
G75*
G02*
X111135000Y23536000I250000J0D01*
G01*
X112385000Y23536000D01*
G75*
G02*
X112635000Y23286000I0J-250000D01*
G01*
X112635000Y22486000D01*
G75*
G02*
X112385000Y22236000I-250000J0D01*
G01*
G37*
%TD.AperFunction*%
%TO.P,R18,1*%
%TO.N,Net-(Q7-Pad1)*%
%TA.AperFunction,SMDPad,CuDef*%
G36*
G01*
X112385000Y19136000D02*
X111135000Y19136000D01*
G75*
G02*
X110885000Y19386000I0J250000D01*
G01*
X110885000Y20186000D01*
G75*
G02*
X111135000Y20436000I250000J0D01*
G01*
X112385000Y20436000D01*
G75*
G02*
X112635000Y20186000I0J-250000D01*
G01*
X112635000Y19386000D01*
G75*
G02*
X112385000Y19136000I-250000J0D01*
G01*
G37*
%TD.AperFunction*%
%TD*%
%TO.P,R17,2*%
%TO.N,GND*%
%TA.AperFunction,SMDPad,CuDef*%
G36*
G01*
X112385000Y27570000D02*
X111135000Y27570000D01*
G75*
G02*
X110885000Y27820000I0J250000D01*
G01*
X110885000Y28620000D01*
G75*
G02*
X111135000Y28870000I250000J0D01*
G01*
X112385000Y28870000D01*
G75*
G02*
X112635000Y28620000I0J-250000D01*
G01*
X112635000Y27820000D01*
G75*
G02*
X112385000Y27570000I-250000J0D01*
G01*
G37*
%TD.AperFunction*%
%TO.P,R17,1*%
%TO.N,Net-(Q6-Pad1)*%
%TA.AperFunction,SMDPad,CuDef*%
G36*
G01*
X112385000Y24470000D02*
X111135000Y24470000D01*
G75*
G02*
X110885000Y24720000I0J250000D01*
G01*
X110885000Y25520000D01*
G75*
G02*
X111135000Y25770000I250000J0D01*
G01*
X112385000Y25770000D01*
G75*
G02*
X112635000Y25520000I0J-250000D01*
G01*
X112635000Y24720000D01*
G75*
G02*
X112385000Y24470000I-250000J0D01*
G01*
G37*
%TD.AperFunction*%
%TD*%
%TO.P,R16,2*%
%TO.N,GND*%
%TA.AperFunction,SMDPad,CuDef*%
G36*
G01*
X112385000Y32650000D02*
X111135000Y32650000D01*
G75*
G02*
X110885000Y32900000I0J250000D01*
G01*
X110885000Y33700000D01*
G75*
G02*
X111135000Y33950000I250000J0D01*
G01*
X112385000Y33950000D01*
G75*
G02*
X112635000Y33700000I0J-250000D01*
G01*
X112635000Y32900000D01*
G75*
G02*
X112385000Y32650000I-250000J0D01*
G01*
G37*
%TD.AperFunction*%
%TO.P,R16,1*%
%TO.N,Net-(Q5-Pad1)*%
%TA.AperFunction,SMDPad,CuDef*%
G36*
G01*
X112385000Y29550000D02*
X111135000Y29550000D01*
G75*
G02*
X110885000Y29800000I0J250000D01*
G01*
X110885000Y30600000D01*
G75*
G02*
X111135000Y30850000I250000J0D01*
G01*
X112385000Y30850000D01*
G75*
G02*
X112635000Y30600000I0J-250000D01*
G01*
X112635000Y29800000D01*
G75*
G02*
X112385000Y29550000I-250000J0D01*
G01*
G37*
%TD.AperFunction*%
%TD*%
%TO.P,R15,2*%
%TO.N,GND*%
%TA.AperFunction,SMDPad,CuDef*%
G36*
G01*
X112385000Y37730000D02*
X111135000Y37730000D01*
G75*
G02*
X110885000Y37980000I0J250000D01*
G01*
X110885000Y38780000D01*
G75*
G02*
X111135000Y39030000I250000J0D01*
G01*
X112385000Y39030000D01*
G75*
G02*
X112635000Y38780000I0J-250000D01*
G01*
X112635000Y37980000D01*
G75*
G02*
X112385000Y37730000I-250000J0D01*
G01*
G37*
%TD.AperFunction*%
%TO.P,R15,1*%
%TO.N,Net-(Q4-Pad1)*%
%TA.AperFunction,SMDPad,CuDef*%
G36*
G01*
X112385000Y34630000D02*
X111135000Y34630000D01*
G75*
G02*
X110885000Y34880000I0J250000D01*
G01*
X110885000Y35680000D01*
G75*
G02*
X111135000Y35930000I250000J0D01*
G01*
X112385000Y35930000D01*
G75*
G02*
X112635000Y35680000I0J-250000D01*
G01*
X112635000Y34880000D01*
G75*
G02*
X112385000Y34630000I-250000J0D01*
G01*
G37*
%TD.AperFunction*%
%TD*%
%TO.P,R14,2*%
%TO.N,/AVR MCU/REL4*%
%TA.AperFunction,SMDPad,CuDef*%
G36*
G01*
X95620000Y23485000D02*
X95620000Y22235000D01*
G75*
G02*
X95370000Y21985000I-250000J0D01*
G01*
X94570000Y21985000D01*
G75*
G02*
X94320000Y22235000I0J250000D01*
G01*
X94320000Y23485000D01*
G75*
G02*
X94570000Y23735000I250000J0D01*
G01*
X95370000Y23735000D01*
G75*
G02*
X95620000Y23485000I0J-250000D01*
G01*
G37*
%TD.AperFunction*%
%TO.P,R14,1*%
%TO.N,Net-(R14-Pad1)*%
%TA.AperFunction,SMDPad,CuDef*%
G36*
G01*
X98720000Y23485000D02*
X98720000Y22235000D01*
G75*
G02*
X98470000Y21985000I-250000J0D01*
G01*
X97670000Y21985000D01*
G75*
G02*
X97420000Y22235000I0J250000D01*
G01*
X97420000Y23485000D01*
G75*
G02*
X97670000Y23735000I250000J0D01*
G01*
X98470000Y23735000D01*
G75*
G02*
X98720000Y23485000I0J-250000D01*
G01*
G37*
%TD.AperFunction*%
%TD*%
%TO.P,R13,2*%
%TO.N,/AVR MCU/REL3*%
%TA.AperFunction,SMDPad,CuDef*%
G36*
G01*
X95620000Y28565000D02*
X95620000Y27315000D01*
G75*
G02*
X95370000Y27065000I-250000J0D01*
G01*
X94570000Y27065000D01*
G75*
G02*
X94320000Y27315000I0J250000D01*
G01*
X94320000Y28565000D01*
G75*
G02*
X94570000Y28815000I250000J0D01*
G01*
X95370000Y28815000D01*
G75*
G02*
X95620000Y28565000I0J-250000D01*
G01*
G37*
%TD.AperFunction*%
%TO.P,R13,1*%
%TO.N,Net-(R13-Pad1)*%
%TA.AperFunction,SMDPad,CuDef*%
G36*
G01*
X98720000Y28565000D02*
X98720000Y27315000D01*
G75*
G02*
X98470000Y27065000I-250000J0D01*
G01*
X97670000Y27065000D01*
G75*
G02*
X97420000Y27315000I0J250000D01*
G01*
X97420000Y28565000D01*
G75*
G02*
X97670000Y28815000I250000J0D01*
G01*
X98470000Y28815000D01*
G75*
G02*
X98720000Y28565000I0J-250000D01*
G01*
G37*
%TD.AperFunction*%
%TD*%
%TO.P,R12,2*%
%TO.N,/AVR MCU/REL2*%
%TA.AperFunction,SMDPad,CuDef*%
G36*
G01*
X95620000Y33645000D02*
X95620000Y32395000D01*
G75*
G02*
X95370000Y32145000I-250000J0D01*
G01*
X94570000Y32145000D01*
G75*
G02*
X94320000Y32395000I0J250000D01*
G01*
X94320000Y33645000D01*
G75*
G02*
X94570000Y33895000I250000J0D01*
G01*
X95370000Y33895000D01*
G75*
G02*
X95620000Y33645000I0J-250000D01*
G01*
G37*
%TD.AperFunction*%
%TO.P,R12,1*%
%TO.N,Net-(R12-Pad1)*%
%TA.AperFunction,SMDPad,CuDef*%
G36*
G01*
X98720000Y33645000D02*
X98720000Y32395000D01*
G75*
G02*
X98470000Y32145000I-250000J0D01*
G01*
X97670000Y32145000D01*
G75*
G02*
X97420000Y32395000I0J250000D01*
G01*
X97420000Y33645000D01*
G75*
G02*
X97670000Y33895000I250000J0D01*
G01*
X98470000Y33895000D01*
G75*
G02*
X98720000Y33645000I0J-250000D01*
G01*
G37*
%TD.AperFunction*%
%TD*%
%TO.P,R11,2*%
%TO.N,/AVR MCU/REL1*%
%TA.AperFunction,SMDPad,CuDef*%
G36*
G01*
X95620000Y38725000D02*
X95620000Y37475000D01*
G75*
G02*
X95370000Y37225000I-250000J0D01*
G01*
X94570000Y37225000D01*
G75*
G02*
X94320000Y37475000I0J250000D01*
G01*
X94320000Y38725000D01*
G75*
G02*
X94570000Y38975000I250000J0D01*
G01*
X95370000Y38975000D01*
G75*
G02*
X95620000Y38725000I0J-250000D01*
G01*
G37*
%TD.AperFunction*%
%TO.P,R11,1*%
%TO.N,Net-(R11-Pad1)*%
%TA.AperFunction,SMDPad,CuDef*%
G36*
G01*
X98720000Y38725000D02*
X98720000Y37475000D01*
G75*
G02*
X98470000Y37225000I-250000J0D01*
G01*
X97670000Y37225000D01*
G75*
G02*
X97420000Y37475000I0J250000D01*
G01*
X97420000Y38725000D01*
G75*
G02*
X97670000Y38975000I250000J0D01*
G01*
X98470000Y38975000D01*
G75*
G02*
X98720000Y38725000I0J-250000D01*
G01*
G37*
%TD.AperFunction*%
%TD*%
%TO.P,R10,2*%
%TO.N,/AVR MCU/RX*%
%TA.AperFunction,SMDPad,CuDef*%
G36*
G01*
X95875000Y65670000D02*
X94625000Y65670000D01*
G75*
G02*
X94375000Y65920000I0J250000D01*
G01*
X94375000Y66720000D01*
G75*
G02*
X94625000Y66970000I250000J0D01*
G01*
X95875000Y66970000D01*
G75*
G02*
X96125000Y66720000I0J-250000D01*
G01*
X96125000Y65920000D01*
G75*
G02*
X95875000Y65670000I-250000J0D01*
G01*
G37*
%TD.AperFunction*%
%TO.P,R10,1*%
%TO.N,+5P*%
%TA.AperFunction,SMDPad,CuDef*%
G36*
G01*
X95875000Y62570000D02*
X94625000Y62570000D01*
G75*
G02*
X94375000Y62820000I0J250000D01*
G01*
X94375000Y63620000D01*
G75*
G02*
X94625000Y63870000I250000J0D01*
G01*
X95875000Y63870000D01*
G75*
G02*
X96125000Y63620000I0J-250000D01*
G01*
X96125000Y62820000D01*
G75*
G02*
X95875000Y62570000I-250000J0D01*
G01*
G37*
%TD.AperFunction*%
%TD*%
%TO.P,R9,2*%
%TO.N,Net-(R9-Pad2)*%
%TA.AperFunction,SMDPad,CuDef*%
G36*
G01*
X98415000Y75830000D02*
X97165000Y75830000D01*
G75*
G02*
X96915000Y76080000I0J250000D01*
G01*
X96915000Y76880000D01*
G75*
G02*
X97165000Y77130000I250000J0D01*
G01*
X98415000Y77130000D01*
G75*
G02*
X98665000Y76880000I0J-250000D01*
G01*
X98665000Y76080000D01*
G75*
G02*
X98415000Y75830000I-250000J0D01*
G01*
G37*
%TD.AperFunction*%
%TO.P,R9,1*%
%TO.N,/AVR MCU/TX*%
%TA.AperFunction,SMDPad,CuDef*%
G36*
G01*
X98415000Y72730000D02*
X97165000Y72730000D01*
G75*
G02*
X96915000Y72980000I0J250000D01*
G01*
X96915000Y73780000D01*
G75*
G02*
X97165000Y74030000I250000J0D01*
G01*
X98415000Y74030000D01*
G75*
G02*
X98665000Y73780000I0J-250000D01*
G01*
X98665000Y72980000D01*
G75*
G02*
X98415000Y72730000I-250000J0D01*
G01*
G37*
%TD.AperFunction*%
%TD*%
%TO.P,R8,2*%
%TO.N,Net-(R8-Pad2)*%
%TA.AperFunction,SMDPad,CuDef*%
G36*
G01*
X70750000Y66685000D02*
X70750000Y67935000D01*
G75*
G02*
X71000000Y68185000I250000J0D01*
G01*
X71800000Y68185000D01*
G75*
G02*
X72050000Y67935000I0J-250000D01*
G01*
X72050000Y66685000D01*
G75*
G02*
X71800000Y66435000I-250000J0D01*
G01*
X71000000Y66435000D01*
G75*
G02*
X70750000Y66685000I0J250000D01*
G01*
G37*
%TD.AperFunction*%
%TO.P,R8,1*%
%TO.N,/AVR MCU/FAN*%
%TA.AperFunction,SMDPad,CuDef*%
G36*
G01*
X67650000Y66685000D02*
X67650000Y67935000D01*
G75*
G02*
X67900000Y68185000I250000J0D01*
G01*
X68700000Y68185000D01*
G75*
G02*
X68950000Y67935000I0J-250000D01*
G01*
X68950000Y66685000D01*
G75*
G02*
X68700000Y66435000I-250000J0D01*
G01*
X67900000Y66435000D01*
G75*
G02*
X67650000Y66685000I0J250000D01*
G01*
G37*
%TD.AperFunction*%
%TD*%
%TO.P,R7,2*%
%TO.N,Net-(R7-Pad2)*%
%TA.AperFunction,SMDPad,CuDef*%
G36*
G01*
X51425000Y68210000D02*
X50175000Y68210000D01*
G75*
G02*
X49925000Y68460000I0J250000D01*
G01*
X49925000Y69260000D01*
G75*
G02*
X50175000Y69510000I250000J0D01*
G01*
X51425000Y69510000D01*
G75*
G02*
X51675000Y69260000I0J-250000D01*
G01*
X51675000Y68460000D01*
G75*
G02*
X51425000Y68210000I-250000J0D01*
G01*
G37*
%TD.AperFunction*%
%TO.P,R7,1*%
%TO.N,/H-bridge/~OVP*%
%TA.AperFunction,SMDPad,CuDef*%
G36*
G01*
X51425000Y65110000D02*
X50175000Y65110000D01*
G75*
G02*
X49925000Y65360000I0J250000D01*
G01*
X49925000Y66160000D01*
G75*
G02*
X50175000Y66410000I250000J0D01*
G01*
X51425000Y66410000D01*
G75*
G02*
X51675000Y66160000I0J-250000D01*
G01*
X51675000Y65360000D01*
G75*
G02*
X51425000Y65110000I-250000J0D01*
G01*
G37*
%TD.AperFunction*%
%TD*%
%TO.P,R6,2*%
%TO.N,Net-(R6-Pad2)*%
%TA.AperFunction,SMDPad,CuDef*%
G36*
G01*
X104785000Y65140000D02*
X106035000Y65140000D01*
G75*
G02*
X106285000Y64890000I0J-250000D01*
G01*
X106285000Y64090000D01*
G75*
G02*
X106035000Y63840000I-250000J0D01*
G01*
X104785000Y63840000D01*
G75*
G02*
X104535000Y64090000I0J250000D01*
G01*
X104535000Y64890000D01*
G75*
G02*
X104785000Y65140000I250000J0D01*
G01*
G37*
%TD.AperFunction*%
%TO.P,R6,1*%
%TO.N,/3V3_UART*%
%TA.AperFunction,SMDPad,CuDef*%
G36*
G01*
X104785000Y68240000D02*
X106035000Y68240000D01*
G75*
G02*
X106285000Y67990000I0J-250000D01*
G01*
X106285000Y67190000D01*
G75*
G02*
X106035000Y66940000I-250000J0D01*
G01*
X104785000Y66940000D01*
G75*
G02*
X104535000Y67190000I0J250000D01*
G01*
X104535000Y67990000D01*
G75*
G02*
X104785000Y68240000I250000J0D01*
G01*
G37*
%TD.AperFunction*%
%TD*%
%TO.P,R5,2*%
%TO.N,/ENABLE*%
%TA.AperFunction,SMDPad,CuDef*%
G36*
G01*
X112940000Y42555000D02*
X112940000Y43805000D01*
G75*
G02*
X113190000Y44055000I250000J0D01*
G01*
X113990000Y44055000D01*
G75*
G02*
X114240000Y43805000I0J-250000D01*
G01*
X114240000Y42555000D01*
G75*
G02*
X113990000Y42305000I-250000J0D01*
G01*
X113190000Y42305000D01*
G75*
G02*
X112940000Y42555000I0J250000D01*
G01*
G37*
%TD.AperFunction*%
%TO.P,R5,1*%
%TO.N,Net-(R5-Pad1)*%
%TA.AperFunction,SMDPad,CuDef*%
G36*
G01*
X109840000Y42555000D02*
X109840000Y43805000D01*
G75*
G02*
X110090000Y44055000I250000J0D01*
G01*
X110890000Y44055000D01*
G75*
G02*
X111140000Y43805000I0J-250000D01*
G01*
X111140000Y42555000D01*
G75*
G02*
X110890000Y42305000I-250000J0D01*
G01*
X110090000Y42305000D01*
G75*
G02*
X109840000Y42555000I0J250000D01*
G01*
G37*
%TD.AperFunction*%
%TD*%
%TO.P,R4,2*%
%TO.N,Net-(Q3-Pad1)*%
%TA.AperFunction,SMDPad,CuDef*%
G36*
G01*
X111115000Y59320000D02*
X109865000Y59320000D01*
G75*
G02*
X109615000Y59570000I0J250000D01*
G01*
X109615000Y60370000D01*
G75*
G02*
X109865000Y60620000I250000J0D01*
G01*
X111115000Y60620000D01*
G75*
G02*
X111365000Y60370000I0J-250000D01*
G01*
X111365000Y59570000D01*
G75*
G02*
X111115000Y59320000I-250000J0D01*
G01*
G37*
%TD.AperFunction*%
%TO.P,R4,1*%
%TO.N,Net-(R4-Pad1)*%
%TA.AperFunction,SMDPad,CuDef*%
G36*
G01*
X111115000Y56220000D02*
X109865000Y56220000D01*
G75*
G02*
X109615000Y56470000I0J250000D01*
G01*
X109615000Y57270000D01*
G75*
G02*
X109865000Y57520000I250000J0D01*
G01*
X111115000Y57520000D01*
G75*
G02*
X111365000Y57270000I0J-250000D01*
G01*
X111365000Y56470000D01*
G75*
G02*
X111115000Y56220000I-250000J0D01*
G01*
G37*
%TD.AperFunction*%
%TD*%
%TO.P,R3,2*%
%TO.N,/TX*%
%TA.AperFunction,SMDPad,CuDef*%
G36*
G01*
X114945000Y75300000D02*
X116195000Y75300000D01*
G75*
G02*
X116445000Y75050000I0J-250000D01*
G01*
X116445000Y74250000D01*
G75*
G02*
X116195000Y74000000I-250000J0D01*
G01*
X114945000Y74000000D01*
G75*
G02*
X114695000Y74250000I0J250000D01*
G01*
X114695000Y75050000D01*
G75*
G02*
X114945000Y75300000I250000J0D01*
G01*
G37*
%TD.AperFunction*%
%TO.P,R3,1*%
%TO.N,/3V3_UART*%
%TA.AperFunction,SMDPad,CuDef*%
G36*
G01*
X114945000Y78400000D02*
X116195000Y78400000D01*
G75*
G02*
X116445000Y78150000I0J-250000D01*
G01*
X116445000Y77350000D01*
G75*
G02*
X116195000Y77100000I-250000J0D01*
G01*
X114945000Y77100000D01*
G75*
G02*
X114695000Y77350000I0J250000D01*
G01*
X114695000Y78150000D01*
G75*
G02*
X114945000Y78400000I250000J0D01*
G01*
G37*
%TD.AperFunction*%
%TD*%
%TO.P,R2,1*%
%TO.N,Net-(Q2-Pad1)*%
%TA.AperFunction,SMDPad,CuDef*%
G36*
G01*
X100955000Y6970000D02*
X99705000Y6970000D01*
G75*
G02*
X99455000Y7220000I0J250000D01*
G01*
X99455000Y8020000D01*
G75*
G02*
X99705000Y8270000I250000J0D01*
G01*
X100955000Y8270000D01*
G75*
G02*
X101205000Y8020000I0J-250000D01*
G01*
X101205000Y7220000D01*
G75*
G02*
X100955000Y6970000I-250000J0D01*
G01*
G37*
%TD.AperFunction*%
%TO.P,R2,2*%
%TO.N,GND*%
%TA.AperFunction,SMDPad,CuDef*%
G36*
G01*
X100955000Y10070000D02*
X99705000Y10070000D01*
G75*
G02*
X99455000Y10320000I0J250000D01*
G01*
X99455000Y11120000D01*
G75*
G02*
X99705000Y11370000I250000J0D01*
G01*
X100955000Y11370000D01*
G75*
G02*
X101205000Y11120000I0J-250000D01*
G01*
X101205000Y10320000D01*
G75*
G02*
X100955000Y10070000I-250000J0D01*
G01*
G37*
%TD.AperFunction*%
%TD*%
%TO.P,R1,2*%
%TO.N,Net-(Q1-Pad1)*%
%TA.AperFunction,SMDPad,CuDef*%
G36*
G01*
X103770000Y4455000D02*
X103770000Y5705000D01*
G75*
G02*
X104020000Y5955000I250000J0D01*
G01*
X104820000Y5955000D01*
G75*
G02*
X105070000Y5705000I0J-250000D01*
G01*
X105070000Y4455000D01*
G75*
G02*
X104820000Y4205000I-250000J0D01*
G01*
X104020000Y4205000D01*
G75*
G02*
X103770000Y4455000I0J250000D01*
G01*
G37*
%TD.AperFunction*%
%TO.P,R1,1*%
%TO.N,Net-(Q2-Pad2)*%
%TA.AperFunction,SMDPad,CuDef*%
G36*
G01*
X100670000Y4455000D02*
X100670000Y5705000D01*
G75*
G02*
X100920000Y5955000I250000J0D01*
G01*
X101720000Y5955000D01*
G75*
G02*
X101970000Y5705000I0J-250000D01*
G01*
X101970000Y4455000D01*
G75*
G02*
X101720000Y4205000I-250000J0D01*
G01*
X100920000Y4205000D01*
G75*
G02*
X100670000Y4455000I0J250000D01*
G01*
G37*
%TD.AperFunction*%
%TD*%
D27*
%TO.P,Q10,3*%
%TO.N,/AVR MCU/SHORT*%
X100330000Y53070000D03*
%TO.P,Q10,2*%
%TO.N,GNDPWR*%
X99380000Y51070000D03*
%TO.P,Q10,1*%
%TO.N,Net-(Q10-Pad1)*%
X101280000Y51070000D03*
%TD*%
D28*
%TO.P,Q9,3*%
%TO.N,/AVR MCU/RPM*%
X58960000Y52070000D03*
%TO.P,Q9,2*%
%TO.N,GNDPWR*%
X60960000Y51120000D03*
%TO.P,Q9,1*%
%TO.N,Net-(Q9-Pad1)*%
X60960000Y53020000D03*
%TD*%
%TO.P,Q8,3*%
%TO.N,+12P*%
X51800000Y62230000D03*
%TO.P,Q8,2*%
%TO.N,/H-bridge/~OVP*%
X49800000Y63180000D03*
%TO.P,Q8,1*%
%TO.N,Net-(Q8-Pad1)*%
X49800000Y61280000D03*
%TD*%
%TO.P,Q7,3*%
%TO.N,/REL4*%
X116300000Y21590000D03*
%TO.P,Q7,2*%
%TO.N,GND*%
X114300000Y22540000D03*
%TO.P,Q7,1*%
%TO.N,Net-(Q7-Pad1)*%
X114300000Y20640000D03*
%TD*%
%TO.P,Q6,3*%
%TO.N,/REL3*%
X116300000Y26670000D03*
%TO.P,Q6,2*%
%TO.N,GND*%
X114300000Y27620000D03*
%TO.P,Q6,1*%
%TO.N,Net-(Q6-Pad1)*%
X114300000Y25720000D03*
%TD*%
%TO.P,Q5,3*%
%TO.N,/REL2*%
X116300000Y31750000D03*
%TO.P,Q5,2*%
%TO.N,GND*%
X114300000Y32700000D03*
%TO.P,Q5,1*%
%TO.N,Net-(Q5-Pad1)*%
X114300000Y30800000D03*
%TD*%
%TO.P,Q4,3*%
%TO.N,/REL1*%
X116300000Y36830000D03*
%TO.P,Q4,2*%
%TO.N,GND*%
X114300000Y37780000D03*
%TO.P,Q4,1*%
%TO.N,Net-(Q4-Pad1)*%
X114300000Y35880000D03*
%TD*%
D27*
%TO.P,Q3,3*%
%TO.N,Net-(J2-Pad2)*%
X114300000Y59960000D03*
%TO.P,Q3,2*%
%TO.N,GND*%
X115250000Y61960000D03*
%TO.P,Q3,1*%
%TO.N,Net-(Q3-Pad1)*%
X113350000Y61960000D03*
%TD*%
%TO.P,Q2,1*%
%TO.N,Net-(Q2-Pad1)*%
X98740000Y12970000D03*
%TO.P,Q2,2*%
%TO.N,Net-(Q2-Pad2)*%
X96840000Y12970000D03*
%TO.P,Q2,3*%
%TO.N,+12V*%
X97790000Y14970000D03*
%TD*%
D29*
%TO.P,Q1,1*%
%TO.N,Net-(Q1-Pad1)*%
X103530000Y7860000D03*
%TO.P,Q1,3*%
%TO.N,GND*%
X103530000Y12460000D03*
%TO.P,Q1,2*%
%TO.N,Net-(M1-Pad2)*%
X103530000Y10160000D03*
D30*
X109830000Y10160000D03*
%TD*%
D31*
%TO.P,PS1,1*%
%TO.N,GND*%
X48260000Y7620000D03*
D32*
%TO.P,PS1,2*%
%TO.N,+12V*%
X48260000Y10160000D03*
%TO.P,PS1,3*%
%TO.N,GNDPWR*%
X48260000Y12700000D03*
%TO.P,PS1,4*%
%TO.N,Net-(PS1-Pad4)*%
X48260000Y15240000D03*
%TD*%
D13*
%TO.P,M1,2*%
%TO.N,Net-(M1-Pad2)*%
X120650000Y12700000D03*
%TO.P,M1,1*%
%TO.N,+12V*%
%TA.AperFunction,ComponentPad*%
G36*
G01*
X119804999Y16110000D02*
X121495001Y16110000D01*
G75*
G02*
X121745000Y15860001I0J-249999D01*
G01*
X121745000Y14619999D01*
G75*
G02*
X121495001Y14370000I-249999J0D01*
G01*
X119804999Y14370000D01*
G75*
G02*
X119555000Y14619999I0J249999D01*
G01*
X119555000Y15860001D01*
G75*
G02*
X119804999Y16110000I249999J0D01*
G01*
G37*
%TD.AperFunction*%
%TD*%
%TO.P,J17,3*%
%TO.N,GNDPWR*%
X74930000Y27940000D03*
%TO.P,J17,2*%
%TO.N,/AVR MCU/ADC1_ACS712*%
X74930000Y30480000D03*
%TO.P,J17,1*%
%TO.N,+5P*%
%TA.AperFunction,ComponentPad*%
G36*
G01*
X74084999Y33890000D02*
X75775001Y33890000D01*
G75*
G02*
X76025000Y33640001I0J-249999D01*
G01*
X76025000Y32399999D01*
G75*
G02*
X75775001Y32150000I-249999J0D01*
G01*
X74084999Y32150000D01*
G75*
G02*
X73835000Y32399999I0J249999D01*
G01*
X73835000Y33640001D01*
G75*
G02*
X74084999Y33890000I249999J0D01*
G01*
G37*
%TD.AperFunction*%
%TD*%
%TO.P,J16,3*%
%TO.N,GNDPWR*%
X74930000Y41910000D03*
%TO.P,J16,2*%
%TO.N,/AVR MCU/ADC2_ACS712_2*%
X74930000Y39370000D03*
%TO.P,J16,1*%
%TO.N,+5P*%
%TA.AperFunction,ComponentPad*%
G36*
G01*
X75775001Y35960000D02*
X74084999Y35960000D01*
G75*
G02*
X73835000Y36209999I0J249999D01*
G01*
X73835000Y37450001D01*
G75*
G02*
X74084999Y37700000I249999J0D01*
G01*
X75775001Y37700000D01*
G75*
G02*
X76025000Y37450001I0J-249999D01*
G01*
X76025000Y36209999D01*
G75*
G02*
X75775001Y35960000I-249999J0D01*
G01*
G37*
%TD.AperFunction*%
%TD*%
D33*
%TO.P,J15,6*%
%TO.N,GNDPWR*%
X77470000Y20320000D03*
%TO.P,J15,4*%
%TO.N,/AVR MCU/MOSI*%
X77470000Y17780000D03*
%TO.P,J15,2*%
%TO.N,+5P*%
X77470000Y15240000D03*
%TO.P,J15,5*%
%TO.N,/AVR MCU/~RST*%
X80010000Y20320000D03*
%TO.P,J15,3*%
%TO.N,/AVR MCU/REL4*%
X80010000Y17780000D03*
%TO.P,J15,1*%
%TO.N,/AVR MCU/MISO*%
%TA.AperFunction,ComponentPad*%
G36*
G01*
X80860000Y15840000D02*
X80860000Y14640000D01*
G75*
G02*
X80610000Y14390000I-250000J0D01*
G01*
X79410000Y14390000D01*
G75*
G02*
X79160000Y14640000I0J250000D01*
G01*
X79160000Y15840000D01*
G75*
G02*
X79410000Y16090000I250000J0D01*
G01*
X80610000Y16090000D01*
G75*
G02*
X80860000Y15840000I0J-250000D01*
G01*
G37*
%TD.AperFunction*%
%TD*%
D18*
%TO.P,J7,1*%
%TO.N,Earth*%
X60960000Y95250000D03*
X60960000Y90250000D03*
%TD*%
D34*
%TO.P,J6,2*%
%TO.N,/H-bridge/DC+*%
X16660000Y88900000D03*
X12860000Y88900000D03*
X12860000Y76400000D03*
X16660000Y76400000D03*
%TO.P,J6,1*%
%TO.N,/H-bridge/DC-*%
X22860000Y88900000D03*
X26660000Y88900000D03*
X22860000Y76400000D03*
X26660000Y76400000D03*
%TD*%
D13*
%TO.P,J5,6*%
%TO.N,+12V*%
X120650000Y22860000D03*
%TO.P,J5,5*%
%TO.N,/REL4*%
X120650000Y25400000D03*
%TO.P,J5,4*%
%TO.N,/REL3*%
X120650000Y27940000D03*
%TO.P,J5,3*%
%TO.N,/REL2*%
X120650000Y30480000D03*
%TO.P,J5,2*%
%TO.N,/REL1*%
X120650000Y33020000D03*
%TO.P,J5,1*%
%TO.N,GND*%
%TA.AperFunction,ComponentPad*%
G36*
G01*
X119804999Y36430000D02*
X121495001Y36430000D01*
G75*
G02*
X121745000Y36180001I0J-249999D01*
G01*
X121745000Y34939999D01*
G75*
G02*
X121495001Y34690000I-249999J0D01*
G01*
X119804999Y34690000D01*
G75*
G02*
X119555000Y34939999I0J249999D01*
G01*
X119555000Y36180001D01*
G75*
G02*
X119804999Y36430000I249999J0D01*
G01*
G37*
%TD.AperFunction*%
%TD*%
%TO.P,J4,2*%
%TO.N,GND*%
X120650000Y41910000D03*
%TO.P,J4,1*%
%TO.N,/ENABLE*%
%TA.AperFunction,ComponentPad*%
G36*
G01*
X119804999Y45320000D02*
X121495001Y45320000D01*
G75*
G02*
X121745000Y45070001I0J-249999D01*
G01*
X121745000Y43829999D01*
G75*
G02*
X121495001Y43580000I-249999J0D01*
G01*
X119804999Y43580000D01*
G75*
G02*
X119555000Y43829999I0J249999D01*
G01*
X119555000Y45070001D01*
G75*
G02*
X119804999Y45320000I249999J0D01*
G01*
G37*
%TD.AperFunction*%
%TD*%
%TO.P,J3,4*%
%TO.N,Net-(J3-Pad4)*%
X120650000Y67310000D03*
%TO.P,J3,3*%
%TO.N,/RX*%
X120650000Y69850000D03*
%TO.P,J3,2*%
%TO.N,/TX*%
X120650000Y72390000D03*
%TO.P,J3,1*%
%TO.N,/3V3_UART*%
%TA.AperFunction,ComponentPad*%
G36*
G01*
X119804999Y75800000D02*
X121495001Y75800000D01*
G75*
G02*
X121745000Y75550001I0J-249999D01*
G01*
X121745000Y74309999D01*
G75*
G02*
X121495001Y74060000I-249999J0D01*
G01*
X119804999Y74060000D01*
G75*
G02*
X119555000Y74309999I0J249999D01*
G01*
X119555000Y75550001D01*
G75*
G02*
X119804999Y75800000I249999J0D01*
G01*
G37*
%TD.AperFunction*%
%TD*%
%TO.P,J2,3*%
%TO.N,+12V*%
X120650000Y54610000D03*
%TO.P,J2,2*%
%TO.N,Net-(J2-Pad2)*%
X120650000Y57150000D03*
%TO.P,J2,1*%
%TO.N,GND*%
%TA.AperFunction,ComponentPad*%
G36*
G01*
X119804999Y60560000D02*
X121495001Y60560000D01*
G75*
G02*
X121745000Y60310001I0J-249999D01*
G01*
X121745000Y59069999D01*
G75*
G02*
X121495001Y58820000I-249999J0D01*
G01*
X119804999Y58820000D01*
G75*
G02*
X119555000Y59069999I0J249999D01*
G01*
X119555000Y60310001D01*
G75*
G02*
X119804999Y60560000I249999J0D01*
G01*
G37*
%TD.AperFunction*%
%TD*%
D17*
%TO.P,J1,2*%
%TO.N,GND*%
X35560000Y7620000D03*
%TO.P,J1,1*%
%TO.N,+12V*%
%TA.AperFunction,ComponentPad*%
G36*
G01*
X38970000Y8465001D02*
X38970000Y6774999D01*
G75*
G02*
X38720001Y6525000I-249999J0D01*
G01*
X37479999Y6525000D01*
G75*
G02*
X37230000Y6774999I0J249999D01*
G01*
X37230000Y8465001D01*
G75*
G02*
X37479999Y8715000I249999J0D01*
G01*
X38720001Y8715000D01*
G75*
G02*
X38970000Y8465001I0J-249999D01*
G01*
G37*
%TD.AperFunction*%
%TD*%
D28*
%TO.P,D6,3*%
%TO.N,/AVR MCU/VSENSE*%
X49530000Y32385000D03*
%TO.P,D6,2*%
%TO.N,+5P*%
X47530000Y33335000D03*
%TO.P,D6,1*%
%TO.N,GNDPWR*%
X47530000Y31435000D03*
%TD*%
D35*
%TO.P,D5,2*%
%TO.N,Net-(D5-Pad2)*%
X118110000Y88010000D03*
%TO.P,D5,1*%
%TO.N,Net-(D5-Pad1)*%
X118110000Y84710000D03*
%TD*%
D36*
%TO.P,D4,2*%
%TO.N,+12P*%
X95250000Y77470000D03*
D37*
%TO.P,D4,1*%
%TO.N,Net-(C15-Pad1)*%
X95250000Y87630000D03*
%TD*%
D38*
%TO.P,D3,2*%
%TO.N,Net-(C14-Pad2)*%
X36830000Y87630000D03*
D39*
%TO.P,D3,1*%
%TO.N,Net-(D3-Pad1)*%
X52070000Y87630000D03*
%TD*%
D36*
%TO.P,D2,2*%
%TO.N,+12P*%
X76200000Y77470000D03*
D37*
%TO.P,D2,1*%
%TO.N,Net-(C12-Pad1)*%
X76200000Y87630000D03*
%TD*%
D38*
%TO.P,D1,2*%
%TO.N,/H-bridge/DC+*%
X11430000Y69850000D03*
D39*
%TO.P,D1,1*%
%TO.N,/H-bridge/DC-*%
X26670000Y69850000D03*
%TD*%
%TO.P,C32,2*%
%TO.N,GNDPWR*%
%TA.AperFunction,SMDPad,CuDef*%
G36*
G01*
X79359999Y29580000D02*
X80660001Y29580000D01*
G75*
G02*
X80910000Y29330001I0J-249999D01*
G01*
X80910000Y28504999D01*
G75*
G02*
X80660001Y28255000I-249999J0D01*
G01*
X79359999Y28255000D01*
G75*
G02*
X79110000Y28504999I0J249999D01*
G01*
X79110000Y29330001D01*
G75*
G02*
X79359999Y29580000I249999J0D01*
G01*
G37*
%TD.AperFunction*%
%TO.P,C32,1*%
%TO.N,+5P*%
%TA.AperFunction,SMDPad,CuDef*%
G36*
G01*
X79359999Y32705000D02*
X80660001Y32705000D01*
G75*
G02*
X80910000Y32455001I0J-249999D01*
G01*
X80910000Y31629999D01*
G75*
G02*
X80660001Y31380000I-249999J0D01*
G01*
X79359999Y31380000D01*
G75*
G02*
X79110000Y31629999I0J249999D01*
G01*
X79110000Y32455001D01*
G75*
G02*
X79359999Y32705000I249999J0D01*
G01*
G37*
%TD.AperFunction*%
%TD*%
%TO.P,C31,2*%
%TO.N,GNDPWR*%
%TA.AperFunction,SMDPad,CuDef*%
G36*
G01*
X78120001Y40270000D02*
X76819999Y40270000D01*
G75*
G02*
X76570000Y40519999I0J249999D01*
G01*
X76570000Y41345001D01*
G75*
G02*
X76819999Y41595000I249999J0D01*
G01*
X78120001Y41595000D01*
G75*
G02*
X78370000Y41345001I0J-249999D01*
G01*
X78370000Y40519999D01*
G75*
G02*
X78120001Y40270000I-249999J0D01*
G01*
G37*
%TD.AperFunction*%
%TO.P,C31,1*%
%TO.N,+5P*%
%TA.AperFunction,SMDPad,CuDef*%
G36*
G01*
X78120001Y37145000D02*
X76819999Y37145000D01*
G75*
G02*
X76570000Y37394999I0J249999D01*
G01*
X76570000Y38220001D01*
G75*
G02*
X76819999Y38470000I249999J0D01*
G01*
X78120001Y38470000D01*
G75*
G02*
X78370000Y38220001I0J-249999D01*
G01*
X78370000Y37394999D01*
G75*
G02*
X78120001Y37145000I-249999J0D01*
G01*
G37*
%TD.AperFunction*%
%TD*%
%TO.P,C30,2*%
%TO.N,GNDPWR*%
%TA.AperFunction,SMDPad,CuDef*%
G36*
G01*
X62600000Y29860001D02*
X62600000Y28559999D01*
G75*
G02*
X62350001Y28310000I-249999J0D01*
G01*
X61524999Y28310000D01*
G75*
G02*
X61275000Y28559999I0J249999D01*
G01*
X61275000Y29860001D01*
G75*
G02*
X61524999Y30110000I249999J0D01*
G01*
X62350001Y30110000D01*
G75*
G02*
X62600000Y29860001I0J-249999D01*
G01*
G37*
%TD.AperFunction*%
%TO.P,C30,1*%
%TO.N,/AVR MCU/ADC0_VSENSE*%
%TA.AperFunction,SMDPad,CuDef*%
G36*
G01*
X65725000Y29860001D02*
X65725000Y28559999D01*
G75*
G02*
X65475001Y28310000I-249999J0D01*
G01*
X64649999Y28310000D01*
G75*
G02*
X64400000Y28559999I0J249999D01*
G01*
X64400000Y29860001D01*
G75*
G02*
X64649999Y30110000I249999J0D01*
G01*
X65475001Y30110000D01*
G75*
G02*
X65725000Y29860001I0J-249999D01*
G01*
G37*
%TD.AperFunction*%
%TD*%
%TO.P,C29,2*%
%TO.N,GNDPWR*%
%TA.AperFunction,SMDPad,CuDef*%
G36*
G01*
X76819999Y29580000D02*
X78120001Y29580000D01*
G75*
G02*
X78370000Y29330001I0J-249999D01*
G01*
X78370000Y28504999D01*
G75*
G02*
X78120001Y28255000I-249999J0D01*
G01*
X76819999Y28255000D01*
G75*
G02*
X76570000Y28504999I0J249999D01*
G01*
X76570000Y29330001D01*
G75*
G02*
X76819999Y29580000I249999J0D01*
G01*
G37*
%TD.AperFunction*%
%TO.P,C29,1*%
%TO.N,/AVR MCU/ADC1_ACS712*%
%TA.AperFunction,SMDPad,CuDef*%
G36*
G01*
X76819999Y32705000D02*
X78120001Y32705000D01*
G75*
G02*
X78370000Y32455001I0J-249999D01*
G01*
X78370000Y31629999D01*
G75*
G02*
X78120001Y31380000I-249999J0D01*
G01*
X76819999Y31380000D01*
G75*
G02*
X76570000Y31629999I0J249999D01*
G01*
X76570000Y32455001D01*
G75*
G02*
X76819999Y32705000I249999J0D01*
G01*
G37*
%TD.AperFunction*%
%TD*%
%TO.P,C28,2*%
%TO.N,GNDPWR*%
%TA.AperFunction,SMDPad,CuDef*%
G36*
G01*
X62600000Y33670001D02*
X62600000Y32369999D01*
G75*
G02*
X62350001Y32120000I-249999J0D01*
G01*
X61524999Y32120000D01*
G75*
G02*
X61275000Y32369999I0J249999D01*
G01*
X61275000Y33670001D01*
G75*
G02*
X61524999Y33920000I249999J0D01*
G01*
X62350001Y33920000D01*
G75*
G02*
X62600000Y33670001I0J-249999D01*
G01*
G37*
%TD.AperFunction*%
%TO.P,C28,1*%
%TO.N,/AVR MCU/ADC2_ACS712_2*%
%TA.AperFunction,SMDPad,CuDef*%
G36*
G01*
X65725000Y33670001D02*
X65725000Y32369999D01*
G75*
G02*
X65475001Y32120000I-249999J0D01*
G01*
X64649999Y32120000D01*
G75*
G02*
X64400000Y32369999I0J249999D01*
G01*
X64400000Y33670001D01*
G75*
G02*
X64649999Y33920000I249999J0D01*
G01*
X65475001Y33920000D01*
G75*
G02*
X65725000Y33670001I0J-249999D01*
G01*
G37*
%TD.AperFunction*%
%TD*%
%TO.P,C27,2*%
%TO.N,GNDPWR*%
%TA.AperFunction,SMDPad,CuDef*%
G36*
G01*
X76819999Y43550000D02*
X78120001Y43550000D01*
G75*
G02*
X78370000Y43300001I0J-249999D01*
G01*
X78370000Y42474999D01*
G75*
G02*
X78120001Y42225000I-249999J0D01*
G01*
X76819999Y42225000D01*
G75*
G02*
X76570000Y42474999I0J249999D01*
G01*
X76570000Y43300001D01*
G75*
G02*
X76819999Y43550000I249999J0D01*
G01*
G37*
%TD.AperFunction*%
%TO.P,C27,1*%
%TO.N,/AVR MCU/ADC3_NTC1*%
%TA.AperFunction,SMDPad,CuDef*%
G36*
G01*
X76819999Y46675000D02*
X78120001Y46675000D01*
G75*
G02*
X78370000Y46425001I0J-249999D01*
G01*
X78370000Y45599999D01*
G75*
G02*
X78120001Y45350000I-249999J0D01*
G01*
X76819999Y45350000D01*
G75*
G02*
X76570000Y45599999I0J249999D01*
G01*
X76570000Y46425001D01*
G75*
G02*
X76819999Y46675000I249999J0D01*
G01*
G37*
%TD.AperFunction*%
%TD*%
%TO.P,C26,2*%
%TO.N,GNDPWR*%
%TA.AperFunction,SMDPad,CuDef*%
G36*
G01*
X70500001Y24737500D02*
X69199999Y24737500D01*
G75*
G02*
X68950000Y24987499I0J249999D01*
G01*
X68950000Y25812501D01*
G75*
G02*
X69199999Y26062500I249999J0D01*
G01*
X70500001Y26062500D01*
G75*
G02*
X70750000Y25812501I0J-249999D01*
G01*
X70750000Y24987499D01*
G75*
G02*
X70500001Y24737500I-249999J0D01*
G01*
G37*
%TD.AperFunction*%
%TO.P,C26,1*%
%TO.N,Net-(C26-Pad1)*%
%TA.AperFunction,SMDPad,CuDef*%
G36*
G01*
X70500001Y21612500D02*
X69199999Y21612500D01*
G75*
G02*
X68950000Y21862499I0J249999D01*
G01*
X68950000Y22687501D01*
G75*
G02*
X69199999Y22937500I249999J0D01*
G01*
X70500001Y22937500D01*
G75*
G02*
X70750000Y22687501I0J-249999D01*
G01*
X70750000Y21862499D01*
G75*
G02*
X70500001Y21612500I-249999J0D01*
G01*
G37*
%TD.AperFunction*%
%TD*%
%TO.P,C25,2*%
%TO.N,GNDPWR*%
%TA.AperFunction,SMDPad,CuDef*%
G36*
G01*
X47890000Y23479999D02*
X47890000Y24780001D01*
G75*
G02*
X48139999Y25030000I249999J0D01*
G01*
X48965001Y25030000D01*
G75*
G02*
X49215000Y24780001I0J-249999D01*
G01*
X49215000Y23479999D01*
G75*
G02*
X48965001Y23230000I-249999J0D01*
G01*
X48139999Y23230000D01*
G75*
G02*
X47890000Y23479999I0J249999D01*
G01*
G37*
%TD.AperFunction*%
%TO.P,C25,1*%
%TO.N,Net-(C25-Pad1)*%
%TA.AperFunction,SMDPad,CuDef*%
G36*
G01*
X44765000Y23479999D02*
X44765000Y24780001D01*
G75*
G02*
X45014999Y25030000I249999J0D01*
G01*
X45840001Y25030000D01*
G75*
G02*
X46090000Y24780001I0J-249999D01*
G01*
X46090000Y23479999D01*
G75*
G02*
X45840001Y23230000I-249999J0D01*
G01*
X45014999Y23230000D01*
G75*
G02*
X44765000Y23479999I0J249999D01*
G01*
G37*
%TD.AperFunction*%
%TD*%
%TO.P,C24,2*%
%TO.N,GNDPWR*%
%TA.AperFunction,SMDPad,CuDef*%
G36*
G01*
X64400000Y26019999D02*
X64400000Y27320001D01*
G75*
G02*
X64649999Y27570000I249999J0D01*
G01*
X65475001Y27570000D01*
G75*
G02*
X65725000Y27320001I0J-249999D01*
G01*
X65725000Y26019999D01*
G75*
G02*
X65475001Y25770000I-249999J0D01*
G01*
X64649999Y25770000D01*
G75*
G02*
X64400000Y26019999I0J249999D01*
G01*
G37*
%TD.AperFunction*%
%TO.P,C24,1*%
%TO.N,+5P*%
%TA.AperFunction,SMDPad,CuDef*%
G36*
G01*
X61275000Y26019999D02*
X61275000Y27320001D01*
G75*
G02*
X61524999Y27570000I249999J0D01*
G01*
X62350001Y27570000D01*
G75*
G02*
X62600000Y27320001I0J-249999D01*
G01*
X62600000Y26019999D01*
G75*
G02*
X62350001Y25770000I-249999J0D01*
G01*
X61524999Y25770000D01*
G75*
G02*
X61275000Y26019999I0J249999D01*
G01*
G37*
%TD.AperFunction*%
%TD*%
%TO.P,C23,2*%
%TO.N,GNDPWR*%
%TA.AperFunction,SMDPad,CuDef*%
G36*
G01*
X53355001Y17410000D02*
X52054999Y17410000D01*
G75*
G02*
X51805000Y17659999I0J249999D01*
G01*
X51805000Y18485001D01*
G75*
G02*
X52054999Y18735000I249999J0D01*
G01*
X53355001Y18735000D01*
G75*
G02*
X53605000Y18485001I0J-249999D01*
G01*
X53605000Y17659999D01*
G75*
G02*
X53355001Y17410000I-249999J0D01*
G01*
G37*
%TD.AperFunction*%
%TO.P,C23,1*%
%TO.N,Net-(C23-Pad1)*%
%TA.AperFunction,SMDPad,CuDef*%
G36*
G01*
X53355001Y14285000D02*
X52054999Y14285000D01*
G75*
G02*
X51805000Y14534999I0J249999D01*
G01*
X51805000Y15360001D01*
G75*
G02*
X52054999Y15610000I249999J0D01*
G01*
X53355001Y15610000D01*
G75*
G02*
X53605000Y15360001I0J-249999D01*
G01*
X53605000Y14534999D01*
G75*
G02*
X53355001Y14285000I-249999J0D01*
G01*
G37*
%TD.AperFunction*%
%TD*%
%TO.P,C22,2*%
%TO.N,GNDPWR*%
%TA.AperFunction,SMDPad,CuDef*%
G36*
G01*
X52054999Y20982500D02*
X53355001Y20982500D01*
G75*
G02*
X53605000Y20732501I0J-249999D01*
G01*
X53605000Y19907499D01*
G75*
G02*
X53355001Y19657500I-249999J0D01*
G01*
X52054999Y19657500D01*
G75*
G02*
X51805000Y19907499I0J249999D01*
G01*
X51805000Y20732501D01*
G75*
G02*
X52054999Y20982500I249999J0D01*
G01*
G37*
%TD.AperFunction*%
%TO.P,C22,1*%
%TO.N,Net-(C22-Pad1)*%
%TA.AperFunction,SMDPad,CuDef*%
G36*
G01*
X52054999Y24107500D02*
X53355001Y24107500D01*
G75*
G02*
X53605000Y23857501I0J-249999D01*
G01*
X53605000Y23032499D01*
G75*
G02*
X53355001Y22782500I-249999J0D01*
G01*
X52054999Y22782500D01*
G75*
G02*
X51805000Y23032499I0J249999D01*
G01*
X51805000Y23857501D01*
G75*
G02*
X52054999Y24107500I249999J0D01*
G01*
G37*
%TD.AperFunction*%
%TD*%
%TO.P,C21,2*%
%TO.N,GNDPWR*%
%TA.AperFunction,SMDPad,CuDef*%
G36*
G01*
X62600000Y22240001D02*
X62600000Y20939999D01*
G75*
G02*
X62350001Y20690000I-249999J0D01*
G01*
X61524999Y20690000D01*
G75*
G02*
X61275000Y20939999I0J249999D01*
G01*
X61275000Y22240001D01*
G75*
G02*
X61524999Y22490000I249999J0D01*
G01*
X62350001Y22490000D01*
G75*
G02*
X62600000Y22240001I0J-249999D01*
G01*
G37*
%TD.AperFunction*%
%TO.P,C21,1*%
%TO.N,+5P*%
%TA.AperFunction,SMDPad,CuDef*%
G36*
G01*
X65725000Y22240001D02*
X65725000Y20939999D01*
G75*
G02*
X65475001Y20690000I-249999J0D01*
G01*
X64649999Y20690000D01*
G75*
G02*
X64400000Y20939999I0J249999D01*
G01*
X64400000Y22240001D01*
G75*
G02*
X64649999Y22490000I249999J0D01*
G01*
X65475001Y22490000D01*
G75*
G02*
X65725000Y22240001I0J-249999D01*
G01*
G37*
%TD.AperFunction*%
%TD*%
%TO.P,C20,2*%
%TO.N,GNDPWR*%
%TA.AperFunction,SMDPad,CuDef*%
G36*
G01*
X42810000Y23479999D02*
X42810000Y24780001D01*
G75*
G02*
X43059999Y25030000I249999J0D01*
G01*
X43885001Y25030000D01*
G75*
G02*
X44135000Y24780001I0J-249999D01*
G01*
X44135000Y23479999D01*
G75*
G02*
X43885001Y23230000I-249999J0D01*
G01*
X43059999Y23230000D01*
G75*
G02*
X42810000Y23479999I0J249999D01*
G01*
G37*
%TD.AperFunction*%
%TO.P,C20,1*%
%TO.N,+12P*%
%TA.AperFunction,SMDPad,CuDef*%
G36*
G01*
X39685000Y23479999D02*
X39685000Y24780001D01*
G75*
G02*
X39934999Y25030000I249999J0D01*
G01*
X40760001Y25030000D01*
G75*
G02*
X41010000Y24780001I0J-249999D01*
G01*
X41010000Y23479999D01*
G75*
G02*
X40760001Y23230000I-249999J0D01*
G01*
X39934999Y23230000D01*
G75*
G02*
X39685000Y23479999I0J249999D01*
G01*
G37*
%TD.AperFunction*%
%TD*%
%TO.P,C19,2*%
%TO.N,GNDPWR*%
%TA.AperFunction,SMDPad,CuDef*%
G36*
G01*
X61610001Y45350000D02*
X60309999Y45350000D01*
G75*
G02*
X60060000Y45599999I0J249999D01*
G01*
X60060000Y46425001D01*
G75*
G02*
X60309999Y46675000I249999J0D01*
G01*
X61610001Y46675000D01*
G75*
G02*
X61860000Y46425001I0J-249999D01*
G01*
X61860000Y45599999D01*
G75*
G02*
X61610001Y45350000I-249999J0D01*
G01*
G37*
%TD.AperFunction*%
%TO.P,C19,1*%
%TO.N,/AVR MCU/~RST*%
%TA.AperFunction,SMDPad,CuDef*%
G36*
G01*
X61610001Y42225000D02*
X60309999Y42225000D01*
G75*
G02*
X60060000Y42474999I0J249999D01*
G01*
X60060000Y43300001D01*
G75*
G02*
X60309999Y43550000I249999J0D01*
G01*
X61610001Y43550000D01*
G75*
G02*
X61860000Y43300001I0J-249999D01*
G01*
X61860000Y42474999D01*
G75*
G02*
X61610001Y42225000I-249999J0D01*
G01*
G37*
%TD.AperFunction*%
%TD*%
%TO.P,C18,2*%
%TO.N,GNDPWR*%
%TA.AperFunction,SMDPad,CuDef*%
G36*
G01*
X97170001Y82180000D02*
X95869999Y82180000D01*
G75*
G02*
X95620000Y82429999I0J249999D01*
G01*
X95620000Y83255001D01*
G75*
G02*
X95869999Y83505000I249999J0D01*
G01*
X97170001Y83505000D01*
G75*
G02*
X97420000Y83255001I0J-249999D01*
G01*
X97420000Y82429999D01*
G75*
G02*
X97170001Y82180000I-249999J0D01*
G01*
G37*
%TD.AperFunction*%
%TO.P,C18,1*%
%TO.N,+12P*%
%TA.AperFunction,SMDPad,CuDef*%
G36*
G01*
X97170001Y79055000D02*
X95869999Y79055000D01*
G75*
G02*
X95620000Y79304999I0J249999D01*
G01*
X95620000Y80130001D01*
G75*
G02*
X95869999Y80380000I249999J0D01*
G01*
X97170001Y80380000D01*
G75*
G02*
X97420000Y80130001I0J-249999D01*
G01*
X97420000Y79304999D01*
G75*
G02*
X97170001Y79055000I-249999J0D01*
G01*
G37*
%TD.AperFunction*%
%TD*%
D26*
%TO.P,C17,2*%
%TO.N,GNDPWR*%
X101600000Y86050000D03*
D12*
%TO.P,C17,1*%
%TO.N,+12P*%
X101600000Y82550000D03*
%TD*%
%TO.P,C16,2*%
%TO.N,Net-(C15-Pad2)*%
%TA.AperFunction,SMDPad,CuDef*%
G36*
G01*
X98440001Y92340000D02*
X97139999Y92340000D01*
G75*
G02*
X96890000Y92589999I0J249999D01*
G01*
X96890000Y93415001D01*
G75*
G02*
X97139999Y93665000I249999J0D01*
G01*
X98440001Y93665000D01*
G75*
G02*
X98690000Y93415001I0J-249999D01*
G01*
X98690000Y92589999D01*
G75*
G02*
X98440001Y92340000I-249999J0D01*
G01*
G37*
%TD.AperFunction*%
%TO.P,C16,1*%
%TO.N,Net-(C15-Pad1)*%
%TA.AperFunction,SMDPad,CuDef*%
G36*
G01*
X98440001Y89215000D02*
X97139999Y89215000D01*
G75*
G02*
X96890000Y89464999I0J249999D01*
G01*
X96890000Y90290001D01*
G75*
G02*
X97139999Y90540000I249999J0D01*
G01*
X98440001Y90540000D01*
G75*
G02*
X98690000Y90290001I0J-249999D01*
G01*
X98690000Y89464999D01*
G75*
G02*
X98440001Y89215000I-249999J0D01*
G01*
G37*
%TD.AperFunction*%
%TD*%
D26*
%TO.P,C15,2*%
%TO.N,Net-(C15-Pad2)*%
X100330000Y95980000D03*
D12*
%TO.P,C15,1*%
%TO.N,Net-(C15-Pad1)*%
X100330000Y93980000D03*
%TD*%
D25*
%TO.P,C14,2*%
%TO.N,Net-(C14-Pad2)*%
X36830000Y81280000D03*
%TO.P,C14,1*%
%TO.N,Net-(C14-Pad1)*%
X51830000Y81280000D03*
%TD*%
%TO.P,C13,2*%
%TO.N,Net-(C12-Pad2)*%
%TA.AperFunction,SMDPad,CuDef*%
G36*
G01*
X79390001Y92340000D02*
X78089999Y92340000D01*
G75*
G02*
X77840000Y92589999I0J249999D01*
G01*
X77840000Y93415001D01*
G75*
G02*
X78089999Y93665000I249999J0D01*
G01*
X79390001Y93665000D01*
G75*
G02*
X79640000Y93415001I0J-249999D01*
G01*
X79640000Y92589999D01*
G75*
G02*
X79390001Y92340000I-249999J0D01*
G01*
G37*
%TD.AperFunction*%
%TO.P,C13,1*%
%TO.N,Net-(C12-Pad1)*%
%TA.AperFunction,SMDPad,CuDef*%
G36*
G01*
X79390001Y89215000D02*
X78089999Y89215000D01*
G75*
G02*
X77840000Y89464999I0J249999D01*
G01*
X77840000Y90290001D01*
G75*
G02*
X78089999Y90540000I249999J0D01*
G01*
X79390001Y90540000D01*
G75*
G02*
X79640000Y90290001I0J-249999D01*
G01*
X79640000Y89464999D01*
G75*
G02*
X79390001Y89215000I-249999J0D01*
G01*
G37*
%TD.AperFunction*%
%TD*%
D26*
%TO.P,C12,2*%
%TO.N,Net-(C12-Pad2)*%
X81280000Y95980000D03*
D12*
%TO.P,C12,1*%
%TO.N,Net-(C12-Pad1)*%
X81280000Y93980000D03*
%TD*%
D26*
%TO.P,C11,2*%
%TO.N,GNDPWR*%
X83820000Y84780000D03*
D12*
%TO.P,C11,1*%
%TO.N,+12P*%
X83820000Y81280000D03*
%TD*%
%TO.P,C10,2*%
%TO.N,GNDPWR*%
%TA.AperFunction,SMDPad,CuDef*%
G36*
G01*
X76850001Y83450000D02*
X75549999Y83450000D01*
G75*
G02*
X75300000Y83699999I0J249999D01*
G01*
X75300000Y84525001D01*
G75*
G02*
X75549999Y84775000I249999J0D01*
G01*
X76850001Y84775000D01*
G75*
G02*
X77100000Y84525001I0J-249999D01*
G01*
X77100000Y83699999D01*
G75*
G02*
X76850001Y83450000I-249999J0D01*
G01*
G37*
%TD.AperFunction*%
%TO.P,C10,1*%
%TO.N,+12P*%
%TA.AperFunction,SMDPad,CuDef*%
G36*
G01*
X76850001Y80325000D02*
X75549999Y80325000D01*
G75*
G02*
X75300000Y80574999I0J249999D01*
G01*
X75300000Y81400001D01*
G75*
G02*
X75549999Y81650000I249999J0D01*
G01*
X76850001Y81650000D01*
G75*
G02*
X77100000Y81400001I0J-249999D01*
G01*
X77100000Y80574999D01*
G75*
G02*
X76850001Y80325000I-249999J0D01*
G01*
G37*
%TD.AperFunction*%
%TD*%
D40*
%TO.P,C9,2*%
%TO.N,/H-bridge/DC-*%
X21590000Y50800000D03*
D41*
%TO.P,C9,1*%
%TO.N,/H-bridge/DC+*%
X11590000Y50800000D03*
%TD*%
D40*
%TO.P,C8,2*%
%TO.N,/H-bridge/DC-*%
X21430000Y19050000D03*
D41*
%TO.P,C8,1*%
%TO.N,/H-bridge/DC+*%
X11430000Y19050000D03*
%TD*%
D25*
%TO.P,C7,2*%
%TO.N,/H-bridge/DC-*%
X34650000Y58420000D03*
%TO.P,C7,1*%
%TO.N,Earth*%
X57150000Y58420000D03*
%TD*%
%TO.P,C6,2*%
%TO.N,Earth*%
X57150000Y69850000D03*
%TO.P,C6,1*%
%TO.N,/H-bridge/DC+*%
X34650000Y69850000D03*
%TD*%
%TO.P,C5,2*%
%TO.N,GNDPWR*%
%TA.AperFunction,SMDPad,CuDef*%
G36*
G01*
X46090000Y69230001D02*
X46090000Y67929999D01*
G75*
G02*
X45840001Y67680000I-249999J0D01*
G01*
X45014999Y67680000D01*
G75*
G02*
X44765000Y67929999I0J249999D01*
G01*
X44765000Y69230001D01*
G75*
G02*
X45014999Y69480000I249999J0D01*
G01*
X45840001Y69480000D01*
G75*
G02*
X46090000Y69230001I0J-249999D01*
G01*
G37*
%TD.AperFunction*%
%TO.P,C5,1*%
%TO.N,+12P*%
%TA.AperFunction,SMDPad,CuDef*%
G36*
G01*
X49215000Y69230001D02*
X49215000Y67929999D01*
G75*
G02*
X48965001Y67680000I-249999J0D01*
G01*
X48139999Y67680000D01*
G75*
G02*
X47890000Y67929999I0J249999D01*
G01*
X47890000Y69230001D01*
G75*
G02*
X48139999Y69480000I249999J0D01*
G01*
X48965001Y69480000D01*
G75*
G02*
X49215000Y69230001I0J-249999D01*
G01*
G37*
%TD.AperFunction*%
%TD*%
%TO.P,C4,2*%
%TO.N,GNDPWR*%
%TA.AperFunction,SMDPad,CuDef*%
G36*
G01*
X98440001Y65670000D02*
X97139999Y65670000D01*
G75*
G02*
X96890000Y65919999I0J249999D01*
G01*
X96890000Y66745001D01*
G75*
G02*
X97139999Y66995000I249999J0D01*
G01*
X98440001Y66995000D01*
G75*
G02*
X98690000Y66745001I0J-249999D01*
G01*
X98690000Y65919999D01*
G75*
G02*
X98440001Y65670000I-249999J0D01*
G01*
G37*
%TD.AperFunction*%
%TO.P,C4,1*%
%TO.N,+5P*%
%TA.AperFunction,SMDPad,CuDef*%
G36*
G01*
X98440001Y62545000D02*
X97139999Y62545000D01*
G75*
G02*
X96890000Y62794999I0J249999D01*
G01*
X96890000Y63620001D01*
G75*
G02*
X97139999Y63870000I249999J0D01*
G01*
X98440001Y63870000D01*
G75*
G02*
X98690000Y63620001I0J-249999D01*
G01*
X98690000Y62794999D01*
G75*
G02*
X98440001Y62545000I-249999J0D01*
G01*
G37*
%TD.AperFunction*%
%TD*%
%TO.P,C3,2*%
%TO.N,/GND_UART*%
%TA.AperFunction,SMDPad,CuDef*%
G36*
G01*
X109839999Y75300000D02*
X111140001Y75300000D01*
G75*
G02*
X111390000Y75050001I0J-249999D01*
G01*
X111390000Y74224999D01*
G75*
G02*
X111140001Y73975000I-249999J0D01*
G01*
X109839999Y73975000D01*
G75*
G02*
X109590000Y74224999I0J249999D01*
G01*
X109590000Y75050001D01*
G75*
G02*
X109839999Y75300000I249999J0D01*
G01*
G37*
%TD.AperFunction*%
%TO.P,C3,1*%
%TO.N,/3V3_UART*%
%TA.AperFunction,SMDPad,CuDef*%
G36*
G01*
X109839999Y78425000D02*
X111140001Y78425000D01*
G75*
G02*
X111390000Y78175001I0J-249999D01*
G01*
X111390000Y77349999D01*
G75*
G02*
X111140001Y77100000I-249999J0D01*
G01*
X109839999Y77100000D01*
G75*
G02*
X109590000Y77349999I0J249999D01*
G01*
X109590000Y78175001D01*
G75*
G02*
X109839999Y78425000I249999J0D01*
G01*
G37*
%TD.AperFunction*%
%TD*%
%TO.P,C2,2*%
%TO.N,GND*%
%TA.AperFunction,SMDPad,CuDef*%
G36*
G01*
X45069999Y7990000D02*
X46370001Y7990000D01*
G75*
G02*
X46620000Y7740001I0J-249999D01*
G01*
X46620000Y6914999D01*
G75*
G02*
X46370001Y6665000I-249999J0D01*
G01*
X45069999Y6665000D01*
G75*
G02*
X44820000Y6914999I0J249999D01*
G01*
X44820000Y7740001D01*
G75*
G02*
X45069999Y7990000I249999J0D01*
G01*
G37*
%TD.AperFunction*%
%TO.P,C2,1*%
%TO.N,+12V*%
%TA.AperFunction,SMDPad,CuDef*%
G36*
G01*
X45069999Y11115000D02*
X46370001Y11115000D01*
G75*
G02*
X46620000Y10865001I0J-249999D01*
G01*
X46620000Y10039999D01*
G75*
G02*
X46370001Y9790000I-249999J0D01*
G01*
X45069999Y9790000D01*
G75*
G02*
X44820000Y10039999I0J249999D01*
G01*
X44820000Y10865001D01*
G75*
G02*
X45069999Y11115000I249999J0D01*
G01*
G37*
%TD.AperFunction*%
%TD*%
D23*
%TO.P,C1,2*%
%TO.N,GND*%
X34370000Y16510000D03*
D42*
%TO.P,C1,1*%
%TO.N,+12V*%
X39370000Y16510000D03*
%TD*%
D43*
%TO.N,GND*%
X48260000Y3810000D03*
X101600000Y15240000D03*
X104140000Y15240000D03*
X109855000Y21590000D03*
X109855000Y23470000D03*
X109855000Y26770000D03*
X109855000Y28550000D03*
X109855000Y31850000D03*
X109855000Y33630000D03*
X109855000Y36930000D03*
X120650000Y62230000D03*
X117830000Y38380000D03*
%TO.N,+12V*%
X34290000Y22860000D03*
X78740000Y62230000D03*
%TO.N,GNDPWR*%
X96520000Y52070000D03*
X96520000Y71120000D03*
X81280000Y26670000D03*
X80010000Y40640000D03*
%TO.N,+5P*%
X72316496Y20246496D03*
X71120000Y61600020D03*
X71120000Y48260000D03*
X79375000Y36830000D03*
%TO.N,+12P*%
X39370000Y27940000D03*
X78740000Y77470000D03*
X78740000Y75190019D03*
X93980000Y74930000D03*
X43180000Y39370000D03*
X60960000Y59690000D03*
%TO.N,/AVR MCU/~RST*%
X82550000Y24130000D03*
X63500000Y44450000D03*
%TO.N,/AVR MCU/ADC0_VSENSE*%
X69850000Y27940000D03*
X52070000Y26670000D03*
%TO.N,Net-(D5-Pad2)*%
X120650000Y81280000D03*
X115570000Y48260000D03*
%TO.N,/AVR MCU/VSENSE*%
X52070000Y29210000D03*
X52070000Y35560000D03*
%TO.N,/AVR MCU/MOSI*%
X73660000Y21590000D03*
X73660000Y13970000D03*
%TO.N,/AVR MCU/REL4*%
X72390000Y17780000D03*
X72390000Y11430000D03*
%TO.N,Net-(Q2-Pad1)*%
X88900000Y62230000D03*
X88900000Y19050000D03*
X96520000Y19050000D03*
X96520000Y7620000D03*
%TO.N,/AVR MCU/RPM*%
X52070000Y50800000D03*
X52070000Y38100000D03*
%TO.N,Net-(R7-Pad2)*%
X50800000Y76200000D03*
X64770000Y76200000D03*
%TO.N,/AVR MCU/FAN*%
X68580000Y63500000D03*
X53340000Y11430000D03*
%TO.N,/AVR MCU/TX*%
X53340000Y45720000D03*
X93980000Y58420000D03*
X93980000Y72390000D03*
X67310000Y60960000D03*
%TO.N,/AVR MCU/RX*%
X55880000Y45720000D03*
X97790000Y55880000D03*
X97790000Y68580000D03*
X66040000Y55880000D03*
%TO.N,/AVR MCU/REL1*%
X93980000Y16510000D03*
X93980000Y40640000D03*
%TO.N,/AVR MCU/~SD*%
X84455000Y72390000D03*
X84455000Y6350000D03*
%TO.N,/H-bridge/IN1*%
X86360000Y74930000D03*
X86360000Y11430000D03*
%TO.N,/H-bridge/IN2*%
X90805000Y13970000D03*
X90805000Y72390000D03*
%TO.N,Net-(R42-Pad2)*%
X64770000Y91440000D03*
X107950000Y91440000D03*
%TO.N,/AVR MCU/~SHORT*%
X92710000Y10160000D03*
X92710000Y48260000D03*
%TO.N,/AVR MCU/~ENABLE*%
X57150000Y30480000D03*
X66040000Y49530000D03*
%TD*%
D44*
%TO.N,GND*%
X34370000Y8810000D02*
X35560000Y7620000D01*
X34370000Y16510000D02*
X34370000Y8810000D01*
X45720000Y3810000D02*
X36830000Y3810000D01*
X35560000Y5080000D02*
X35560000Y7620000D01*
X36830000Y3810000D02*
X35560000Y5080000D01*
D45*
X47967500Y7327500D02*
X48260000Y7620000D01*
X45720000Y7327500D02*
X47967500Y7327500D01*
X48260000Y6350000D02*
X48260000Y7620000D01*
X113700000Y33300000D02*
X114300000Y32700000D01*
X111760000Y33300000D02*
X113700000Y33300000D01*
X113700000Y28220000D02*
X114300000Y27620000D01*
X111760000Y28220000D02*
X113700000Y28220000D01*
X113954000Y22886000D02*
X114300000Y22540000D01*
X111760000Y22886000D02*
X113954000Y22886000D01*
X111760000Y38380000D02*
X113700000Y38380000D01*
X120650000Y36830000D02*
X120650000Y35560000D01*
X114300000Y38100000D02*
X114580000Y38380000D01*
X114300000Y37780000D02*
X114300000Y38100000D01*
X113700000Y38380000D02*
X114580000Y38380000D01*
X114580000Y38380000D02*
X116560000Y38380000D01*
X120370000Y38380000D02*
X120650000Y38100000D01*
X120650000Y38100000D02*
X120650000Y36830000D01*
X120650000Y41910000D02*
X120650000Y38100000D01*
X112040000Y38660000D02*
X111760000Y38380000D01*
X112040000Y44281362D02*
X112040000Y38660000D01*
X110601362Y45720000D02*
X112040000Y44281362D01*
X107950000Y45720000D02*
X110601362Y45720000D01*
X102070000Y12460000D02*
X100330000Y10720000D01*
X103530000Y12460000D02*
X102070000Y12460000D01*
X46990000Y5080000D02*
X48260000Y3810000D01*
D44*
X48260000Y6350000D02*
X46990000Y5080000D01*
X46990000Y5080000D02*
X45720000Y3810000D01*
D45*
X101600000Y15240000D02*
X104140000Y15240000D01*
X103530000Y14630000D02*
X104140000Y15240000D01*
X103530000Y12460000D02*
X103530000Y14630000D01*
X109855000Y21590000D02*
X109855000Y23470000D01*
X110439000Y22886000D02*
X109855000Y23470000D01*
X111760000Y22886000D02*
X110439000Y22886000D01*
X109855000Y26770000D02*
X109855000Y28550000D01*
X110185000Y28220000D02*
X109855000Y28550000D01*
X111760000Y28220000D02*
X110185000Y28220000D01*
X109855000Y31850000D02*
X109855000Y33630000D01*
X109855000Y36930000D02*
X109855000Y37465000D01*
X110770000Y38380000D02*
X111760000Y38380000D01*
X109855000Y37465000D02*
X110770000Y38380000D01*
X110185000Y33300000D02*
X109855000Y33630000D01*
X111760000Y33300000D02*
X110185000Y33300000D01*
X48260000Y3810000D02*
X48260000Y6350000D01*
X48260000Y3810000D02*
X45720000Y3810000D01*
X115520000Y62230000D02*
X115250000Y61960000D01*
X120650000Y62230000D02*
X115520000Y62230000D01*
X120650000Y59690000D02*
X120650000Y62230000D01*
X117830000Y38380000D02*
X120370000Y38380000D01*
X116560000Y38380000D02*
X117830000Y38380000D01*
D44*
%TO.N,+12V*%
X38100000Y7620000D02*
X39370000Y8890000D01*
D45*
X47967500Y10452500D02*
X48260000Y10160000D01*
X45720000Y10452500D02*
X47967500Y10452500D01*
X39662500Y10452500D02*
X39370000Y10160000D01*
X45720000Y10452500D02*
X39662500Y10452500D01*
D44*
X39370000Y10160000D02*
X39370000Y16510000D01*
X39370000Y8890000D02*
X39370000Y10160000D01*
D45*
X102590000Y22860000D02*
X102590000Y27940000D01*
X102590000Y27940000D02*
X102590000Y33020000D01*
X102590000Y33020000D02*
X102590000Y38100000D01*
X120650000Y19050000D02*
X120650000Y22860000D01*
X120650000Y17780000D02*
X120650000Y19050000D01*
X119380000Y17780000D02*
X120650000Y17780000D01*
X120650000Y15240000D02*
X120650000Y17780000D01*
X107950000Y58420000D02*
X106249999Y56719999D01*
X104270010Y52200010D02*
X106249999Y54179999D01*
X102590000Y39090000D02*
X104270010Y40770010D01*
X102590000Y38100000D02*
X102590000Y39090000D01*
X104270010Y40770010D02*
X104270010Y52200010D01*
X106249999Y56719999D02*
X106249999Y54179999D01*
X102590000Y22860000D02*
X102590000Y21870000D01*
X104140000Y20320000D02*
X104140000Y17780000D01*
X102590000Y21870000D02*
X104140000Y20320000D01*
X104140000Y17780000D02*
X119380000Y17780000D01*
X105410000Y60960000D02*
X107950000Y58420000D01*
X92710000Y60960000D02*
X105410000Y60960000D01*
X81280000Y67310000D02*
X86360000Y67310000D01*
X104140000Y17780000D02*
X100330000Y17780000D01*
X97790000Y14970000D02*
X97790000Y16510000D01*
X99060000Y17780000D02*
X100330000Y17780000D01*
X97790000Y16510000D02*
X99060000Y17780000D01*
X120219999Y54179999D02*
X106249999Y54179999D01*
X120650000Y54610000D02*
X120219999Y54179999D01*
X86360000Y67310000D02*
X92710000Y60960000D01*
X39370000Y17780000D02*
X34290000Y22860000D01*
X39370000Y16510000D02*
X39370000Y17780000D01*
X78740000Y62230000D02*
X78740000Y66040000D01*
X80010000Y67310000D02*
X81280000Y67310000D01*
X78740000Y66040000D02*
X80010000Y67310000D01*
%TO.N,/3V3_UART*%
X107657500Y77762500D02*
X107950000Y77470000D01*
X118110000Y77470000D02*
X120650000Y74930000D01*
X108242500Y77762500D02*
X107950000Y77470000D01*
X110490000Y77762500D02*
X108242500Y77762500D01*
X115557500Y77762500D02*
X115570000Y77750000D01*
X110490000Y77762500D02*
X113017500Y77762500D01*
X113030000Y77750000D02*
X117830000Y77750000D01*
X117830000Y77750000D02*
X118110000Y77470000D01*
X105410000Y67590000D02*
X105410000Y76200000D01*
X106680000Y77470000D02*
X107950000Y77470000D01*
X105410000Y76200000D02*
X106680000Y77470000D01*
%TO.N,GNDPWR*%
X44450000Y65975000D02*
X45720000Y65975000D01*
X45427500Y66267500D02*
X45720000Y65975000D01*
X45427500Y68580000D02*
X45427500Y66267500D01*
D46*
X44450000Y65975000D02*
X44450000Y61025000D01*
X45720000Y65975000D02*
X46990000Y65975000D01*
X69850000Y80140000D02*
X69850000Y81280000D01*
D45*
X69850000Y81280000D02*
X69850000Y81329940D01*
X76200000Y84112500D02*
X76200000Y82550000D01*
X71070060Y82550000D02*
X76200000Y82550000D01*
D46*
X89535000Y80075000D02*
X89535000Y81915000D01*
D45*
X89535000Y81915000D02*
X90170010Y82550010D01*
X96520010Y82842490D02*
X96520000Y82842500D01*
X69540000Y82550000D02*
X71070060Y82550000D01*
X67310000Y84780000D02*
X69540000Y82550000D01*
X69850000Y82240000D02*
X69540000Y82550000D01*
X69850000Y81280000D02*
X69850000Y82240000D01*
X90462500Y82842500D02*
X90170010Y82550010D01*
X96520000Y82842500D02*
X90462500Y82842500D01*
X67310000Y95250000D02*
X67310000Y84780000D01*
X86360000Y87320000D02*
X83820000Y84780000D01*
X86360000Y95250000D02*
X86360000Y87320000D01*
X86670000Y84780000D02*
X89535000Y81915000D01*
X83820000Y84780000D02*
X86670000Y84780000D01*
X43115000Y65975000D02*
X44450000Y65975000D01*
X40360000Y63220000D02*
X43115000Y65975000D01*
X69570000Y77470000D02*
X69570000Y74930000D01*
X69850000Y25400000D02*
X72390000Y25400000D01*
X69850000Y25400000D02*
X67310000Y25400000D01*
X72390000Y25400000D02*
X74930000Y25400000D01*
X77470000Y22860000D02*
X77470000Y20320000D01*
X74930000Y27940000D02*
X74930000Y25400000D01*
X77470000Y28917500D02*
X80010000Y28917500D01*
X49530000Y12700000D02*
X48260000Y12700000D01*
X50800000Y13970000D02*
X49530000Y12700000D01*
D46*
X88620000Y79160000D02*
X88620000Y76200000D01*
X89535000Y80075000D02*
X88620000Y79160000D01*
D45*
X76867500Y84780000D02*
X76200000Y84112500D01*
X83820000Y84780000D02*
X76867500Y84780000D01*
X50800000Y15240000D02*
X50800000Y13970000D01*
X100330000Y30480000D02*
X97958638Y30480000D01*
X97958638Y20320000D02*
X100330000Y20320000D01*
X96520000Y21758638D02*
X97958638Y20320000D01*
X96520000Y23961362D02*
X96520000Y21758638D01*
X100330000Y25400000D02*
X97958638Y25400000D01*
X100037500Y66332500D02*
X100330000Y66040000D01*
X97790000Y66332500D02*
X100037500Y66332500D01*
X40360000Y59970000D02*
X40360000Y63220000D01*
X60960000Y46990000D02*
X60960000Y46012500D01*
X61937500Y33020000D02*
X61937500Y35547500D01*
X99727500Y86050000D02*
X96520000Y82842500D01*
X101600000Y86050000D02*
X99727500Y86050000D01*
X76492500Y27940000D02*
X77470000Y28917500D01*
X74930000Y27940000D02*
X76492500Y27940000D01*
X96520000Y23961362D02*
X96520000Y25400000D01*
X96520000Y25400000D02*
X97958638Y25400000D01*
X74930000Y41910000D02*
X77470000Y41910000D01*
X77470000Y41910000D02*
X77470000Y42887500D01*
X77470000Y40932500D02*
X77470000Y41910000D01*
X77470000Y22860000D02*
X77470000Y25400000D01*
X77470000Y25400000D02*
X74930000Y25400000D01*
D44*
X31750000Y30480000D02*
X31750000Y33020000D01*
D45*
X50239990Y22299990D02*
X50800000Y22860000D01*
X50800000Y22860000D02*
X50800000Y19830002D01*
X40360000Y59410000D02*
X40360000Y58420000D01*
X40360000Y59970000D02*
X40360000Y59410000D01*
X40360000Y58420000D02*
X40360000Y54890000D01*
X61240000Y47980000D02*
X60960000Y48260000D01*
X63500000Y47980000D02*
X61240000Y47980000D01*
X60960000Y48260000D02*
X60960000Y46990000D01*
X60960000Y49530000D02*
X60960000Y48260000D01*
X60960000Y51120000D02*
X60960000Y49530000D01*
X61950000Y35560000D02*
X61950000Y37820000D01*
X61950000Y37820000D02*
X65275010Y41145010D01*
X61937500Y33020000D02*
X61937500Y29210000D01*
X64913638Y26670000D02*
X65062500Y26670000D01*
X62600000Y29210000D02*
X63500000Y28310000D01*
X61937500Y29210000D02*
X62600000Y29210000D01*
X65062500Y26670000D02*
X63500000Y26670000D01*
X63500000Y26670000D02*
X63500000Y22860000D01*
X63500000Y28310000D02*
X63500000Y26670000D01*
X66040000Y26670000D02*
X67310000Y25400000D01*
X65062500Y26670000D02*
X66040000Y26670000D01*
X60960000Y21590000D02*
X61937500Y21590000D01*
X59690000Y22860000D02*
X60960000Y21590000D01*
X62230000Y21590000D02*
X63500000Y22860000D01*
X61937500Y21590000D02*
X62230000Y21590000D01*
X40360000Y54890000D02*
X43180000Y52070000D01*
X43180000Y52070000D02*
X43180000Y49530000D01*
D46*
X69850000Y77750000D02*
X69570000Y77470000D01*
X69850000Y80140000D02*
X69850000Y77750000D01*
D45*
X100330000Y35560000D02*
X96520000Y35560000D01*
X97958638Y30480000D02*
X96520000Y30480000D01*
X96520000Y25400000D02*
X96520000Y30480000D01*
X101600000Y45720000D02*
X100330000Y45720000D01*
X102870000Y44450000D02*
X101600000Y45720000D01*
X102870000Y41910000D02*
X102870000Y44450000D01*
X101600000Y40640000D02*
X102870000Y41910000D01*
X97790000Y40640000D02*
X101600000Y40640000D01*
X96520000Y39370000D02*
X97790000Y40640000D01*
X96520000Y30480000D02*
X96520000Y39370000D01*
X69570000Y74930000D02*
X69850000Y74650000D01*
X69850000Y74650000D02*
X69850000Y71120000D01*
X99380000Y50669999D02*
X99380000Y51070000D01*
X100330000Y49719999D02*
X99380000Y50669999D01*
X100330000Y45720000D02*
X100330000Y49719999D01*
X50439989Y48770011D02*
X49680000Y49530000D01*
X60449989Y48770011D02*
X50439989Y48770011D01*
X60960000Y48260000D02*
X60449989Y48770011D01*
X97520000Y51070000D02*
X96520000Y52070000D01*
X99380000Y51070000D02*
X97520000Y51070000D01*
X96520000Y71120000D02*
X96139999Y70739999D01*
X92710000Y70359998D02*
X92329999Y70739999D01*
X92710000Y66040000D02*
X92710000Y70359998D01*
X93980000Y64770000D02*
X92710000Y66040000D01*
X97790000Y65670000D02*
X96890000Y64770000D01*
X97790000Y66332500D02*
X97790000Y65670000D01*
X96890000Y64770000D02*
X93980000Y64770000D01*
X96139999Y70739999D02*
X92329999Y70739999D01*
X52705000Y19050000D02*
X50800000Y19050000D01*
X50800000Y19050000D02*
X50800000Y15240000D01*
X50800000Y19830002D02*
X50800000Y19050000D01*
X52705000Y18072500D02*
X52705000Y19050000D01*
X52705000Y19050000D02*
X52705000Y20320000D01*
X56852002Y22860000D02*
X59690000Y22860000D01*
X56142012Y23569990D02*
X56852002Y22860000D01*
X55903872Y23569990D02*
X56142012Y23569990D01*
X54466352Y25007510D02*
X55903872Y23569990D01*
X51578648Y25007510D02*
X54466352Y25007510D01*
X50800000Y24228862D02*
X51578648Y25007510D01*
X50800000Y22860000D02*
X50800000Y24228862D01*
X73660000Y64770000D02*
X71120000Y64770000D01*
X69850000Y66040000D02*
X69850000Y71120000D01*
X71120000Y64770000D02*
X69850000Y66040000D01*
X70230001Y70739999D02*
X69850000Y71120000D01*
X92329999Y70739999D02*
X70230001Y70739999D01*
D44*
X41910000Y16510000D02*
X45720000Y12700000D01*
X45720000Y12700000D02*
X48260000Y12700000D01*
X41910000Y18902981D02*
X41910000Y16510000D01*
X31750000Y29062981D02*
X33581491Y27231490D01*
X33581491Y27231490D02*
X41910000Y18902981D01*
X31750000Y30480000D02*
X31750000Y29062981D01*
D45*
X80010000Y25400000D02*
X77470000Y25400000D01*
X80010000Y25400000D02*
X81280000Y26670000D01*
X96520000Y25400000D02*
X85090000Y25400000D01*
X83820000Y26670000D02*
X81280000Y26670000D01*
X85090000Y25400000D02*
X83820000Y26670000D01*
X77470000Y41910000D02*
X79375000Y41910000D01*
X80010000Y41275000D02*
X80010000Y40640000D01*
X79375000Y41910000D02*
X80010000Y41275000D01*
X65275010Y41145010D02*
X65275010Y46484990D01*
X63780000Y47980000D02*
X63500000Y47980000D01*
X65275010Y46484990D02*
X63780000Y47980000D01*
X44402510Y22299990D02*
X43472500Y23230000D01*
X43472500Y23230000D02*
X43472500Y24130000D01*
X47550010Y22299990D02*
X44402510Y22299990D01*
X48552500Y22567500D02*
X48820010Y22299990D01*
X48552500Y24130000D02*
X48552500Y22567500D01*
X48820010Y22299990D02*
X50239990Y22299990D01*
X47550010Y22299990D02*
X48820010Y22299990D01*
X47530000Y25152500D02*
X48552500Y24130000D01*
X47530000Y31435000D02*
X47530000Y25152500D01*
X43472500Y26327500D02*
X44450000Y27305000D01*
X43472500Y24130000D02*
X43472500Y26327500D01*
%TO.N,+5P*%
X80010000Y32042500D02*
X80010000Y33020000D01*
X80010000Y33020000D02*
X78740000Y34290000D01*
X76200000Y34290000D02*
X74930000Y33020000D01*
X78740000Y34290000D02*
X76200000Y34290000D01*
X43660001Y34770001D02*
X47290001Y34770001D01*
X43180000Y34290000D02*
X43660001Y34770001D01*
X43180000Y33020000D02*
X43180000Y34290000D01*
X97777500Y63220000D02*
X97790000Y63207500D01*
X95250000Y63220000D02*
X97777500Y63220000D01*
X100037500Y63207500D02*
X100330000Y63500000D01*
X97790000Y63207500D02*
X100037500Y63207500D01*
X74930000Y36830000D02*
X76492500Y36830000D01*
X74930000Y33020000D02*
X74930000Y36830000D01*
X59410000Y25120000D02*
X59690000Y25400000D01*
X57150000Y25120000D02*
X59410000Y25120000D01*
X61937500Y24142500D02*
X61950000Y24130000D01*
X61645000Y25400000D02*
X61937500Y25107500D01*
X59690000Y25400000D02*
X61645000Y25400000D01*
X61937500Y25107500D02*
X61937500Y24142500D01*
X61937500Y26670000D02*
X61937500Y25107500D01*
X65050000Y21602500D02*
X65062500Y21590000D01*
X65050000Y24130000D02*
X65050000Y21602500D01*
X65062500Y21590000D02*
X65062500Y21297500D01*
X66040000Y20320000D02*
X67310000Y20320000D01*
X65062500Y21297500D02*
X66040000Y20320000D01*
X102430010Y65335833D02*
X102430010Y77909990D01*
X100330000Y63500000D02*
X100594177Y63500000D01*
X100594177Y63500000D02*
X102430010Y65335833D01*
X101990020Y77470000D02*
X102430010Y77909990D01*
X100330000Y77470000D02*
X101990020Y77470000D01*
X102430010Y79570010D02*
X107950000Y85090000D01*
X102430010Y77909990D02*
X102430010Y79570010D01*
X77470000Y37807500D02*
X77470000Y36830000D01*
X76492500Y36830000D02*
X77470000Y36830000D01*
X72390000Y20320000D02*
X77470000Y15240000D01*
X67310000Y20320000D02*
X72390000Y20320000D01*
X72390000Y49530000D02*
X74930000Y49530000D01*
X71120000Y48260000D02*
X72390000Y49530000D01*
X82419990Y37969990D02*
X81280000Y36830000D01*
X82419990Y47120010D02*
X82419990Y37969990D01*
X81280000Y36830000D02*
X77470000Y36830000D01*
X80010000Y49530000D02*
X82419990Y47120010D01*
X74930000Y49530000D02*
X80010000Y49530000D01*
X74300020Y61600020D02*
X73006022Y61600020D01*
X75689989Y68069989D02*
X75689989Y62989989D01*
X87430099Y69339989D02*
X76959989Y69339989D01*
X73006022Y61600020D02*
X71120000Y61600020D01*
X75689989Y62989989D02*
X74300020Y61600020D01*
X76959989Y69339989D02*
X75689989Y68069989D01*
X93550088Y63220000D02*
X87430099Y69339989D01*
X95250000Y63220000D02*
X93550088Y63220000D01*
X81280000Y36830000D02*
X79375000Y36830000D01*
X72009999Y20552993D02*
X72316496Y20246496D01*
X72009999Y22479999D02*
X72009999Y20552993D01*
X73025000Y23495000D02*
X72009999Y22479999D01*
X75920000Y23495000D02*
X73025000Y23495000D01*
X47530000Y34530002D02*
X47290001Y34770001D01*
X47530000Y33335000D02*
X47530000Y34530002D01*
X56333774Y25120000D02*
X57150000Y25120000D01*
X53720001Y27733773D02*
X56333774Y25120000D01*
X53720001Y30734999D02*
X53720001Y27733773D01*
X49684999Y34770001D02*
X53720001Y30734999D01*
X47290001Y34770001D02*
X49684999Y34770001D01*
D46*
%TO.N,+12P*%
X93345000Y80075000D02*
X93345000Y78105000D01*
D45*
X96520000Y78740000D02*
X95250000Y77470000D01*
X96520000Y79717500D02*
X96520000Y78740000D01*
D46*
X75352500Y80140000D02*
X76200000Y80987500D01*
X73660000Y80140000D02*
X75352500Y80140000D01*
D45*
X76200000Y77470000D02*
X76200000Y80987500D01*
D46*
X93345000Y78105000D02*
X93980000Y77470000D01*
X93980000Y77470000D02*
X95250000Y77470000D01*
D45*
X83527500Y80987500D02*
X83820000Y81280000D01*
X76200000Y80987500D02*
X83527500Y80987500D01*
X98767500Y79717500D02*
X101600000Y82550000D01*
X96520000Y79717500D02*
X98767500Y79717500D01*
X48540000Y55880000D02*
X52070000Y55880000D01*
X53620000Y57430000D02*
X53620000Y58420000D01*
X52070000Y55880000D02*
X53620000Y57430000D01*
X53620000Y58420000D02*
X53620000Y61950000D01*
X51901362Y67310000D02*
X53620000Y65591362D01*
X51800000Y62230000D02*
X53340000Y62230000D01*
X53340000Y62230000D02*
X53620000Y62510000D01*
X53620000Y62510000D02*
X53620000Y61950000D01*
X53620000Y65591362D02*
X53620000Y62510000D01*
D46*
X48260000Y65975000D02*
X48260000Y67310000D01*
D45*
X51901362Y67310000D02*
X48260000Y67310000D01*
X48260000Y68287500D02*
X48552500Y68580000D01*
X48260000Y67310000D02*
X48260000Y68287500D01*
X76200000Y77470000D02*
X78740000Y77470000D01*
X78740000Y77470000D02*
X78740000Y75440010D01*
X78740000Y75440010D02*
X78740000Y75190019D01*
X95250000Y76200000D02*
X93980000Y74930000D01*
X95250000Y77470000D02*
X95250000Y76200000D01*
X48540000Y55880000D02*
X48540000Y53489990D01*
X47120010Y52070000D02*
X47120010Y44580010D01*
X48540000Y53489990D02*
X47120010Y52070000D01*
X43180000Y40640000D02*
X43180000Y39370000D01*
X47120010Y44580010D02*
X43180000Y40640000D01*
X53340000Y54610000D02*
X52070000Y55880000D01*
X59690000Y54610000D02*
X53340000Y54610000D01*
X60960000Y59690000D02*
X60960000Y55880000D01*
X60960000Y55880000D02*
X59690000Y54610000D01*
X40347500Y23152500D02*
X40347500Y24130000D01*
X43180000Y20320000D02*
X40347500Y23152500D01*
X45720000Y20320000D02*
X43180000Y20320000D01*
X39370000Y25107500D02*
X40347500Y24130000D01*
X39370000Y27940000D02*
X39370000Y25107500D01*
X40005000Y28575000D02*
X39370000Y27940000D01*
X43180000Y28575000D02*
X40005000Y28575000D01*
D44*
%TO.N,Earth*%
X57150000Y58420000D02*
X57150000Y69850000D01*
X60960000Y91440000D02*
X60960000Y95250000D01*
X60960000Y74930000D02*
X60960000Y91440000D01*
X57150000Y71120000D02*
X60960000Y74930000D01*
X57150000Y69850000D02*
X57150000Y71120000D01*
D47*
%TO.N,/H-bridge/DC+*%
X16660000Y88900000D02*
X16660000Y76400000D01*
X16660000Y76400000D02*
X12860000Y76400000D01*
X16660000Y88900000D02*
X12860000Y88900000D01*
D48*
X12860000Y88900000D02*
X12860000Y76400000D01*
D49*
X12860000Y71280000D02*
X11430000Y69850000D01*
X12860000Y76400000D02*
X12860000Y71280000D01*
D48*
X11590000Y69690000D02*
X11430000Y69850000D01*
D49*
X11590000Y50800000D02*
X11590000Y69690000D01*
D48*
X11430000Y50640000D02*
X11590000Y50800000D01*
D49*
X11430000Y19050000D02*
X11430000Y50640000D01*
D45*
X38100000Y49530000D02*
X39370000Y49530000D01*
X35560000Y49530000D02*
X36830000Y49530000D01*
X37465000Y49530000D02*
X38100000Y49530000D01*
X36830000Y49530000D02*
X37465000Y49530000D01*
D44*
X31750000Y72750000D02*
X34650000Y69850000D01*
X31750000Y92710000D02*
X31750000Y72750000D01*
X29210000Y95250000D02*
X31750000Y92710000D01*
X17780000Y95250000D02*
X29210000Y95250000D01*
X16660000Y94130000D02*
X17780000Y95250000D01*
X16660000Y88900000D02*
X16660000Y94130000D01*
D45*
X37465000Y67035000D02*
X34650000Y69850000D01*
X37465000Y49530000D02*
X37465000Y67035000D01*
D46*
%TO.N,Net-(C12-Pad1)*%
X73660000Y85090000D02*
X73660000Y86360000D01*
X74930000Y86360000D02*
X76200000Y87630000D01*
X73660000Y86360000D02*
X74930000Y86360000D01*
D45*
X76200000Y87630000D02*
X77470000Y87630000D01*
X78740000Y88900000D02*
X78740000Y89877500D01*
X77470000Y87630000D02*
X78740000Y88900000D01*
X78740000Y89877500D02*
X79717500Y89877500D01*
X79717500Y89877500D02*
X81280000Y91440000D01*
X81280000Y91440000D02*
X81280000Y93980000D01*
D44*
%TO.N,Net-(C14-Pad1)*%
X54370000Y78740000D02*
X51830000Y81280000D01*
X55880000Y78740000D02*
X54370000Y78740000D01*
D46*
%TO.N,Net-(C15-Pad1)*%
X93345000Y85725000D02*
X95250000Y87630000D01*
X93345000Y85025000D02*
X93345000Y85725000D01*
D45*
X97790000Y88070000D02*
X97790000Y89877500D01*
X97350000Y87630000D02*
X97790000Y88070000D01*
X95250000Y87630000D02*
X97350000Y87630000D01*
X97790000Y89877500D02*
X98767500Y89877500D01*
X100330000Y91440000D02*
X100330000Y93980000D01*
X98767500Y89877500D02*
X100330000Y91440000D01*
%TO.N,/AVR MCU/~RST*%
X60947500Y42900000D02*
X60960000Y42887500D01*
X59690000Y42620000D02*
X59410000Y42900000D01*
X59690000Y40640000D02*
X59690000Y42620000D01*
X59410000Y42900000D02*
X60947500Y42900000D01*
X58420000Y42900000D02*
X59410000Y42900000D01*
X80010000Y20320000D02*
X80010000Y21590000D01*
X80010000Y23495000D02*
X80962500Y22542500D01*
X80962500Y22542500D02*
X82550000Y24130000D01*
X79020000Y23495000D02*
X80010000Y23495000D01*
X80010000Y21590000D02*
X80962500Y22542500D01*
X60960000Y42887500D02*
X63207500Y42887500D01*
X63500000Y43180000D02*
X63500000Y44450000D01*
X63207500Y42887500D02*
X63500000Y43180000D01*
%TO.N,Net-(C22-Pad1)*%
X58420000Y20320000D02*
X59690000Y20320000D01*
X57350000Y21390000D02*
X58420000Y20320000D01*
X55245000Y21390000D02*
X57350000Y21390000D01*
X53190000Y23445000D02*
X55245000Y21390000D01*
X52705000Y23445000D02*
X53190000Y23445000D01*
%TO.N,Net-(C23-Pad1)*%
X56515000Y17780000D02*
X55245000Y16510000D01*
X59690000Y17780000D02*
X56515000Y17780000D01*
X53682500Y14947500D02*
X55245000Y16510000D01*
X52705000Y14947500D02*
X53682500Y14947500D01*
%TO.N,Net-(C25-Pad1)*%
X45720000Y30480000D02*
X45720000Y33020000D01*
X45427500Y24685784D02*
X45900010Y25158294D01*
X45427500Y24130000D02*
X45427500Y24685784D01*
X45720000Y30480000D02*
X45720000Y28575000D01*
X45900010Y28394990D02*
X45720000Y28575000D01*
X45900010Y25158294D02*
X45900010Y28394990D01*
%TO.N,Net-(C26-Pad1)*%
X69265000Y22860000D02*
X69850000Y22275000D01*
X67310000Y22860000D02*
X69265000Y22860000D01*
%TO.N,/AVR MCU/ADC3_NTC1*%
X67310000Y35560000D02*
X65050000Y35560000D01*
X67310000Y35560000D02*
X71500001Y39750001D01*
X76492500Y46990000D02*
X77470000Y46012500D01*
X74930000Y46990000D02*
X76492500Y46990000D01*
X71500001Y39750001D02*
X71500001Y42290001D01*
X74930000Y45720000D02*
X74930000Y46990000D01*
X71500001Y42290001D02*
X74930000Y45720000D01*
%TO.N,/AVR MCU/ADC2_ACS712_2*%
X71120000Y33020000D02*
X67310000Y33020000D01*
X72390000Y34290000D02*
X71120000Y33020000D01*
X72390000Y38100000D02*
X72390000Y34290000D01*
X73660000Y39370000D02*
X72390000Y38100000D01*
X74930000Y39370000D02*
X73660000Y39370000D01*
X65062500Y33020000D02*
X67310000Y33020000D01*
%TO.N,/AVR MCU/ADC1_ACS712*%
X75907500Y30480000D02*
X77470000Y32042500D01*
X74930000Y30480000D02*
X75907500Y30480000D01*
X69850000Y30480000D02*
X74930000Y30480000D01*
X67310000Y30480000D02*
X69850000Y30480000D01*
%TO.N,/AVR MCU/ADC0_VSENSE*%
X67310000Y27940000D02*
X69850000Y27940000D01*
X66040000Y29210000D02*
X67310000Y27940000D01*
X65062500Y29210000D02*
X66040000Y29210000D01*
X49810000Y26670000D02*
X49530000Y26390000D01*
X52070000Y26670000D02*
X49810000Y26670000D01*
%TO.N,Net-(D5-Pad2)*%
X117730000Y87630000D02*
X118110000Y88010000D01*
X115570000Y87630000D02*
X117730000Y87630000D01*
X120650000Y85470000D02*
X120650000Y81280000D01*
X118110000Y88010000D02*
X120650000Y85470000D01*
X115570000Y48260000D02*
X120650000Y48260000D01*
%TO.N,Net-(D5-Pad1)*%
X117730000Y85090000D02*
X118110000Y84710000D01*
X115570000Y85090000D02*
X117730000Y85090000D01*
X113030000Y82550000D02*
X115570000Y85090000D01*
X113030000Y81280000D02*
X113030000Y82550000D01*
%TO.N,/AVR MCU/VSENSE*%
X32030000Y36830000D02*
X38100000Y36830000D01*
X52070000Y35560000D02*
X50800000Y36830000D01*
X39370000Y39370000D02*
X39370000Y36830000D01*
X39370000Y36830000D02*
X38100000Y36830000D01*
X50800000Y36830000D02*
X39370000Y36830000D01*
X51790000Y29490000D02*
X52070000Y29210000D01*
X49530000Y29490000D02*
X51790000Y29490000D01*
X49530000Y29490000D02*
X49530000Y32385000D01*
%TO.N,Net-(J2-Pad2)*%
X120650000Y57150000D02*
X115570000Y57150000D01*
X114300000Y58420000D02*
X114300000Y59960000D01*
X115570000Y57150000D02*
X114300000Y58420000D01*
%TO.N,/TX*%
X107950000Y72390000D02*
X109500000Y72390000D01*
X111760000Y72390000D02*
X109500000Y72390000D01*
X113030000Y72390000D02*
X111760000Y72390000D01*
X114300000Y72390000D02*
X113030000Y72390000D01*
X115570000Y74650000D02*
X115570000Y72390000D01*
X115570000Y72390000D02*
X114300000Y72390000D01*
X120650000Y72390000D02*
X115570000Y72390000D01*
%TO.N,/RX*%
X107950000Y66040000D02*
X113030000Y66040000D01*
X113030000Y66040000D02*
X114300000Y64770000D01*
X114300000Y64770000D02*
X121920000Y64770000D01*
X121920000Y64770000D02*
X123190000Y66040000D01*
X123190000Y66040000D02*
X123190000Y68580000D01*
X121920000Y69850000D02*
X120650000Y69850000D01*
X123190000Y68580000D02*
X121920000Y69850000D01*
%TO.N,/ENABLE*%
X118110000Y44450000D02*
X120650000Y44450000D01*
X113590000Y43180000D02*
X116840000Y43180000D01*
X116840000Y43180000D02*
X118110000Y44450000D01*
%TO.N,/REL1*%
X116300000Y36830000D02*
X116300000Y34830000D01*
X118110000Y33020000D02*
X120650000Y33020000D01*
X116300000Y34830000D02*
X118110000Y33020000D01*
%TO.N,/REL2*%
X117570000Y30480000D02*
X120650000Y30480000D01*
X116300000Y31750000D02*
X117570000Y30480000D01*
%TO.N,/REL3*%
X117570000Y27940000D02*
X120650000Y27940000D01*
X116300000Y26670000D02*
X117570000Y27940000D01*
%TO.N,/REL4*%
X116300000Y21590000D02*
X116300000Y23590000D01*
X118110000Y25400000D02*
X120650000Y25400000D01*
X116300000Y23590000D02*
X118110000Y25400000D01*
%TO.N,/AVR MCU/MOSI*%
X73660000Y21590000D02*
X77470000Y17780000D01*
X67509915Y12700000D02*
X67310000Y12700000D01*
X68779915Y13970000D02*
X67509915Y12700000D01*
X73660000Y13970000D02*
X68779915Y13970000D01*
%TO.N,/AVR MCU/REL4*%
X67310000Y17780000D02*
X72390000Y17780000D01*
X80010000Y17780000D02*
X82550000Y17780000D01*
X82550000Y16510000D02*
X82550000Y17780000D01*
X72390000Y11430000D02*
X73660000Y11430000D01*
X79686351Y12089989D02*
X82550000Y14953638D01*
X74319989Y12089989D02*
X79686351Y12089989D01*
X73660000Y11430000D02*
X74319989Y12089989D01*
X82550000Y14953638D02*
X82550000Y15240000D01*
X82550000Y15240000D02*
X82550000Y16510000D01*
X94970000Y22860000D02*
X87630000Y22860000D01*
X87630000Y22860000D02*
X82550000Y17780000D01*
%TO.N,/AVR MCU/MISO*%
X68070002Y15240000D02*
X67310000Y15240000D01*
X68960001Y16129999D02*
X68070002Y15240000D01*
X74040001Y16129999D02*
X68960001Y16129999D01*
X76680001Y13489999D02*
X74040001Y16129999D01*
X78259999Y13489999D02*
X76680001Y13489999D01*
X80010000Y15240000D02*
X78259999Y13489999D01*
D50*
%TO.N,Net-(M1-Pad2)*%
X103530000Y10160000D02*
X109830000Y10160000D01*
D45*
X109830000Y10160000D02*
X119380000Y10160000D01*
X120650000Y11430000D02*
X120650000Y12700000D01*
X119380000Y10160000D02*
X120650000Y11430000D01*
%TO.N,Net-(PS1-Pad4)*%
X48260000Y15240000D02*
X48260000Y19050000D01*
X48260000Y19050000D02*
X48260000Y20320000D01*
%TO.N,Net-(Q1-Pad1)*%
X103530000Y5970000D02*
X104420000Y5080000D01*
X103530000Y7860000D02*
X103530000Y5970000D01*
%TO.N,Net-(Q2-Pad2)*%
X101320000Y5080000D02*
X96617998Y5080000D01*
X96617998Y5080000D02*
X94869999Y6827999D01*
X94869999Y6827999D02*
X94869999Y10999999D01*
X94869999Y10999999D02*
X96840000Y12970000D01*
%TO.N,Net-(Q2-Pad1)*%
X86360000Y64770000D02*
X88900000Y62230000D01*
X81280000Y64770000D02*
X86360000Y64770000D01*
X98554990Y12784990D02*
X98740000Y12970000D01*
X98554990Y9395010D02*
X98554990Y12784990D01*
X100330000Y7620000D02*
X98554990Y9395010D01*
X88900000Y19050000D02*
X96520000Y19050000D01*
X96520000Y7620000D02*
X100330000Y7620000D01*
%TO.N,Net-(Q3-Pad1)*%
X110490000Y59970000D02*
X110490000Y60960000D01*
X111490000Y61960000D02*
X113350000Y61960000D01*
X110490000Y60960000D02*
X111490000Y61960000D01*
%TO.N,Net-(Q4-Pad1)*%
X108230000Y35280000D02*
X107950000Y35560000D01*
X111760000Y35280000D02*
X108230000Y35280000D01*
X113700000Y35280000D02*
X114300000Y35880000D01*
X111760000Y35280000D02*
X113700000Y35280000D01*
%TO.N,Net-(Q5-Pad1)*%
X108230000Y30200000D02*
X107950000Y30480000D01*
X111760000Y30200000D02*
X108230000Y30200000D01*
X113700000Y30200000D02*
X114300000Y30800000D01*
X111760000Y30200000D02*
X113700000Y30200000D01*
%TO.N,Net-(Q6-Pad1)*%
X113700000Y25120000D02*
X114300000Y25720000D01*
X111760000Y25120000D02*
X113700000Y25120000D01*
X108230000Y25120000D02*
X107950000Y25400000D01*
X111760000Y25120000D02*
X108230000Y25120000D01*
%TO.N,Net-(Q7-Pad1)*%
X108484000Y19786000D02*
X107950000Y20320000D01*
X111760000Y19786000D02*
X108484000Y19786000D01*
X113446000Y19786000D02*
X114300000Y20640000D01*
X111760000Y19786000D02*
X113446000Y19786000D01*
%TO.N,/H-bridge/~OVP*%
X49800000Y63180000D02*
X49800000Y63770000D01*
X50800000Y64770000D02*
X50800000Y65760000D01*
X49800000Y63770000D02*
X50800000Y64770000D01*
D46*
%TO.N,Net-(Q8-Pad1)*%
X48260000Y58700000D02*
X48540000Y58420000D01*
X48260000Y61025000D02*
X48260000Y58700000D01*
D45*
X48540000Y58420000D02*
X50520000Y58420000D01*
X48290010Y61220010D02*
X48290010Y61025000D01*
X48350000Y61280000D02*
X48290010Y61220010D01*
X49800000Y61280000D02*
X48350000Y61280000D01*
%TO.N,/AVR MCU/RPM*%
X57150000Y33020000D02*
X59690000Y33020000D01*
X56275000Y28220000D02*
X57150000Y28220000D01*
X55499999Y28995001D02*
X56275000Y28220000D01*
X55499999Y31369999D02*
X55499999Y28995001D01*
X57150000Y33020000D02*
X55499999Y31369999D01*
X59410000Y28220000D02*
X59690000Y27940000D01*
X57150000Y28220000D02*
X59410000Y28220000D01*
X57690000Y50800000D02*
X58960000Y52070000D01*
X52070000Y50800000D02*
X57690000Y50800000D01*
X52070000Y38100000D02*
X57150000Y33020000D01*
%TO.N,/AVR MCU/SHORT*%
X100330000Y53070000D02*
X100330000Y55880000D01*
%TO.N,Net-(R4-Pad1)*%
X109500000Y55880000D02*
X110490000Y56870000D01*
X107950000Y55880000D02*
X109500000Y55880000D01*
%TO.N,Net-(R5-Pad1)*%
X107950000Y43180000D02*
X110490000Y43180000D01*
%TO.N,Net-(R6-Pad2)*%
X106400000Y63500000D02*
X105410000Y64490000D01*
X107950000Y63500000D02*
X106400000Y63500000D01*
%TO.N,Net-(R7-Pad2)*%
X50800000Y74930000D02*
X50800000Y68860000D01*
X50800000Y76200000D02*
X50800000Y74930000D01*
X64770000Y62230000D02*
X64770000Y76200000D01*
X81710078Y58550010D02*
X65909990Y58550010D01*
X65909990Y58550010D02*
X64770000Y59690000D01*
X83490089Y56769999D02*
X81710078Y58550010D01*
X64770000Y59690000D02*
X64770000Y62230000D01*
X97887998Y58420000D02*
X96237997Y56769999D01*
X96237997Y56769999D02*
X83490089Y56769999D01*
X100330000Y58420000D02*
X97887998Y58420000D01*
%TO.N,Net-(R8-Pad2)*%
X71400000Y67310000D02*
X73660000Y67310000D01*
%TO.N,/AVR MCU/FAN*%
X55880000Y11430000D02*
X59690000Y15240000D01*
X53340000Y11430000D02*
X55880000Y11430000D01*
X68300000Y63780000D02*
X68580000Y63500000D01*
X68300000Y67310000D02*
X68300000Y63780000D01*
%TO.N,Net-(R9-Pad2)*%
X99340000Y74930000D02*
X97790000Y76480000D01*
X100330000Y74930000D02*
X99340000Y74930000D01*
%TO.N,/AVR MCU/TX*%
X53340000Y40778630D02*
X53340000Y45720000D01*
X58558630Y35560000D02*
X53340000Y40778630D01*
X59690000Y35560000D02*
X58558630Y35560000D01*
X94970000Y73380000D02*
X97790000Y73380000D01*
X93980000Y72390000D02*
X94970000Y73380000D01*
X68319980Y59950020D02*
X67310000Y60960000D01*
X82289981Y59950020D02*
X68319980Y59950020D01*
X83820000Y58420000D02*
X82289981Y59950020D01*
X93980000Y58420000D02*
X83820000Y58420000D01*
%TO.N,/AVR MCU/RX*%
X95250000Y66970000D02*
X96860000Y68580000D01*
X95250000Y66320000D02*
X95250000Y66970000D01*
X97790000Y68580000D02*
X100330000Y68580000D01*
X96860000Y68580000D02*
X97790000Y68580000D01*
X57998542Y38100000D02*
X59690000Y38100000D01*
X54740010Y41358532D02*
X57998542Y38100000D01*
X54740010Y44580010D02*
X54740010Y41358532D01*
X55880000Y45720000D02*
X54740010Y44580010D01*
X97040001Y55130001D02*
X97790000Y55880000D01*
X83150174Y55130001D02*
X97040001Y55130001D01*
X81130176Y57150000D02*
X83150174Y55130001D01*
X67310000Y57150000D02*
X81130176Y57150000D01*
X66040000Y55880000D02*
X67310000Y57150000D01*
%TO.N,/AVR MCU/REL1*%
X61600018Y5709982D02*
X59690000Y7620000D01*
X81749709Y7229970D02*
X76669706Y7229970D01*
X84299737Y9779999D02*
X81749709Y7229970D01*
X76669706Y7229970D02*
X75149718Y5709982D01*
X87152001Y9779999D02*
X84299737Y9779999D01*
X88802002Y11430000D02*
X87152001Y9779999D01*
X93090001Y13177999D02*
X91342002Y11430000D01*
X75149718Y5709982D02*
X61600018Y5709982D01*
X93090001Y15620001D02*
X93090001Y13177999D01*
X91342002Y11430000D02*
X88802002Y11430000D01*
X93980000Y16510000D02*
X93090001Y15620001D01*
X93980000Y40640000D02*
X93980000Y39090000D01*
X93980000Y39090000D02*
X94970000Y38100000D01*
%TO.N,Net-(R11-Pad1)*%
X98070000Y38100000D02*
X100330000Y38100000D01*
%TO.N,/AVR MCU/REL2*%
X85220010Y48839903D02*
X80339911Y53720001D01*
X85220010Y34159990D02*
X85220010Y48839903D01*
X86360000Y33020000D02*
X85220010Y34159990D01*
X94970000Y33020000D02*
X86360000Y33020000D01*
X80339911Y53720001D02*
X72060088Y53720001D01*
X68069989Y49729902D02*
X72060088Y53720001D01*
X68069989Y41399989D02*
X68069989Y49729902D01*
X67310000Y40640000D02*
X68069989Y41399989D01*
%TO.N,Net-(R12-Pad1)*%
X98070000Y33020000D02*
X100330000Y33020000D01*
%TO.N,/AVR MCU/REL3*%
X83820000Y29210000D02*
X85090000Y27940000D01*
X83820000Y48260000D02*
X83820000Y29210000D01*
X80010000Y52070000D02*
X83820000Y48260000D01*
X72390000Y52070000D02*
X80010000Y52070000D01*
X85090000Y27940000D02*
X94970000Y27940000D01*
X69469999Y49149999D02*
X72390000Y52070000D01*
X69469999Y40259999D02*
X69469999Y49149999D01*
X67310000Y38100000D02*
X69469999Y40259999D01*
%TO.N,Net-(R13-Pad1)*%
X98070000Y27940000D02*
X100330000Y27940000D01*
%TO.N,Net-(R14-Pad1)*%
X98070000Y22860000D02*
X100330000Y22860000D01*
%TO.N,Net-(R19-Pad2)*%
X105690000Y38100000D02*
X107950000Y38100000D01*
%TO.N,Net-(R20-Pad2)*%
X105690000Y33020000D02*
X107950000Y33020000D01*
%TO.N,Net-(R21-Pad2)*%
X105690000Y27940000D02*
X107950000Y27940000D01*
%TO.N,Net-(R22-Pad2)*%
X105690000Y22860000D02*
X107950000Y22860000D01*
D46*
%TO.N,Net-(R25-Pad2)*%
X45720000Y58700000D02*
X45440000Y58420000D01*
X45720000Y61025000D02*
X45720000Y58700000D01*
D45*
X43460000Y58420000D02*
X45440000Y58420000D01*
X45440000Y58420000D02*
X45440000Y55880000D01*
%TO.N,Net-(R27-Pad2)*%
X32030000Y39370000D02*
X35560000Y39370000D01*
D46*
X46990000Y59755000D02*
X46990000Y55880000D01*
X46990000Y59755000D02*
X46990000Y61025000D01*
D45*
X35560000Y40640000D02*
X42549999Y47629999D01*
X35560000Y39370000D02*
X35560000Y40640000D01*
X44092001Y47629999D02*
X45720000Y49257998D01*
X42549999Y47629999D02*
X44092001Y47629999D01*
X45720000Y53340000D02*
X46990000Y54610000D01*
X45720000Y49257998D02*
X45720000Y53340000D01*
X46990000Y54610000D02*
X46990000Y55880000D01*
D46*
%TO.N,/AVR MCU/~SD*%
X71120000Y80140000D02*
X71120000Y78740000D01*
X90805000Y77794942D02*
X90170000Y77159942D01*
X90805000Y80075000D02*
X90805000Y77794942D01*
X71120000Y76480000D02*
X71120000Y78740000D01*
X72670000Y74930000D02*
X71120000Y76480000D01*
D45*
X73660000Y72140009D02*
X72670000Y73130009D01*
X72670000Y73130009D02*
X72670000Y74930000D01*
X90170000Y74930000D02*
X90170000Y77159942D01*
X84455000Y72390000D02*
X87630000Y72390000D01*
X87630000Y72390000D02*
X90170000Y74930000D01*
X84205009Y72140009D02*
X84455000Y72390000D01*
X73660000Y72140009D02*
X84205009Y72140009D01*
X77619824Y5829960D02*
X83934960Y5829960D01*
X76099836Y4309972D02*
X77619824Y5829960D01*
X61020115Y4309972D02*
X76099836Y4309972D01*
X83934960Y5829960D02*
X84455000Y6350000D01*
X59410089Y5919999D02*
X61020115Y4309972D01*
X58873999Y5919999D02*
X59410089Y5919999D01*
X57989999Y6803999D02*
X58873999Y5919999D01*
X57989999Y8459999D02*
X57989999Y6803999D01*
X59690000Y10160000D02*
X57989999Y8459999D01*
D46*
%TO.N,/H-bridge/IN1*%
X72390000Y80140000D02*
X72390000Y77190000D01*
D45*
X67870088Y7620000D02*
X67310000Y7620000D01*
X74569815Y7109991D02*
X68380099Y7109990D01*
X76089804Y8629980D02*
X74569815Y7109991D01*
X81169806Y8629980D02*
X76089804Y8629980D01*
X83969825Y11430000D02*
X81169806Y8629980D01*
X68380099Y7109990D02*
X67870088Y7620000D01*
X86360000Y11430000D02*
X83969825Y11430000D01*
X82528017Y73540019D02*
X83917998Y74930000D01*
X75049981Y73540019D02*
X82528017Y73540019D01*
X74719999Y73870001D02*
X75049981Y73540019D01*
X83917998Y74930000D02*
X86360000Y74930000D01*
X74719999Y75989999D02*
X74719999Y73870001D01*
X73239998Y77470000D02*
X74719999Y75989999D01*
X72670000Y77470000D02*
X73239998Y77470000D01*
D46*
%TO.N,Net-(R33-Pad2)*%
X74819998Y89890000D02*
X76200000Y89890000D01*
X72390000Y87460002D02*
X74819998Y89890000D01*
X72390000Y85090000D02*
X72390000Y87460002D01*
%TO.N,Net-(R34-Pad2)*%
X69850000Y85090000D02*
X69850000Y87630000D01*
D45*
X69850000Y87630000D02*
X69850000Y89890000D01*
D46*
%TO.N,Net-(R36-Pad1)*%
X94127070Y89890000D02*
X95250000Y89890000D01*
X92075000Y87837930D02*
X94127070Y89890000D01*
X92075000Y85025000D02*
X92075000Y87837930D01*
%TO.N,Net-(R37-Pad1)*%
X89535000Y85025000D02*
X89535000Y86995000D01*
X88900000Y87630000D02*
X88900000Y89890000D01*
X89535000Y86995000D02*
X88900000Y87630000D01*
%TO.N,/H-bridge/IN2*%
X92075000Y76555000D02*
X91720000Y76200000D01*
X92075000Y80075000D02*
X92075000Y76555000D01*
D45*
X91720000Y73305000D02*
X90805000Y72390000D01*
X91720000Y76200000D02*
X91720000Y73305000D01*
X89915001Y13080001D02*
X90805000Y13970000D01*
X82930001Y13080001D02*
X89915001Y13080001D01*
X80539979Y10689979D02*
X82930001Y13080001D01*
X74899892Y10689979D02*
X80539979Y10689979D01*
X73989912Y9779999D02*
X74899892Y10689979D01*
X71217998Y10160000D02*
X71597999Y9779999D01*
X71597999Y9779999D02*
X73989912Y9779999D01*
X67310000Y10160000D02*
X71217998Y10160000D01*
%TO.N,Net-(R39-Pad2)*%
X57049999Y47370001D02*
X58420000Y46000000D01*
X52020001Y47370001D02*
X57049999Y47370001D01*
X49680000Y45030000D02*
X52020001Y47370001D01*
%TO.N,Net-(R42-Pad2)*%
X107950000Y87630000D02*
X107950000Y91440000D01*
X64770000Y85340087D02*
X64770000Y91440000D01*
X64770000Y83820000D02*
X64770000Y85340087D01*
X66420001Y82169999D02*
X64770000Y83820000D01*
X66420001Y72490001D02*
X66420001Y82169999D01*
X66320000Y72390000D02*
X66420001Y72490001D01*
%TO.N,/AVR MCU/~SHORT*%
X56589989Y6224096D02*
X59904123Y2909962D01*
X56589989Y9599989D02*
X56589989Y6224096D01*
X59690000Y12700000D02*
X56589989Y9599989D01*
X76679739Y2909962D02*
X78199727Y4429950D01*
X59904123Y2909962D02*
X76679739Y2909962D01*
X86979950Y4429950D02*
X92710000Y10160000D01*
X78199727Y4429950D02*
X86979950Y4429950D01*
X98780000Y48260000D02*
X92710000Y48260000D01*
%TO.N,/AVR MCU/~ENABLE*%
X57150000Y30480000D02*
X59690000Y30480000D01*
X66040000Y49679825D02*
X66040000Y49530000D01*
X71720174Y55359999D02*
X66040000Y49679825D01*
X80679826Y55359999D02*
X71720174Y55359999D01*
X86620020Y49419806D02*
X80679826Y55359999D01*
X86620020Y44189980D02*
X86620020Y49419806D01*
X87630000Y43180000D02*
X86620020Y44189980D01*
X100330000Y43180000D02*
X87630000Y43180000D01*
D47*
%TO.N,/H-bridge/DC-*%
X22860000Y88900000D02*
X22860000Y76400000D01*
X22860000Y88900000D02*
X26660000Y88900000D01*
X22860000Y76400000D02*
X26660000Y76400000D01*
D48*
X26660000Y88900000D02*
X26660000Y76400000D01*
X21430000Y50640000D02*
X21590000Y50800000D01*
X26660000Y69860000D02*
X26670000Y69850000D01*
D49*
X26660000Y76400000D02*
X26660000Y69860000D01*
X21590000Y64770000D02*
X26670000Y69850000D01*
X21590000Y57150000D02*
X21590000Y64770000D01*
X21590000Y50800000D02*
X21590000Y57150000D01*
D44*
X21590000Y34290000D02*
X21430000Y34450000D01*
D49*
X21430000Y19050000D02*
X21430000Y34450000D01*
D44*
X22860000Y33020000D02*
X21430000Y34450000D01*
D45*
X27750000Y33020000D02*
X22860000Y33020000D01*
X28930000Y36830000D02*
X21590000Y36830000D01*
D49*
X21430000Y36670000D02*
X21430000Y50640000D01*
D45*
X21590000Y36830000D02*
X21430000Y36670000D01*
D49*
X21430000Y34450000D02*
X21430000Y36670000D01*
D45*
X24130000Y39370000D02*
X21430000Y36670000D01*
X28930000Y39370000D02*
X24130000Y39370000D01*
D44*
X22860000Y58420000D02*
X21590000Y57150000D01*
X34650000Y58420000D02*
X22860000Y58420000D01*
D47*
%TO.N,Net-(C14-Pad2)*%
X36715000Y95435000D02*
X41715000Y95435000D01*
D44*
X36830000Y81280000D02*
X36830000Y87630000D01*
D47*
X36715000Y87745000D02*
X36830000Y87630000D01*
X36715000Y95435000D02*
X36715000Y87745000D01*
%TO.N,Net-(D3-Pad1)*%
X52070000Y95250000D02*
X49415000Y95250000D01*
X54415000Y95250000D02*
X52070000Y95250000D01*
X52070000Y87630000D02*
X52070000Y92905000D01*
D44*
X53535000Y91440000D02*
X52070000Y92905000D01*
X55880000Y91440000D02*
X53535000Y91440000D01*
D47*
X52070000Y92905000D02*
X52070000Y95250000D01*
D45*
%TO.N,Net-(J9-Pad2)*%
X69850000Y92990000D02*
X69850000Y95250000D01*
%TO.N,Net-(C12-Pad2)*%
X78740000Y92853638D02*
X78740000Y93002500D01*
X73660000Y95250000D02*
X73660000Y96520000D01*
X73660000Y96520000D02*
X74930000Y97790000D01*
X74930000Y97790000D02*
X77470000Y97790000D01*
X78740000Y96520000D02*
X78740000Y93002500D01*
X77470000Y97790000D02*
X78740000Y96520000D01*
X73660000Y95250000D02*
X73660000Y91440000D01*
D46*
X73660000Y90427072D02*
X73660000Y91440000D01*
X71189990Y87957062D02*
X73660000Y90427072D01*
X71189990Y87131499D02*
X71189990Y87957062D01*
X71120000Y87061509D02*
X71189990Y87131499D01*
X71120000Y85090000D02*
X71120000Y87061509D01*
D45*
X79280000Y95980000D02*
X78740000Y96520000D01*
X81280000Y95980000D02*
X79280000Y95980000D01*
%TO.N,Net-(C15-Pad2)*%
X96520000Y97790000D02*
X97790000Y96520000D01*
X93980000Y97790000D02*
X96520000Y97790000D01*
X92710000Y96520000D02*
X93980000Y97790000D01*
X92710000Y95250000D02*
X92710000Y96520000D01*
X97790000Y93980000D02*
X97790000Y93002500D01*
D46*
X90805000Y85025000D02*
X90805000Y88265000D01*
X92710000Y90170000D02*
X92710000Y95250000D01*
X90805000Y88265000D02*
X92710000Y90170000D01*
D45*
X97790000Y95250000D02*
X97790000Y93980000D01*
X97790000Y96520000D02*
X97790000Y95250000D01*
X99790000Y96520000D02*
X100330000Y95980000D01*
X97790000Y96520000D02*
X99790000Y96520000D01*
%TO.N,Net-(J8-Pad2)*%
X76200000Y92990000D02*
X76200000Y95250000D01*
%TO.N,Net-(J12-Pad2)*%
X95250000Y95250000D02*
X95250000Y92990000D01*
%TO.N,Net-(J13-Pad2)*%
X88900000Y92990000D02*
X88900000Y95250000D01*
%TO.N,Net-(J14-Pad1)*%
X113030000Y50800000D02*
X120650000Y50800000D01*
%TO.N,Net-(Q9-Pad1)*%
X63500000Y51080000D02*
X63500000Y53060000D01*
X61000000Y53060000D02*
X60960000Y53020000D01*
X63500000Y53060000D02*
X61000000Y53060000D01*
X63220000Y53340000D02*
X63500000Y53060000D01*
X63220000Y72390000D02*
X63220000Y53340000D01*
%TO.N,Net-(Q10-Pad1)*%
X101880000Y50470000D02*
X101280000Y51070000D01*
X101880000Y48260000D02*
X101880000Y50470000D01*
%TO.N,/GND_UART*%
X107657500Y74637500D02*
X107950000Y74930000D01*
X108242500Y74637500D02*
X107950000Y74930000D01*
X110490000Y74637500D02*
X108242500Y74637500D01*
X112332500Y74637500D02*
X113030000Y73940000D01*
X110490000Y74637500D02*
X112332500Y74637500D01*
%TO.N,Net-(J3-Pad4)*%
X116840000Y67310000D02*
X120650000Y67310000D01*
X113030000Y70840000D02*
X113030000Y69850000D01*
X115570000Y67310000D02*
X116840000Y67310000D01*
X113030000Y69850000D02*
X115570000Y67310000D01*
%TD*%
D51*
%TO.N,Net-(M1-Pad2)*%
X117983000Y2667000D02*
X106807000Y2667000D01*
X106807000Y16383000D01*
X117983000Y16383000D01*
X117983000Y2667000D01*
%TA.AperFunction,Conductor*%
D52*
G36*
X117983000Y2667000D02*
G01*
X106807000Y2667000D01*
X106807000Y16383000D01*
X117983000Y16383000D01*
X117983000Y2667000D01*
G37*
%TD.AperFunction*%
%TD*%
M02*
