M48
; DRILL file {KiCad 5.1.10-88a1d61d58~90~ubuntu20.04.1} date Mon Aug 29 22:22:51 2022
; FORMAT={3:3/ absolute / metric / suppress leading zeros}
; #@! TF.CreationDate,2022-08-29T22:22:51+02:00
; #@! TF.GenerationSoftware,Kicad,Pcbnew,5.1.10-88a1d61d58~90~ubuntu20.04.1
FMAT,2
METRIC,TZ
T1C0.750
T2C0.800
T3C1.000
T4C1.075
T5C1.100
T6C1.190
T7C1.200
T8C1.300
T9C1.900
T10C2.000
T11C3.200
%
G90
G05
T1
X43180Y28575
X44450Y27305
X45720Y28575
T2
X34290Y22860
X35560Y49530
X35560Y39370
X39370Y49530
X39370Y39370
X39370Y27940
X43180Y39370
X48260Y3810
X50800Y76200
X52070Y50800
X52070Y38100
X52070Y35560
X52070Y29210
X52070Y26670
X53340Y45720
X53340Y11430
X55245Y21390
X55245Y16510
X55880Y91440
X55880Y78740
X55880Y45720
X57150Y30480
X59690Y40640
X59690Y38100
X59690Y35560
X59690Y33020
X59690Y30480
X59690Y27940
X59690Y25400
X59690Y22860
X59690Y20320
X59690Y17780
X59690Y15240
X59690Y12700
X59690Y10160
X59690Y7620
X60960Y59690
X63500Y44450
X64770Y91440
X64770Y76200
X66040Y55880
X66040Y49530
X67310Y60960
X67310Y40640
X67310Y38100
X67310Y35560
X67310Y33020
X67310Y30480
X67310Y27940
X67310Y25400
X67310Y22860
X67310Y20320
X67310Y17780
X67310Y15240
X67310Y12700
X67310Y10160
X67310Y7620
X68580Y63500
X69850Y27940
X71120Y61600
X71120Y48260
X72316Y20246
X72390Y17780
X72390Y11430
X73660Y67310
X73660Y64770
X73660Y21590
X73660Y13970
X78740Y77470
X78740Y75190
X78740Y62230
X79375Y36830
X80010Y40640
X81280Y95980
X81280Y93980
X81280Y67310
X81280Y64770
X81280Y26670
X82550Y24130
X83820Y84780
X83820Y81280
X84455Y72390
X84455Y6350
X86360Y74930
X86360Y11430
X88900Y62230
X88900Y19050
X90805Y72390
X90805Y13970
X92710Y48260
X92710Y10160
X93980Y74930
X93980Y72390
X93980Y58420
X93980Y40640
X93980Y16510
X96520Y71120
X96520Y52070
X96520Y19050
X96520Y7620
X97790Y68580
X97790Y55880
X100330Y95980
X100330Y93980
X100330Y77470
X100330Y74930
X100330Y72390
X100330Y68580
X100330Y66040
X100330Y63500
X100330Y58420
X100330Y55880
X100330Y45720
X100330Y43180
X100330Y38100
X100330Y35560
X100330Y33020
X100330Y30480
X100330Y27940
X100330Y25400
X100330Y22860
X100330Y20320
X101600Y86050
X101600Y82550
X101600Y15240
X104140Y15240
X107950Y91440
X107950Y87630
X107950Y85090
X107950Y77470
X107950Y74930
X107950Y72390
X107950Y68580
X107950Y66040
X107950Y63500
X107950Y58420
X107950Y55880
X107950Y45720
X107950Y43180
X107950Y38100
X107950Y35560
X107950Y33020
X107950Y30480
X107950Y27940
X107950Y25400
X107950Y22860
X107950Y20320
X109855Y36930
X109855Y33630
X109855Y31850
X109855Y28550
X109855Y26770
X109855Y23470
X109855Y21590
X115570Y87630
X115570Y85090
X115570Y48260
X117830Y38380
X120650Y81280
X120650Y62230
T3
X34370Y16510
X39370Y16510
X43180Y33020
X45720Y33020
X45720Y20320
X48260Y20320
X77470Y20320
X77470Y17780
X77470Y15240
X80010Y20320
X80010Y17780
X80010Y15240
T4
X48260Y15240
X48260Y12700
X48260Y10160
X48260Y7620
T5
X43180Y49530
X43180Y45030
X49680Y49530
X49680Y45030
X76200Y87630
X76200Y77470
X95250Y87630
X95250Y77470
T6
X35560Y7620
X38100Y7620
X67310Y95250
X69850Y95250
X73660Y95250
X74930Y49530
X74930Y46990
X74930Y41910
X74930Y39370
X74930Y36830
X74930Y33020
X74930Y30480
X74930Y27940
X76200Y95250
X86360Y95250
X88900Y95250
X92710Y95250
X95250Y95250
X120650Y74930
X120650Y72390
X120650Y69850
X120650Y67310
X120650Y59690
X120650Y57150
X120650Y54610
X120650Y50800
X120650Y48260
X120650Y44450
X120650Y41910
X120650Y35560
X120650Y33020
X120650Y30480
X120650Y27940
X120650Y25400
X120650Y22860
X120650Y15240
X120650Y12700
T7
X34650Y69850
X34650Y58420
X36830Y81280
X51830Y81280
X57150Y69850
X57150Y58420
X113030Y81280
X113030Y50800
T8
X11430Y69850
X26670Y69850
X36715Y95435
X36830Y87630
X41715Y95435
X49415Y95250
X52070Y87630
X54415Y95250
X60960Y95250
X60960Y90250
T9
X12860Y88900
X12860Y76400
X16660Y88900
X16660Y76400
X22860Y88900
X22860Y76400
X26660Y88900
X26660Y76400
T10
X11430Y19050
X11590Y50800
X21430Y19050
X21590Y50800
T11
X3810Y95250
X3810Y5080
X120650Y95250
X120650Y5080
T0
M30
