G04 #@! TF.GenerationSoftware,KiCad,Pcbnew,7.0.10-7.0.10~ubuntu22.04.1*
G04 #@! TF.CreationDate,2024-03-13T13:14:23+01:00*
G04 #@! TF.ProjectId,vetrnik-H-bridge,76657472-6e69-46b2-9d48-2d6272696467,rev?*
G04 #@! TF.SameCoordinates,PX60e4b00PY791ddc0*
G04 #@! TF.FileFunction,Copper,L2,Bot*
G04 #@! TF.FilePolarity,Positive*
%FSLAX46Y46*%
G04 Gerber Fmt 4.6, Leading zero omitted, Abs format (unit mm)*
G04 Created by KiCad (PCBNEW 7.0.10-7.0.10~ubuntu22.04.1) date 2024-03-13 13:14:23*
%MOMM*%
%LPD*%
G01*
G04 APERTURE LIST*
G04 Aperture macros list*
%AMRoundRect*
0 Rectangle with rounded corners*
0 $1 Rounding radius*
0 $2 $3 $4 $5 $6 $7 $8 $9 X,Y pos of 4 corners*
0 Add a 4 corners polygon primitive as box body*
4,1,4,$2,$3,$4,$5,$6,$7,$8,$9,$2,$3,0*
0 Add four circle primitives for the rounded corners*
1,1,$1+$1,$2,$3*
1,1,$1+$1,$4,$5*
1,1,$1+$1,$6,$7*
1,1,$1+$1,$8,$9*
0 Add four rect primitives between the rounded corners*
20,1,$1+$1,$2,$3,$4,$5,0*
20,1,$1+$1,$4,$5,$6,$7,0*
20,1,$1+$1,$6,$7,$8,$9,0*
20,1,$1+$1,$8,$9,$2,$3,0*%
G04 Aperture macros list end*
G04 #@! TA.AperFunction,ComponentPad*
%ADD10RoundRect,0.250000X-0.600000X-0.600000X0.600000X-0.600000X0.600000X0.600000X-0.600000X0.600000X0*%
G04 #@! TD*
G04 #@! TA.AperFunction,ComponentPad*
%ADD11C,1.700000*%
G04 #@! TD*
G04 #@! TA.AperFunction,ComponentPad*
%ADD12RoundRect,0.250000X0.675000X0.675000X-0.675000X0.675000X-0.675000X-0.675000X0.675000X-0.675000X0*%
G04 #@! TD*
G04 #@! TA.AperFunction,ComponentPad*
%ADD13C,1.850000*%
G04 #@! TD*
G04 #@! TA.AperFunction,ViaPad*
%ADD14C,1.300000*%
G04 #@! TD*
G04 APERTURE END LIST*
D10*
G04 #@! TO.P,J5,1,Pin_1*
G04 #@! TO.N,GNDPWR*
X35560000Y12700000D03*
D11*
G04 #@! TO.P,J5,2,Pin_2*
G04 #@! TO.N,Net-(D15-A)*
X39560000Y12700000D03*
G04 #@! TD*
D10*
G04 #@! TO.P,J2,1,Pin_1*
G04 #@! TO.N,/AC1*
X17780000Y12700000D03*
D11*
G04 #@! TO.P,J2,2,Pin_2*
G04 #@! TO.N,Net-(D12-A)*
X21780000Y12700000D03*
G04 #@! TD*
D10*
G04 #@! TO.P,J4,1,Pin_1*
G04 #@! TO.N,/AC2*
X44450000Y12700000D03*
D11*
G04 #@! TO.P,J4,2,Pin_2*
G04 #@! TO.N,Net-(D14-A)*
X48450000Y12700000D03*
G04 #@! TD*
D12*
G04 #@! TO.P,J1,1,Pin_1*
G04 #@! TO.N,Net-(D1-A)*
X33020000Y48260000D03*
D13*
G04 #@! TO.P,J1,2,Pin_2*
G04 #@! TO.N,/CONN_IN2*
X28820000Y48260000D03*
G04 #@! TO.P,J1,3,Pin_3*
G04 #@! TO.N,/CONN_~{SD}*
X24620000Y48260000D03*
G04 #@! TO.P,J1,4,Pin_4*
G04 #@! TO.N,/CONN_IN1*
X20420000Y48260000D03*
G04 #@! TO.P,J1,5,Pin_5*
G04 #@! TO.N,+12P*
X16220000Y48260000D03*
G04 #@! TD*
D10*
G04 #@! TO.P,J3,1,Pin_1*
G04 #@! TO.N,GNDPWR*
X8890000Y12700000D03*
D11*
G04 #@! TO.P,J3,2,Pin_2*
G04 #@! TO.N,Net-(D13-A)*
X12890000Y12700000D03*
G04 #@! TD*
D14*
G04 #@! TO.N,GNDPWR*
X35280000Y41910000D03*
X6350000Y25400000D03*
X33020000Y25400000D03*
X6350000Y12700000D03*
X13970000Y45720000D03*
X33020000Y12700000D03*
G04 #@! TD*
G04 #@! TA.AperFunction,Conductor*
G04 #@! TO.N,GNDPWR*
G36*
X57093039Y53320315D02*
G01*
X57138794Y53267511D01*
X57150000Y53216000D01*
X57150000Y7744000D01*
X57130315Y7676961D01*
X57077511Y7631206D01*
X57026000Y7620000D01*
X759000Y7620000D01*
X691961Y7639685D01*
X646206Y7692489D01*
X635000Y7744000D01*
X635000Y12300000D01*
X7540001Y12300000D01*
X7540001Y12050014D01*
X7550494Y11947303D01*
X7605641Y11780881D01*
X7605643Y11780876D01*
X7697684Y11631655D01*
X7821654Y11507685D01*
X7970875Y11415644D01*
X7970880Y11415642D01*
X8137302Y11360495D01*
X8137309Y11360494D01*
X8240019Y11350001D01*
X8489999Y11350001D01*
X8490000Y11350002D01*
X8490000Y12300000D01*
X9290000Y12300000D01*
X9290000Y11350001D01*
X9539972Y11350001D01*
X9539986Y11350002D01*
X9642697Y11360495D01*
X9809119Y11415642D01*
X9809124Y11415644D01*
X9958345Y11507685D01*
X10082315Y11631655D01*
X10174356Y11780876D01*
X10174358Y11780881D01*
X10229505Y11947303D01*
X10229506Y11947310D01*
X10239999Y12050014D01*
X10240000Y12050027D01*
X10240000Y12300000D01*
X9290000Y12300000D01*
X8490000Y12300000D01*
X7540001Y12300000D01*
X635000Y12300000D01*
X635000Y12670698D01*
X8536372Y12670698D01*
X8565047Y12557462D01*
X8628936Y12459673D01*
X8721115Y12387928D01*
X8831595Y12350000D01*
X8919005Y12350000D01*
X9005216Y12364386D01*
X9107947Y12419981D01*
X9187060Y12505921D01*
X9233982Y12612892D01*
X9241200Y12700000D01*
X11534341Y12700000D01*
X11554936Y12464597D01*
X11554938Y12464587D01*
X11616094Y12236345D01*
X11616096Y12236341D01*
X11616097Y12236337D01*
X11702975Y12050027D01*
X11715965Y12022170D01*
X11715967Y12022166D01*
X11824281Y11867479D01*
X11851505Y11828599D01*
X12018599Y11661505D01*
X12061675Y11631343D01*
X12212165Y11525968D01*
X12212167Y11525967D01*
X12212170Y11525965D01*
X12426337Y11426097D01*
X12426343Y11426096D01*
X12426344Y11426095D01*
X12465356Y11415642D01*
X12654592Y11364937D01*
X12831034Y11349500D01*
X12889999Y11344341D01*
X12890000Y11344341D01*
X12890001Y11344341D01*
X12948966Y11349500D01*
X13125408Y11364937D01*
X13353663Y11426097D01*
X13567830Y11525965D01*
X13761401Y11661505D01*
X13928495Y11828599D01*
X14064035Y12022170D01*
X14077012Y12049999D01*
X16429500Y12049999D01*
X16429501Y12049982D01*
X16440000Y11947204D01*
X16440001Y11947201D01*
X16479303Y11828598D01*
X16495186Y11780666D01*
X16587288Y11631344D01*
X16711344Y11507288D01*
X16860666Y11415186D01*
X17027203Y11360001D01*
X17129991Y11349500D01*
X18430008Y11349501D01*
X18532797Y11360001D01*
X18699334Y11415186D01*
X18848656Y11507288D01*
X18972712Y11631344D01*
X19064814Y11780666D01*
X19119999Y11947203D01*
X19130500Y12049991D01*
X19130499Y12700000D01*
X20424341Y12700000D01*
X20444936Y12464597D01*
X20444938Y12464587D01*
X20506094Y12236345D01*
X20506096Y12236341D01*
X20506097Y12236337D01*
X20592975Y12050027D01*
X20605965Y12022170D01*
X20605967Y12022166D01*
X20714281Y11867479D01*
X20741505Y11828599D01*
X20908599Y11661505D01*
X20951675Y11631343D01*
X21102165Y11525968D01*
X21102167Y11525967D01*
X21102170Y11525965D01*
X21316337Y11426097D01*
X21316343Y11426096D01*
X21316344Y11426095D01*
X21355356Y11415642D01*
X21544592Y11364937D01*
X21721034Y11349500D01*
X21779999Y11344341D01*
X21780000Y11344341D01*
X21780001Y11344341D01*
X21838966Y11349500D01*
X22015408Y11364937D01*
X22243663Y11426097D01*
X22457830Y11525965D01*
X22651401Y11661505D01*
X22818495Y11828599D01*
X22954035Y12022170D01*
X23053903Y12236337D01*
X23070961Y12300000D01*
X34210001Y12300000D01*
X34210001Y12050014D01*
X34220494Y11947303D01*
X34275641Y11780881D01*
X34275643Y11780876D01*
X34367684Y11631655D01*
X34491654Y11507685D01*
X34640875Y11415644D01*
X34640880Y11415642D01*
X34807302Y11360495D01*
X34807309Y11360494D01*
X34910019Y11350001D01*
X35159999Y11350001D01*
X35160000Y11350002D01*
X35160000Y12300000D01*
X35960000Y12300000D01*
X35960000Y11350001D01*
X36209972Y11350001D01*
X36209986Y11350002D01*
X36312697Y11360495D01*
X36479119Y11415642D01*
X36479124Y11415644D01*
X36628345Y11507685D01*
X36752315Y11631655D01*
X36844356Y11780876D01*
X36844358Y11780881D01*
X36899505Y11947303D01*
X36899506Y11947310D01*
X36909999Y12050014D01*
X36910000Y12050027D01*
X36910000Y12300000D01*
X35960000Y12300000D01*
X35160000Y12300000D01*
X34210001Y12300000D01*
X23070961Y12300000D01*
X23115063Y12464592D01*
X23133095Y12670698D01*
X35206372Y12670698D01*
X35235047Y12557462D01*
X35298936Y12459673D01*
X35391115Y12387928D01*
X35501595Y12350000D01*
X35589005Y12350000D01*
X35675216Y12364386D01*
X35777947Y12419981D01*
X35857060Y12505921D01*
X35903982Y12612892D01*
X35911200Y12700000D01*
X38204341Y12700000D01*
X38224936Y12464597D01*
X38224938Y12464587D01*
X38286094Y12236345D01*
X38286096Y12236341D01*
X38286097Y12236337D01*
X38372975Y12050027D01*
X38385965Y12022170D01*
X38385967Y12022166D01*
X38494281Y11867479D01*
X38521505Y11828599D01*
X38688599Y11661505D01*
X38731675Y11631343D01*
X38882165Y11525968D01*
X38882167Y11525967D01*
X38882170Y11525965D01*
X39096337Y11426097D01*
X39096343Y11426096D01*
X39096344Y11426095D01*
X39135356Y11415642D01*
X39324592Y11364937D01*
X39501034Y11349500D01*
X39559999Y11344341D01*
X39560000Y11344341D01*
X39560001Y11344341D01*
X39618966Y11349500D01*
X39795408Y11364937D01*
X40023663Y11426097D01*
X40237830Y11525965D01*
X40431401Y11661505D01*
X40598495Y11828599D01*
X40734035Y12022170D01*
X40747012Y12049999D01*
X43099500Y12049999D01*
X43099501Y12049982D01*
X43110000Y11947204D01*
X43110001Y11947201D01*
X43149303Y11828598D01*
X43165186Y11780666D01*
X43257288Y11631344D01*
X43381344Y11507288D01*
X43530666Y11415186D01*
X43697203Y11360001D01*
X43799991Y11349500D01*
X45100008Y11349501D01*
X45202797Y11360001D01*
X45369334Y11415186D01*
X45518656Y11507288D01*
X45642712Y11631344D01*
X45734814Y11780666D01*
X45789999Y11947203D01*
X45800500Y12049991D01*
X45800499Y12700000D01*
X47094341Y12700000D01*
X47114936Y12464597D01*
X47114938Y12464587D01*
X47176094Y12236345D01*
X47176096Y12236341D01*
X47176097Y12236337D01*
X47262975Y12050027D01*
X47275965Y12022170D01*
X47275967Y12022166D01*
X47384281Y11867479D01*
X47411505Y11828599D01*
X47578599Y11661505D01*
X47621675Y11631343D01*
X47772165Y11525968D01*
X47772167Y11525967D01*
X47772170Y11525965D01*
X47986337Y11426097D01*
X47986343Y11426096D01*
X47986344Y11426095D01*
X48025356Y11415642D01*
X48214592Y11364937D01*
X48391034Y11349500D01*
X48449999Y11344341D01*
X48450000Y11344341D01*
X48450001Y11344341D01*
X48508966Y11349500D01*
X48685408Y11364937D01*
X48913663Y11426097D01*
X49127830Y11525965D01*
X49321401Y11661505D01*
X49488495Y11828599D01*
X49624035Y12022170D01*
X49723903Y12236337D01*
X49785063Y12464592D01*
X49805659Y12700000D01*
X49785063Y12935408D01*
X49723903Y13163663D01*
X49624035Y13377829D01*
X49571617Y13452691D01*
X49488494Y13571403D01*
X49321402Y13738494D01*
X49321395Y13738499D01*
X49127834Y13874033D01*
X49127830Y13874035D01*
X49087777Y13892712D01*
X48913663Y13973903D01*
X48913659Y13973904D01*
X48913655Y13973906D01*
X48685413Y14035062D01*
X48685403Y14035064D01*
X48450001Y14055659D01*
X48449999Y14055659D01*
X48214596Y14035064D01*
X48214586Y14035062D01*
X47986344Y13973906D01*
X47986335Y13973902D01*
X47772171Y13874036D01*
X47772169Y13874035D01*
X47578597Y13738495D01*
X47411505Y13571403D01*
X47275965Y13377831D01*
X47275964Y13377829D01*
X47176098Y13163665D01*
X47176094Y13163656D01*
X47114938Y12935414D01*
X47114936Y12935404D01*
X47094341Y12700001D01*
X47094341Y12700000D01*
X45800499Y12700000D01*
X45800499Y13350008D01*
X45789999Y13452797D01*
X45734814Y13619334D01*
X45642712Y13768656D01*
X45518656Y13892712D01*
X45425888Y13949931D01*
X45369336Y13984813D01*
X45369331Y13984815D01*
X45367862Y13985302D01*
X45202797Y14039999D01*
X45202795Y14040000D01*
X45100010Y14050500D01*
X43799998Y14050500D01*
X43799981Y14050499D01*
X43697203Y14040000D01*
X43697200Y14039999D01*
X43530668Y13984815D01*
X43530663Y13984813D01*
X43381342Y13892711D01*
X43257289Y13768658D01*
X43165187Y13619337D01*
X43165185Y13619332D01*
X43137349Y13535330D01*
X43110001Y13452797D01*
X43110001Y13452796D01*
X43110000Y13452796D01*
X43099500Y13350017D01*
X43099500Y12049999D01*
X40747012Y12049999D01*
X40833903Y12236337D01*
X40895063Y12464592D01*
X40915659Y12700000D01*
X40895063Y12935408D01*
X40833903Y13163663D01*
X40734035Y13377829D01*
X40681617Y13452691D01*
X40598494Y13571403D01*
X40431402Y13738494D01*
X40431395Y13738499D01*
X40237834Y13874033D01*
X40237830Y13874035D01*
X40197777Y13892712D01*
X40023663Y13973903D01*
X40023659Y13973904D01*
X40023655Y13973906D01*
X39795413Y14035062D01*
X39795403Y14035064D01*
X39560001Y14055659D01*
X39559999Y14055659D01*
X39324596Y14035064D01*
X39324586Y14035062D01*
X39096344Y13973906D01*
X39096335Y13973902D01*
X38882171Y13874036D01*
X38882169Y13874035D01*
X38688597Y13738495D01*
X38521505Y13571403D01*
X38385965Y13377831D01*
X38385964Y13377829D01*
X38286098Y13163665D01*
X38286094Y13163656D01*
X38224938Y12935414D01*
X38224936Y12935404D01*
X38204341Y12700001D01*
X38204341Y12700000D01*
X35911200Y12700000D01*
X35913628Y12729302D01*
X35884953Y12842538D01*
X35821064Y12940327D01*
X35728885Y13012072D01*
X35618405Y13050000D01*
X35530995Y13050000D01*
X35444784Y13035614D01*
X35342053Y12980019D01*
X35262940Y12894079D01*
X35216018Y12787108D01*
X35206372Y12670698D01*
X23133095Y12670698D01*
X23135659Y12700000D01*
X23115063Y12935408D01*
X23070961Y13100000D01*
X34210000Y13100000D01*
X35160000Y13100000D01*
X35160000Y14050000D01*
X35960000Y14050000D01*
X35960000Y13100000D01*
X36909999Y13100000D01*
X36909999Y13349972D01*
X36909998Y13349987D01*
X36899505Y13452698D01*
X36844358Y13619120D01*
X36844356Y13619125D01*
X36752315Y13768346D01*
X36628345Y13892316D01*
X36479124Y13984357D01*
X36479119Y13984359D01*
X36312697Y14039506D01*
X36312690Y14039507D01*
X36209986Y14050000D01*
X35960000Y14050000D01*
X35160000Y14050000D01*
X34910029Y14050000D01*
X34910012Y14049999D01*
X34807302Y14039506D01*
X34640880Y13984359D01*
X34640875Y13984357D01*
X34491654Y13892316D01*
X34367684Y13768346D01*
X34275643Y13619125D01*
X34275641Y13619120D01*
X34220494Y13452698D01*
X34220493Y13452691D01*
X34210000Y13349987D01*
X34210000Y13100000D01*
X23070961Y13100000D01*
X23053903Y13163663D01*
X22954035Y13377829D01*
X22901617Y13452691D01*
X22818494Y13571403D01*
X22651402Y13738494D01*
X22651395Y13738499D01*
X22457834Y13874033D01*
X22457830Y13874035D01*
X22417777Y13892712D01*
X22243663Y13973903D01*
X22243659Y13973904D01*
X22243655Y13973906D01*
X22015413Y14035062D01*
X22015403Y14035064D01*
X21780001Y14055659D01*
X21779999Y14055659D01*
X21544596Y14035064D01*
X21544586Y14035062D01*
X21316344Y13973906D01*
X21316335Y13973902D01*
X21102171Y13874036D01*
X21102169Y13874035D01*
X20908597Y13738495D01*
X20741505Y13571403D01*
X20605965Y13377831D01*
X20605964Y13377829D01*
X20506098Y13163665D01*
X20506094Y13163656D01*
X20444938Y12935414D01*
X20444936Y12935404D01*
X20424341Y12700001D01*
X20424341Y12700000D01*
X19130499Y12700000D01*
X19130499Y13350008D01*
X19119999Y13452797D01*
X19064814Y13619334D01*
X18972712Y13768656D01*
X18848656Y13892712D01*
X18755888Y13949931D01*
X18699336Y13984813D01*
X18699331Y13984815D01*
X18697862Y13985302D01*
X18532797Y14039999D01*
X18532795Y14040000D01*
X18430010Y14050500D01*
X17129998Y14050500D01*
X17129981Y14050499D01*
X17027203Y14040000D01*
X17027200Y14039999D01*
X16860668Y13984815D01*
X16860663Y13984813D01*
X16711342Y13892711D01*
X16587289Y13768658D01*
X16495187Y13619337D01*
X16495185Y13619332D01*
X16467349Y13535330D01*
X16440001Y13452797D01*
X16440001Y13452796D01*
X16440000Y13452796D01*
X16429500Y13350017D01*
X16429500Y12049999D01*
X14077012Y12049999D01*
X14163903Y12236337D01*
X14225063Y12464592D01*
X14245659Y12700000D01*
X14225063Y12935408D01*
X14163903Y13163663D01*
X14064035Y13377829D01*
X14011617Y13452691D01*
X13928494Y13571403D01*
X13761402Y13738494D01*
X13761395Y13738499D01*
X13567834Y13874033D01*
X13567830Y13874035D01*
X13527777Y13892712D01*
X13353663Y13973903D01*
X13353659Y13973904D01*
X13353655Y13973906D01*
X13125413Y14035062D01*
X13125403Y14035064D01*
X12890001Y14055659D01*
X12889999Y14055659D01*
X12654596Y14035064D01*
X12654586Y14035062D01*
X12426344Y13973906D01*
X12426335Y13973902D01*
X12212171Y13874036D01*
X12212169Y13874035D01*
X12018597Y13738495D01*
X11851505Y13571403D01*
X11715965Y13377831D01*
X11715964Y13377829D01*
X11616098Y13163665D01*
X11616094Y13163656D01*
X11554938Y12935414D01*
X11554936Y12935404D01*
X11534341Y12700001D01*
X11534341Y12700000D01*
X9241200Y12700000D01*
X9243628Y12729302D01*
X9214953Y12842538D01*
X9151064Y12940327D01*
X9058885Y13012072D01*
X8948405Y13050000D01*
X8860995Y13050000D01*
X8774784Y13035614D01*
X8672053Y12980019D01*
X8592940Y12894079D01*
X8546018Y12787108D01*
X8536372Y12670698D01*
X635000Y12670698D01*
X635000Y13100000D01*
X7540000Y13100000D01*
X8490000Y13100000D01*
X8490000Y14050000D01*
X9290000Y14050000D01*
X9290000Y13100000D01*
X10239999Y13100000D01*
X10239999Y13349972D01*
X10239998Y13349987D01*
X10229505Y13452698D01*
X10174358Y13619120D01*
X10174356Y13619125D01*
X10082315Y13768346D01*
X9958345Y13892316D01*
X9809124Y13984357D01*
X9809119Y13984359D01*
X9642697Y14039506D01*
X9642690Y14039507D01*
X9539986Y14050000D01*
X9290000Y14050000D01*
X8490000Y14050000D01*
X8240029Y14050000D01*
X8240012Y14049999D01*
X8137302Y14039506D01*
X7970880Y13984359D01*
X7970875Y13984357D01*
X7821654Y13892316D01*
X7697684Y13768346D01*
X7605643Y13619125D01*
X7605641Y13619120D01*
X7550494Y13452698D01*
X7550493Y13452691D01*
X7540000Y13349987D01*
X7540000Y13100000D01*
X635000Y13100000D01*
X635000Y48259995D01*
X14789615Y48259995D01*
X14809123Y48024570D01*
X14867117Y47795555D01*
X14962013Y47579213D01*
X15091225Y47381438D01*
X15197802Y47265666D01*
X15251227Y47207632D01*
X15437654Y47062530D01*
X15645421Y46950092D01*
X15868861Y46873384D01*
X16101880Y46834500D01*
X16101881Y46834500D01*
X16338119Y46834500D01*
X16338120Y46834500D01*
X16571139Y46873384D01*
X16794579Y46950092D01*
X17002346Y47062530D01*
X17188773Y47207632D01*
X17348775Y47381439D01*
X17477986Y47579212D01*
X17572883Y47795555D01*
X17630876Y48024566D01*
X17650385Y48259995D01*
X18989615Y48259995D01*
X19009123Y48024570D01*
X19067117Y47795555D01*
X19162013Y47579213D01*
X19291225Y47381438D01*
X19397802Y47265666D01*
X19451227Y47207632D01*
X19637654Y47062530D01*
X19845421Y46950092D01*
X20068861Y46873384D01*
X20301880Y46834500D01*
X20301881Y46834500D01*
X20538119Y46834500D01*
X20538120Y46834500D01*
X20771139Y46873384D01*
X20994579Y46950092D01*
X21202346Y47062530D01*
X21388773Y47207632D01*
X21548775Y47381439D01*
X21677986Y47579212D01*
X21772883Y47795555D01*
X21830876Y48024566D01*
X21850385Y48259995D01*
X23189615Y48259995D01*
X23209123Y48024570D01*
X23267117Y47795555D01*
X23362013Y47579213D01*
X23491225Y47381438D01*
X23597802Y47265666D01*
X23651227Y47207632D01*
X23837654Y47062530D01*
X24045421Y46950092D01*
X24268861Y46873384D01*
X24501880Y46834500D01*
X24501881Y46834500D01*
X24738119Y46834500D01*
X24738120Y46834500D01*
X24971139Y46873384D01*
X25194579Y46950092D01*
X25402346Y47062530D01*
X25588773Y47207632D01*
X25748775Y47381439D01*
X25877986Y47579212D01*
X25972883Y47795555D01*
X26030876Y48024566D01*
X26050385Y48259995D01*
X27389615Y48259995D01*
X27409123Y48024570D01*
X27467117Y47795555D01*
X27562013Y47579213D01*
X27691225Y47381438D01*
X27797802Y47265666D01*
X27851227Y47207632D01*
X28037654Y47062530D01*
X28245421Y46950092D01*
X28468861Y46873384D01*
X28701880Y46834500D01*
X28701881Y46834500D01*
X28938119Y46834500D01*
X28938120Y46834500D01*
X29171139Y46873384D01*
X29394579Y46950092D01*
X29602346Y47062530D01*
X29788773Y47207632D01*
X29948775Y47381439D01*
X30049100Y47534999D01*
X31594500Y47534999D01*
X31594501Y47534982D01*
X31605000Y47432204D01*
X31605001Y47432201D01*
X31660185Y47265669D01*
X31660186Y47265666D01*
X31752288Y47116344D01*
X31876344Y46992288D01*
X32025666Y46900186D01*
X32192203Y46845001D01*
X32294991Y46834500D01*
X33745008Y46834501D01*
X33847797Y46845001D01*
X34014334Y46900186D01*
X34163656Y46992288D01*
X34287712Y47116344D01*
X34379814Y47265666D01*
X34434999Y47432203D01*
X34445500Y47534991D01*
X34445499Y48985008D01*
X34434999Y49087797D01*
X34379814Y49254334D01*
X34287712Y49403656D01*
X34163656Y49527712D01*
X34014334Y49619814D01*
X33847797Y49674999D01*
X33847795Y49675000D01*
X33745010Y49685500D01*
X32294998Y49685500D01*
X32294981Y49685499D01*
X32192203Y49675000D01*
X32192200Y49674999D01*
X32025668Y49619815D01*
X32025663Y49619813D01*
X31876342Y49527711D01*
X31752289Y49403658D01*
X31660187Y49254337D01*
X31660186Y49254334D01*
X31605001Y49087797D01*
X31605001Y49087796D01*
X31605000Y49087796D01*
X31594500Y48985017D01*
X31594500Y47534999D01*
X30049100Y47534999D01*
X30077986Y47579212D01*
X30172883Y47795555D01*
X30230876Y48024566D01*
X30250385Y48260000D01*
X30230876Y48495434D01*
X30172883Y48724445D01*
X30077986Y48940788D01*
X30049089Y48985019D01*
X29948774Y49138563D01*
X29788776Y49312365D01*
X29788775Y49312366D01*
X29788773Y49312368D01*
X29671484Y49403658D01*
X29602348Y49457469D01*
X29394580Y49569908D01*
X29394571Y49569911D01*
X29171141Y49646616D01*
X29001043Y49675000D01*
X28938120Y49685500D01*
X28701880Y49685500D01*
X28643625Y49675779D01*
X28468858Y49646616D01*
X28245428Y49569911D01*
X28245419Y49569908D01*
X28037651Y49457469D01*
X27851228Y49312369D01*
X27851223Y49312365D01*
X27691225Y49138563D01*
X27562013Y48940788D01*
X27467117Y48724446D01*
X27409123Y48495431D01*
X27389615Y48260006D01*
X27389615Y48259995D01*
X26050385Y48259995D01*
X26050385Y48260000D01*
X26030876Y48495434D01*
X25972883Y48724445D01*
X25877986Y48940788D01*
X25849089Y48985019D01*
X25748774Y49138563D01*
X25588776Y49312365D01*
X25588775Y49312366D01*
X25588773Y49312368D01*
X25471484Y49403658D01*
X25402348Y49457469D01*
X25194580Y49569908D01*
X25194571Y49569911D01*
X24971141Y49646616D01*
X24801043Y49675000D01*
X24738120Y49685500D01*
X24501880Y49685500D01*
X24443625Y49675779D01*
X24268858Y49646616D01*
X24045428Y49569911D01*
X24045419Y49569908D01*
X23837651Y49457469D01*
X23651228Y49312369D01*
X23651223Y49312365D01*
X23491225Y49138563D01*
X23362013Y48940788D01*
X23267117Y48724446D01*
X23209123Y48495431D01*
X23189615Y48260006D01*
X23189615Y48259995D01*
X21850385Y48259995D01*
X21850385Y48260000D01*
X21830876Y48495434D01*
X21772883Y48724445D01*
X21677986Y48940788D01*
X21649089Y48985019D01*
X21548774Y49138563D01*
X21388776Y49312365D01*
X21388775Y49312366D01*
X21388773Y49312368D01*
X21271484Y49403658D01*
X21202348Y49457469D01*
X20994580Y49569908D01*
X20994571Y49569911D01*
X20771141Y49646616D01*
X20601043Y49675000D01*
X20538120Y49685500D01*
X20301880Y49685500D01*
X20243625Y49675779D01*
X20068858Y49646616D01*
X19845428Y49569911D01*
X19845419Y49569908D01*
X19637651Y49457469D01*
X19451228Y49312369D01*
X19451223Y49312365D01*
X19291225Y49138563D01*
X19162013Y48940788D01*
X19067117Y48724446D01*
X19009123Y48495431D01*
X18989615Y48260006D01*
X18989615Y48259995D01*
X17650385Y48259995D01*
X17650385Y48260000D01*
X17630876Y48495434D01*
X17572883Y48724445D01*
X17477986Y48940788D01*
X17449089Y48985019D01*
X17348774Y49138563D01*
X17188776Y49312365D01*
X17188775Y49312366D01*
X17188773Y49312368D01*
X17071484Y49403658D01*
X17002348Y49457469D01*
X16794580Y49569908D01*
X16794571Y49569911D01*
X16571141Y49646616D01*
X16401043Y49675000D01*
X16338120Y49685500D01*
X16101880Y49685500D01*
X16043625Y49675779D01*
X15868858Y49646616D01*
X15645428Y49569911D01*
X15645419Y49569908D01*
X15437651Y49457469D01*
X15251228Y49312369D01*
X15251223Y49312365D01*
X15091225Y49138563D01*
X14962013Y48940788D01*
X14867117Y48724446D01*
X14809123Y48495431D01*
X14789615Y48260006D01*
X14789615Y48259995D01*
X635000Y48259995D01*
X635000Y53216000D01*
X654685Y53283039D01*
X707489Y53328794D01*
X759000Y53340000D01*
X57026000Y53340000D01*
X57093039Y53320315D01*
G37*
G04 #@! TD.AperFunction*
G04 #@! TD*
M02*
