M48
; DRILL file {KiCad 7.0.10-7.0.10~ubuntu22.04.1} date St 13. března 2024, 13:14:27
; FORMAT={3:3/ absolute / metric / suppress leading zeros}
; #@! TF.CreationDate,2024-03-13T13:14:27+01:00
; #@! TF.GenerationSoftware,Kicad,Pcbnew,7.0.10-7.0.10~ubuntu22.04.1
; #@! TF.FileFunction,MixedPlating,1,2
FMAT,2
METRIC,TZ
; #@! TA.AperFunction,Plated,PTH,ComponentDrill
T1C0.700
; #@! TA.AperFunction,Plated,PTH,ViaDrill
T2C0.800
; #@! TA.AperFunction,Plated,PTH,ComponentDrill
T3C0.850
; #@! TA.AperFunction,NonPlated,NPTH,ComponentDrill
T4C2.000
; #@! TA.AperFunction,NonPlated,NPTH,ComponentDrill
T5C2.200
; #@! TA.AperFunction,NonPlated,NPTH,ComponentDrill
T6C3.200
%
G90
G05
T1
X8890Y12700
X12890Y12700
X17780Y12700
X21780Y12700
X35560Y12700
X39560Y12700
X44450Y12700
X48450Y12700
T2
X6350Y25400
X6350Y12700
X13970Y45720
X33020Y25400
X33020Y12700
X35280Y41910
T3
X16220Y48260
X20420Y48260
X24620Y48260
X28820Y48260
X33020Y48260
T4
X8890Y3700
X12890Y3700
X17780Y3700
X21780Y3700
X35560Y3700
X39560Y3700
X44450Y3700
X48450Y3700
T5
X16220Y58460
X20420Y58460
X24620Y58460
X28820Y58460
X33020Y58460
T6
X3810Y57150
X3810Y3810
X53975Y57150
X53975Y3810
M30
