M48
; DRILL file {KiCad 8.0.7-8.0.7-0~ubuntu24.04.1} date 2025-01-06T12:10:34+0100
; FORMAT={3:3/ absolute / metric / suppress leading zeros}
; #@! TF.CreationDate,2025-01-06T12:10:34+01:00
; #@! TF.GenerationSoftware,Kicad,Pcbnew,8.0.7-8.0.7-0~ubuntu24.04.1
; #@! TF.FileFunction,MixedPlating,1,2
FMAT,2
METRIC,TZ
; #@! TA.AperFunction,Plated,PTH,ViaDrill
T1C0.800
; #@! TA.AperFunction,Plated,PTH,ComponentDrill
T2C0.800
; #@! TA.AperFunction,Plated,PTH,ComponentDrill
T3C0.890
; #@! TA.AperFunction,Plated,PTH,ComponentDrill
T4C1.000
; #@! TA.AperFunction,Plated,PTH,ComponentDrill
T5C1.190
; #@! TA.AperFunction,Plated,PTH,ComponentDrill
T6C1.600
; #@! TA.AperFunction,Plated,PTH,ComponentDrill
T7C3.200
; #@! TA.AperFunction,NonPlated,NPTH,ComponentDrill
T8C3.200
; #@! TA.AperFunction,NonPlated,NPTH,ComponentDrill
T9C3.250
%
G90
G05
T1
X7620Y21590
X7620Y10160
X15240Y28295
X15240Y14605
X50165Y17145
X50165Y7340
X59690Y26035
X59690Y17145
X62155Y8890
X62230Y19685
X81915Y15240
X88900Y15875
T2
X20320Y17643
X20320Y12643
X42682Y8890
X47682Y8890
T3
X84985Y19685
X84985Y17145
X84985Y14605
X84985Y12065
X87525Y18415
X87525Y15875
X87525Y13335
X87525Y10795
T4
X20320Y27768
X20320Y22768
X29210Y29210
X29210Y19050
X31750Y29210
X31750Y19050
X39370Y29210
X39370Y19050
X44450Y29210
X44450Y19050
X71120Y22860
X71120Y20320
X71120Y17780
X71120Y15240
X71120Y12700
X71120Y10160
X71120Y7620
X71120Y5080
T5
X3810Y19050
X3810Y16510
X3810Y13970
X3810Y11430
X11450Y26670
X11450Y24130
X11450Y21590
X11450Y19050
T6
X90825Y22985
X90825Y7495
T7
X78810Y5080
T8
X3810Y25080
X3810Y5080
X78810Y25080
T9
X93875Y20955
X93875Y9525
M30
