M48
; DRILL file {KiCad 5.1.10-88a1d61d58~90~ubuntu20.04.1} date Sat Dec 17 16:22:07 2022
; FORMAT={3:3/ absolute / metric / suppress leading zeros}
; #@! TF.CreationDate,2022-12-17T16:22:07+01:00
; #@! TF.GenerationSoftware,Kicad,Pcbnew,5.1.10-88a1d61d58~90~ubuntu20.04.1
FMAT,2
METRIC,TZ
T1C0.500
T2C0.800
T3C1.000
T4C1.190
T5C1.900
T6C2.000
T7C3.200
%
G90
G05
T1
X8890Y34290
X8890Y29210
X10160Y50800
X10160Y48260
X10160Y38100
X10160Y35560
X10160Y33020
X10160Y30480
X10160Y27940
X10160Y25400
X11430Y55880
X11430Y49530
X11430Y43180
X11430Y36830
X11430Y31750
X11430Y26670
X11430Y24130
X12700Y57150
X12700Y54610
X12700Y44450
X12700Y41910
X12700Y22860
X13970Y24130
X15820Y30920
X15820Y29660
X16570Y31950
X16570Y28630
X17770Y32340
X17770Y28240
X19100Y32340
X19100Y28240
X20440Y32340
X20440Y28240
X21770Y32340
X21770Y28240
X22970Y31950
X22970Y28630
X23720Y30920
X23720Y29660
X25820Y30920
X25820Y29660
X26570Y31950
X26570Y28630
X27770Y32340
X27770Y28240
X29100Y32340
X29100Y28240
X30440Y32340
X30440Y28240
X31770Y32340
X31770Y28240
X32970Y31950
X32970Y28630
X33720Y30920
X33720Y29660
X35560Y24130
X36830Y57150
X36830Y54610
X36830Y44450
X36830Y41910
X36830Y22860
X38100Y55880
X38100Y49530
X38100Y43180
X38100Y36830
X38100Y31750
X38100Y26670
X38100Y24130
X39370Y50800
X39370Y48260
X39370Y38100
X39370Y35560
X39370Y33020
X39370Y30480
X39370Y27940
X39370Y25400
X40640Y34290
X40640Y29210
T2
X22860Y8890
X24770Y8890
X26680Y8890
T3
X12700Y52070
X12700Y46990
X12700Y39370
X12700Y34290
X36830Y52070
X36830Y46990
X36830Y39370
X36830Y34290
T4
X22860Y3810
X25400Y3810
X27940Y3810
T5
X17950Y49330
X17950Y36830
X21750Y49330
X21750Y36830
X27950Y49330
X27950Y36830
X31750Y49330
X31750Y36830
T7
X3810Y55880
X3810Y3810
X46990Y55880
X46990Y3810
T6
G00X17770Y30290
M15
G01X21770Y30290
M16
G05
G00X27770Y30290
M15
G01X31770Y30290
M16
G05
T0
M30
