M48
; DRILL file {KiCad 5.1.10-88a1d61d58~90~ubuntu20.04.1} date Sat Feb  4 19:14:04 2023
; FORMAT={3:3/ absolute / metric / suppress leading zeros}
; #@! TF.CreationDate,2023-02-04T19:14:04+01:00
; #@! TF.GenerationSoftware,Kicad,Pcbnew,5.1.10-88a1d61d58~90~ubuntu20.04.1
FMAT,2
METRIC,TZ
T1C0.762
T2C0.800
T3C0.900
T4C1.000
T5C1.100
T6C1.190
T7C1.300
T8C3.200
%
G90
G05
T1
X80010Y73660
X80010Y53340
X82550Y73660
X82550Y53340
X85090Y73660
X85090Y53340
X87630Y73660
X87630Y53340
X90170Y73660
X90170Y53340
X92710Y73660
X92710Y53340
T2
X20320Y30480
X20320Y21590
X21590Y15240
X22860Y27940
X22860Y21590
X27940Y21550
X27940Y19050
X29210Y69850
X29210Y40640
X33020Y39370
X33020Y33020
X35560Y39370
X35560Y31750
X35560Y17780
X38100Y41910
X39370Y36830
X39370Y11430
X41910Y55880
X41910Y46990
X41913Y8893
X44450Y60960
X44450Y54610
X44450Y52209
X44450Y46990
X46990Y69850
X46990Y67350
X46990Y62230
X46990Y52209
X53340Y5318
X59690Y60960
X59690Y50800
X59690Y35990
X59690Y25400
X67307Y13973
X67310Y8890
X68580Y3810
X71120Y58420
X71120Y55880
X71120Y11430
X71120Y3810
X73660Y11430
X73660Y3810
X76200Y11430
X76200Y3810
X78740Y11430
X78740Y3810
X80010Y13970
X82550Y41910
X87630Y58420
X95250Y55880
T3
X12700Y50800
X15240Y50800
X71120Y53340
X71120Y50800
T4
X3810Y72390
X3810Y69850
X3810Y39370
X6350Y72390
X6350Y69850
X6350Y39370
X8890Y72390
X8890Y69850
X8890Y39370
X10160Y30480
X10160Y27940
X11430Y72390
X11430Y69850
X12700Y39370
X12700Y36830
X12700Y30480
X12700Y27940
X13970Y21590
X13970Y13990
X15240Y39370
X15240Y36830
X15240Y30480
X15240Y27940
X16510Y72390
X16510Y69850
X17780Y39370
X17780Y36830
X17780Y30480
X17780Y27940
X19050Y72390
X19050Y69850
X20320Y39370
X20320Y36830
X20320Y11430
X20320Y8890
X21590Y72390
X21590Y69850
X24130Y72390
X24130Y69850
X25400Y30480
X25400Y27940
X27940Y30480
X27940Y27940
X30480Y30480
X30480Y27940
X33020Y30480
X33020Y27940
X34290Y53340
X36830Y53340
X39370Y53340
X41910Y44450
X41910Y38100
X41910Y22860
X41910Y16510
X44450Y44450
X44450Y38100
X44450Y22860
X44450Y16510
X46990Y44450
X46990Y38100
X46990Y22860
X46990Y16510
X49530Y44450
X49530Y38100
X49530Y22860
X49530Y16510
X52070Y44450
X52070Y38100
X52070Y22860
X52070Y16510
X54610Y44450
X54610Y38100
X54610Y22860
X54610Y16510
X57150Y44450
X57150Y38100
X57150Y22860
X57150Y16510
X59690Y44450
X59690Y38100
X59690Y22860
X59690Y16510
X62230Y44450
X62230Y38100
X62230Y22860
X62230Y16510
X64770Y44450
X64770Y38100
X64770Y22860
X64770Y16510
X67310Y44450
X67310Y38100
X67310Y22860
X67310Y16510
X69850Y44450
X69850Y38100
X69850Y22860
X69850Y16510
X72390Y44450
X72390Y38100
X72390Y22860
X72390Y16510
X74930Y44450
X74930Y38100
X74930Y22860
X74930Y16510
X77470Y44450
X77470Y38100
X77470Y22860
X77470Y16510
X80010Y44450
X80010Y38100
X80010Y22860
X80010Y16510
X82550Y44450
X82550Y38100
X82550Y22860
X82550Y16510
X85090Y44450
X85090Y38100
X85090Y22860
X85090Y16510
X87630Y44450
X87630Y38100
X87630Y22860
X87630Y16510
X90170Y44450
X90170Y38100
X90170Y22860
X90170Y16510
X93980Y12700
X93980Y10160
X93980Y7620
X93980Y5080
X96520Y12700
X96520Y10160
X96520Y7620
X96520Y5080
T5
X24130Y9040
X24130Y2540
X28630Y9040
X28630Y2540
X33020Y9040
X33020Y2540
X37520Y9040
X37520Y2540
T6
X3810Y50800
X3810Y48260
X3810Y45720
X3810Y43180
X3810Y35560
X3810Y33020
X3810Y30480
X3810Y27940
X3810Y24130
X3810Y21590
X3810Y19050
X3810Y16510
X20320Y50800
X20320Y48260
X20320Y45720
X46990Y8890
X49530Y8890
X52070Y8890
X54610Y72390
X54610Y69850
X54610Y67310
X54610Y64770
X54610Y60960
X54610Y58420
X54610Y55880
X54610Y53340
X57150Y8890
X59690Y8890
X62230Y8890
X64770Y72390
X64770Y69850
X64770Y67310
X64770Y64770
X64770Y60960
X64770Y58420
X64770Y55880
X64770Y53340
T7
X34370Y68580
X39370Y68580
T8
X3810Y63500
X3810Y3810
X86360Y64770
X86360Y3810
T0
M30
