%TF.GenerationSoftware,KiCad,Pcbnew,5.1.10-88a1d61d58~90~ubuntu20.04.1*%
%TF.CreationDate,2023-02-04T18:34:01+01:00*%
%TF.ProjectId,zvire-vetrnik-power-supply,7a766972-652d-4766-9574-726e696b2d70,rev?*%
%TF.SameCoordinates,PX3c8eee0PY791ddc0*%
%TF.FileFunction,Copper,L2,Bot*%
%TF.FilePolarity,Positive*%
%FSLAX46Y46*%
G04 Gerber Fmt 4.6, Leading zero omitted, Abs format (unit mm)*
G04 Created by KiCad (PCBNEW 5.1.10-88a1d61d58~90~ubuntu20.04.1) date 2023-02-04 18:34:01*
%MOMM*%
%LPD*%
G01*
G04 APERTURE LIST*
%TA.AperFunction,ComponentPad*%
%ADD10O,1.905000X2.000000*%
%TD*%
%TA.AperFunction,ComponentPad*%
%ADD11R,1.905000X2.000000*%
%TD*%
%TA.AperFunction,ComponentPad*%
%ADD12O,1.275000X1.800000*%
%TD*%
%TA.AperFunction,ComponentPad*%
%ADD13R,1.275000X1.800000*%
%TD*%
%TA.AperFunction,SMDPad,CuDef*%
%ADD14R,2.900000X5.400000*%
%TD*%
%TA.AperFunction,ComponentPad*%
%ADD15O,1.700000X1.700000*%
%TD*%
%TA.AperFunction,ComponentPad*%
%ADD16R,1.700000X1.700000*%
%TD*%
%TA.AperFunction,ComponentPad*%
%ADD17O,2.190000X1.740000*%
%TD*%
%TA.AperFunction,SMDPad,CuDef*%
%ADD18R,3.300000X4.500000*%
%TD*%
%TA.AperFunction,ComponentPad*%
%ADD19C,1.600000*%
%TD*%
%TA.AperFunction,ComponentPad*%
%ADD20R,1.600000X1.600000*%
%TD*%
%TA.AperFunction,ViaPad*%
%ADD21C,1.800000*%
%TD*%
%TA.AperFunction,Conductor*%
%ADD22C,1.000000*%
%TD*%
%TA.AperFunction,Conductor*%
%ADD23C,1.200000*%
%TD*%
%TA.AperFunction,Conductor*%
%ADD24C,1.500000*%
%TD*%
G04 APERTURE END LIST*
D10*
%TO.P,U2,3*%
%TO.N,Net-(C7-Pad1)*%
X52070000Y11430000D03*
%TO.P,U2,2*%
%TO.N,GND*%
X49530000Y11430000D03*
D11*
%TO.P,U2,1*%
%TO.N,+12V*%
X46990000Y11430000D03*
%TD*%
D12*
%TO.P,U1,5*%
%TO.N,GND*%
X29660000Y3810000D03*
%TO.P,U1,4*%
%TO.N,Net-(C3-Pad1)*%
X27960000Y3810000D03*
%TO.P,U1,3*%
%TO.N,GND*%
X26260000Y3810000D03*
%TO.P,U1,2*%
%TO.N,Net-(D1-Pad1)*%
X24560000Y3810000D03*
D13*
%TO.P,U1,1*%
%TO.N,+12V*%
X22860000Y3810000D03*
%TD*%
D14*
%TO.P,L1,2*%
%TO.N,Net-(C3-Pad1)*%
X32890000Y12700000D03*
%TO.P,L1,1*%
%TO.N,Net-(D1-Pad1)*%
X22990000Y12700000D03*
%TD*%
D15*
%TO.P,JP3,2*%
%TO.N,+3V3*%
X38735000Y18415000D03*
D16*
%TO.P,JP3,1*%
%TO.N,Net-(C3-Pad1)*%
X36195000Y18415000D03*
%TD*%
D15*
%TO.P,JP2,2*%
%TO.N,+5V*%
X55245000Y6350000D03*
D16*
%TO.P,JP2,1*%
%TO.N,Net-(C7-Pad1)*%
X52705000Y6350000D03*
%TD*%
D15*
%TO.P,JP1,2*%
%TO.N,+12V*%
X12065000Y18415000D03*
D16*
%TO.P,JP1,1*%
%TO.N,Net-(J1-Pad2)*%
X9525000Y18415000D03*
%TD*%
D17*
%TO.P,J4,4*%
%TO.N,+12V*%
X76200000Y3810000D03*
%TO.P,J4,3*%
%TO.N,+5V*%
X76200000Y6350000D03*
%TO.P,J4,2*%
%TO.N,+3V3*%
X76200000Y8890000D03*
%TO.P,J4,1*%
%TO.N,GND*%
%TA.AperFunction,ComponentPad*%
G36*
G01*
X75354999Y12300000D02*
X77045001Y12300000D01*
G75*
G02*
X77295000Y12050001I0J-249999D01*
G01*
X77295000Y10809999D01*
G75*
G02*
X77045001Y10560000I-249999J0D01*
G01*
X75354999Y10560000D01*
G75*
G02*
X75105000Y10809999I0J249999D01*
G01*
X75105000Y12050001D01*
G75*
G02*
X75354999Y12300000I249999J0D01*
G01*
G37*
%TD.AperFunction*%
%TD*%
%TO.P,J3,4*%
%TO.N,+12V*%
X68580000Y3810000D03*
%TO.P,J3,3*%
%TO.N,+5V*%
X68580000Y6350000D03*
%TO.P,J3,2*%
%TO.N,+3V3*%
X68580000Y8890000D03*
%TO.P,J3,1*%
%TO.N,GND*%
%TA.AperFunction,ComponentPad*%
G36*
G01*
X67734999Y12300000D02*
X69425001Y12300000D01*
G75*
G02*
X69675000Y12050001I0J-249999D01*
G01*
X69675000Y10809999D01*
G75*
G02*
X69425001Y10560000I-249999J0D01*
G01*
X67734999Y10560000D01*
G75*
G02*
X67485000Y10809999I0J249999D01*
G01*
X67485000Y12050001D01*
G75*
G02*
X67734999Y12300000I249999J0D01*
G01*
G37*
%TD.AperFunction*%
%TD*%
%TO.P,J2,4*%
%TO.N,+12V*%
X60960000Y3810000D03*
%TO.P,J2,3*%
%TO.N,+5V*%
X60960000Y6350000D03*
%TO.P,J2,2*%
%TO.N,+3V3*%
X60960000Y8890000D03*
%TO.P,J2,1*%
%TO.N,GND*%
%TA.AperFunction,ComponentPad*%
G36*
G01*
X60114999Y12300000D02*
X61805001Y12300000D01*
G75*
G02*
X62055000Y12050001I0J-249999D01*
G01*
X62055000Y10809999D01*
G75*
G02*
X61805001Y10560000I-249999J0D01*
G01*
X60114999Y10560000D01*
G75*
G02*
X59865000Y10809999I0J249999D01*
G01*
X59865000Y12050001D01*
G75*
G02*
X60114999Y12300000I249999J0D01*
G01*
G37*
%TD.AperFunction*%
%TD*%
%TO.P,J1,2*%
%TO.N,Net-(J1-Pad2)*%
X3810000Y12065000D03*
%TO.P,J1,1*%
%TO.N,GND*%
%TA.AperFunction,ComponentPad*%
G36*
G01*
X4655001Y8655000D02*
X2964999Y8655000D01*
G75*
G02*
X2715000Y8904999I0J249999D01*
G01*
X2715000Y10145001D01*
G75*
G02*
X2964999Y10395000I249999J0D01*
G01*
X4655001Y10395000D01*
G75*
G02*
X4905000Y10145001I0J-249999D01*
G01*
X4905000Y8904999D01*
G75*
G02*
X4655001Y8655000I-249999J0D01*
G01*
G37*
%TD.AperFunction*%
%TD*%
D18*
%TO.P,D1,2*%
%TO.N,GND*%
X17145000Y3220000D03*
%TO.P,D1,1*%
%TO.N,Net-(D1-Pad1)*%
X17145000Y12020000D03*
%TD*%
%TO.P,C7,2*%
%TO.N,GND*%
%TA.AperFunction,SMDPad,CuDef*%
G36*
G01*
X52440000Y14620001D02*
X52440000Y13319999D01*
G75*
G02*
X52190001Y13070000I-249999J0D01*
G01*
X51364999Y13070000D01*
G75*
G02*
X51115000Y13319999I0J249999D01*
G01*
X51115000Y14620001D01*
G75*
G02*
X51364999Y14870000I249999J0D01*
G01*
X52190001Y14870000D01*
G75*
G02*
X52440000Y14620001I0J-249999D01*
G01*
G37*
%TD.AperFunction*%
%TO.P,C7,1*%
%TO.N,Net-(C7-Pad1)*%
%TA.AperFunction,SMDPad,CuDef*%
G36*
G01*
X55565000Y14620001D02*
X55565000Y13319999D01*
G75*
G02*
X55315001Y13070000I-249999J0D01*
G01*
X54489999Y13070000D01*
G75*
G02*
X54240000Y13319999I0J249999D01*
G01*
X54240000Y14620001D01*
G75*
G02*
X54489999Y14870000I249999J0D01*
G01*
X55315001Y14870000D01*
G75*
G02*
X55565000Y14620001I0J-249999D01*
G01*
G37*
%TD.AperFunction*%
%TD*%
%TO.P,C6,2*%
%TO.N,GND*%
%TA.AperFunction,SMDPad,CuDef*%
G36*
G01*
X49160000Y8239999D02*
X49160000Y9540001D01*
G75*
G02*
X49409999Y9790000I249999J0D01*
G01*
X50235001Y9790000D01*
G75*
G02*
X50485000Y9540001I0J-249999D01*
G01*
X50485000Y8239999D01*
G75*
G02*
X50235001Y7990000I-249999J0D01*
G01*
X49409999Y7990000D01*
G75*
G02*
X49160000Y8239999I0J249999D01*
G01*
G37*
%TD.AperFunction*%
%TO.P,C6,1*%
%TO.N,+12V*%
%TA.AperFunction,SMDPad,CuDef*%
G36*
G01*
X46035000Y8239999D02*
X46035000Y9540001D01*
G75*
G02*
X46284999Y9790000I249999J0D01*
G01*
X47110001Y9790000D01*
G75*
G02*
X47360000Y9540001I0J-249999D01*
G01*
X47360000Y8239999D01*
G75*
G02*
X47110001Y7990000I-249999J0D01*
G01*
X46284999Y7990000D01*
G75*
G02*
X46035000Y8239999I0J249999D01*
G01*
G37*
%TD.AperFunction*%
%TD*%
%TO.P,C5,2*%
%TO.N,GND*%
%TA.AperFunction,SMDPad,CuDef*%
G36*
G01*
X49160000Y13324697D02*
X49160000Y14624699D01*
G75*
G02*
X49409999Y14874698I249999J0D01*
G01*
X50235001Y14874698D01*
G75*
G02*
X50485000Y14624699I0J-249999D01*
G01*
X50485000Y13324697D01*
G75*
G02*
X50235001Y13074698I-249999J0D01*
G01*
X49409999Y13074698D01*
G75*
G02*
X49160000Y13324697I0J249999D01*
G01*
G37*
%TD.AperFunction*%
%TO.P,C5,1*%
%TO.N,+12V*%
%TA.AperFunction,SMDPad,CuDef*%
G36*
G01*
X46035000Y13324697D02*
X46035000Y14624699D01*
G75*
G02*
X46284999Y14874698I249999J0D01*
G01*
X47110001Y14874698D01*
G75*
G02*
X47360000Y14624699I0J-249999D01*
G01*
X47360000Y13324697D01*
G75*
G02*
X47110001Y13074698I-249999J0D01*
G01*
X46284999Y13074698D01*
G75*
G02*
X46035000Y13324697I0J249999D01*
G01*
G37*
%TD.AperFunction*%
%TD*%
%TO.P,C4,2*%
%TO.N,GND*%
%TA.AperFunction,SMDPad,CuDef*%
G36*
G01*
X32369999Y2275000D02*
X33670001Y2275000D01*
G75*
G02*
X33920000Y2025001I0J-249999D01*
G01*
X33920000Y1199999D01*
G75*
G02*
X33670001Y950000I-249999J0D01*
G01*
X32369999Y950000D01*
G75*
G02*
X32120000Y1199999I0J249999D01*
G01*
X32120000Y2025001D01*
G75*
G02*
X32369999Y2275000I249999J0D01*
G01*
G37*
%TD.AperFunction*%
%TO.P,C4,1*%
%TO.N,Net-(C3-Pad1)*%
%TA.AperFunction,SMDPad,CuDef*%
G36*
G01*
X32369999Y5400000D02*
X33670001Y5400000D01*
G75*
G02*
X33920000Y5150001I0J-249999D01*
G01*
X33920000Y4324999D01*
G75*
G02*
X33670001Y4075000I-249999J0D01*
G01*
X32369999Y4075000D01*
G75*
G02*
X32120000Y4324999I0J249999D01*
G01*
X32120000Y5150001D01*
G75*
G02*
X32369999Y5400000I249999J0D01*
G01*
G37*
%TD.AperFunction*%
%TD*%
D19*
%TO.P,C3,2*%
%TO.N,GND*%
X38735000Y3810000D03*
D20*
%TO.P,C3,1*%
%TO.N,Net-(C3-Pad1)*%
X38735000Y7310000D03*
%TD*%
%TO.P,C2,2*%
%TO.N,GND*%
%TA.AperFunction,SMDPad,CuDef*%
G36*
G01*
X8975000Y10005000D02*
X10075000Y10005000D01*
G75*
G02*
X10325000Y9755000I0J-250000D01*
G01*
X10325000Y6755000D01*
G75*
G02*
X10075000Y6505000I-250000J0D01*
G01*
X8975000Y6505000D01*
G75*
G02*
X8725000Y6755000I0J250000D01*
G01*
X8725000Y9755000D01*
G75*
G02*
X8975000Y10005000I250000J0D01*
G01*
G37*
%TD.AperFunction*%
%TO.P,C2,1*%
%TO.N,+12V*%
%TA.AperFunction,SMDPad,CuDef*%
G36*
G01*
X8975000Y15405000D02*
X10075000Y15405000D01*
G75*
G02*
X10325000Y15155000I0J-250000D01*
G01*
X10325000Y12155000D01*
G75*
G02*
X10075000Y11905000I-250000J0D01*
G01*
X8975000Y11905000D01*
G75*
G02*
X8725000Y12155000I0J250000D01*
G01*
X8725000Y15155000D01*
G75*
G02*
X8975000Y15405000I250000J0D01*
G01*
G37*
%TD.AperFunction*%
%TD*%
D19*
%TO.P,C1,2*%
%TO.N,GND*%
X12065000Y2850000D03*
D20*
%TO.P,C1,1*%
%TO.N,+12V*%
X12065000Y6350000D03*
%TD*%
D21*
%TO.N,GND*%
X49530000Y6350000D03*
X49530000Y1905000D03*
%TO.N,+12V*%
X14605000Y18415000D03*
X43180000Y11430000D03*
%TD*%
D22*
%TO.N,GND*%
X26260000Y2130000D02*
X25889990Y1759990D01*
D23*
X26260000Y3810000D02*
X26260000Y2130000D01*
D22*
X29660000Y1799980D02*
X29699990Y1759990D01*
D23*
X29660000Y3810000D02*
X29660000Y1799980D01*
D24*
X25889990Y1759990D02*
X29699990Y1759990D01*
X60960000Y11430000D02*
X68580000Y11430000D01*
X68580000Y11430000D02*
X76200000Y11430000D01*
X16510000Y2249980D02*
X16020010Y1759990D01*
X16510000Y3220000D02*
X16510000Y2249980D01*
X16020010Y1759990D02*
X12250008Y1759990D01*
X25889990Y1759990D02*
X16020010Y1759990D01*
D22*
X49827198Y13970000D02*
X49822500Y13974698D01*
X51777500Y13970000D02*
X49827198Y13970000D01*
D24*
X12065000Y1944998D02*
X12250008Y1759990D01*
X12065000Y2850000D02*
X12065000Y1944998D01*
D22*
X29847480Y1612500D02*
X29699990Y1759990D01*
X33020000Y1612500D02*
X29847480Y1612500D01*
D24*
X9525000Y4484998D02*
X12065000Y1944998D01*
X9525000Y8255000D02*
X9525000Y4484998D01*
X8255000Y9525000D02*
X9525000Y8255000D01*
X3810000Y9525000D02*
X8255000Y9525000D01*
D22*
X49530000Y13682198D02*
X49822500Y13974698D01*
X49530000Y11430000D02*
X49530000Y13682198D01*
X49822500Y11137500D02*
X49530000Y11430000D01*
X49822500Y8890000D02*
X49822500Y11137500D01*
D24*
X49530000Y11430000D02*
X49530000Y6350000D01*
X49237500Y1612500D02*
X49530000Y1905000D01*
X38735000Y1905000D02*
X38442500Y1612500D01*
X38735000Y3810000D02*
X38735000Y1905000D01*
X38442500Y1612500D02*
X49237500Y1612500D01*
X29847480Y1612500D02*
X38442500Y1612500D01*
X49645010Y1789990D02*
X49530000Y1905000D01*
X77261715Y1789990D02*
X49645010Y1789990D01*
X78445010Y2973285D02*
X77261715Y1789990D01*
X78445010Y10454990D02*
X78445010Y2973285D01*
X77470000Y11430000D02*
X78445010Y10454990D01*
X76200000Y11430000D02*
X77470000Y11430000D01*
%TO.N,+12V*%
X60960000Y3810000D02*
X68580000Y3810000D01*
X68580000Y3810000D02*
X76200000Y3810000D01*
X19050000Y7620000D02*
X13335000Y7620000D01*
X22772490Y3897510D02*
X19050000Y7620000D01*
X22772490Y3810000D02*
X22772490Y3897510D01*
D22*
X46697500Y11137500D02*
X46990000Y11430000D01*
X46697500Y8890000D02*
X46697500Y11137500D01*
X46697500Y11722500D02*
X46990000Y11430000D01*
X46697500Y13974698D02*
X46697500Y11722500D01*
D24*
X13335000Y7620000D02*
X12065000Y7620000D01*
X12065000Y7620000D02*
X12065000Y6350000D01*
X9525000Y13655000D02*
X9525000Y15240000D01*
X9525000Y15240000D02*
X10160000Y15875000D01*
X12065000Y15875000D02*
X12065000Y7620000D01*
X10160000Y15875000D02*
X12065000Y15875000D01*
X12065000Y18415000D02*
X12065000Y15875000D01*
D23*
X60960000Y3810000D02*
X48895000Y3810000D01*
X46990000Y5715000D02*
X46990000Y11430000D01*
X48895000Y3810000D02*
X46990000Y5715000D01*
D24*
X12065000Y18415000D02*
X14605000Y18415000D01*
X43180000Y11430000D02*
X46990000Y11430000D01*
D23*
%TO.N,Net-(C3-Pad1)*%
X27960000Y5100000D02*
X29210000Y6350000D01*
X27960000Y3810000D02*
X27960000Y5100000D01*
D24*
X32890000Y12700000D02*
X32890000Y9655000D01*
X32890000Y9655000D02*
X33972500Y8572500D01*
D23*
X31750000Y6350000D02*
X33020000Y7620000D01*
X29210000Y6350000D02*
X31750000Y6350000D01*
X33020000Y7620000D02*
X33972500Y8572500D01*
D24*
X36195000Y9525000D02*
X34607500Y7937500D01*
X36195000Y18415000D02*
X36195000Y9525000D01*
X33972500Y8572500D02*
X34607500Y7937500D01*
X35235000Y7310000D02*
X34607500Y7937500D01*
X38735000Y7310000D02*
X35235000Y7310000D01*
D23*
X33020000Y4737500D02*
X33020000Y5080000D01*
X33972500Y6032500D02*
X33972500Y8572500D01*
X33020000Y5080000D02*
X33972500Y6032500D01*
D22*
%TO.N,Net-(C7-Pad1)*%
X54902500Y13970000D02*
X54902500Y12357500D01*
X53975000Y11430000D02*
X52070000Y11430000D01*
X54902500Y12357500D02*
X53975000Y11430000D01*
D23*
X52070000Y11430000D02*
X52070000Y8890000D01*
X52705000Y8255000D02*
X52705000Y6350000D01*
X52070000Y8890000D02*
X52705000Y8255000D01*
%TO.N,Net-(D1-Pad1)*%
X24560000Y11130000D02*
X22990000Y12700000D01*
X24560000Y3810000D02*
X24560000Y11130000D01*
D24*
X22310000Y12020000D02*
X22990000Y12700000D01*
X17825000Y12700000D02*
X17145000Y12020000D01*
X22990000Y12700000D02*
X17825000Y12700000D01*
%TO.N,Net-(J1-Pad2)*%
X3810000Y12065000D02*
X4445000Y12065000D01*
X7574990Y13289990D02*
X7574990Y15977009D01*
X5830010Y11545010D02*
X7574990Y13289990D01*
X4329990Y11545010D02*
X5830010Y11545010D01*
X3810000Y12065000D02*
X4329990Y11545010D01*
X9525000Y17927019D02*
X9525000Y18415000D01*
X7574990Y15977009D02*
X9525000Y17927019D01*
%TO.N,+5V*%
X60960000Y6350000D02*
X68580000Y6350000D01*
X68580000Y6350000D02*
X76200000Y6350000D01*
D23*
X55245000Y6350000D02*
X60960000Y6350000D01*
D24*
%TO.N,+3V3*%
X76200000Y8890000D02*
X68580000Y8890000D01*
X68580000Y8890000D02*
X60960000Y8890000D01*
X59055000Y8890000D02*
X60960000Y8890000D01*
X57785000Y10160000D02*
X59055000Y8890000D01*
X38735000Y18415000D02*
X50800000Y18415000D01*
X57785000Y10160000D02*
X57785000Y17145000D01*
X56515000Y18415000D02*
X50800000Y18415000D01*
X57785000Y17145000D02*
X56515000Y18415000D01*
%TD*%
M02*
