M48
; DRILL file {KiCad 5.1.10-88a1d61d58~90~ubuntu20.04.1} date Sat Feb  4 18:34:07 2023
; FORMAT={3:3/ absolute / metric / suppress leading zeros}
; #@! TF.CreationDate,2023-02-04T18:34:07+01:00
; #@! TF.GenerationSoftware,Kicad,Pcbnew,5.1.10-88a1d61d58~90~ubuntu20.04.1
FMAT,2
METRIC,TZ
T1C0.800
T2C1.000
T3C1.100
T4C1.190
T5C3.200
%
G90
G05
T1
X12065Y6350
X12065Y2850
X14605Y18415
X38735Y7310
X38735Y3810
X43180Y11430
X49530Y6350
X49530Y1905
T2
X9525Y18415
X12065Y18415
X36195Y18415
X38735Y18415
X52705Y6350
X55245Y6350
T3
X22860Y3810
X24560Y3810
X26260Y3810
X27960Y3810
X29660Y3810
X46990Y11430
X49530Y11430
X52070Y11430
T4
X3810Y12065
X3810Y9525
X60960Y11430
X60960Y8890
X60960Y6350
X60960Y3810
X68580Y11430
X68580Y8890
X68580Y6350
X68580Y3810
X76200Y11430
X76200Y8890
X76200Y6350
X76200Y3810
T5
X3810Y17780
X3810Y3810
X76200Y17780
T0
M30
